<svg width="38" height="38" viewBox="0 0 38 38" fill="none" xmlns="http://www.w3.org/2000/svg">
<path d="M10.5822 30.8821C6.22943 30.8821 2.69189 25.5025 2.69189 18.89C2.69189 12.2776 6.23225 6.89795 10.5822 6.89795C14.9322 6.89795 18.4726 12.2776 18.4726 18.89C18.4726 25.5025 14.9322 30.8821 10.5822 30.8821Z" fill="#FAFAFA"/>
<path d="M10.5821 7.4619C12.4524 7.4619 14.2438 8.5903 15.6232 10.6412C17.0958 12.8274 17.9082 15.7585 17.9082 18.8898C17.9082 22.0211 17.0958 24.9521 15.6232 27.1384C14.2438 29.1892 12.4524 30.3176 10.5821 30.3176C8.71178 30.3176 6.92044 29.1892 5.54097 27.1384C4.06559 24.9521 3.25596 22.0211 3.25596 18.8898C3.25596 15.7585 4.06841 12.8274 5.54097 10.6412C6.92044 8.5903 8.70896 7.4619 10.5821 7.4619ZM10.5821 6.3335C5.91335 6.3335 2.12756 11.9558 2.12756 18.8898C2.12756 25.8238 5.91335 31.446 10.5821 31.446C15.2509 31.446 19.0366 25.8238 19.0366 18.8898C19.0366 11.9558 15.2509 6.3335 10.5821 6.3335Z" fill="#B0BEC5"/>
<path d="M8.17575 17.7159C7.41408 16.9993 7.58334 15.5775 8.55941 14.5394C8.61018 14.4858 8.66096 14.435 8.71456 14.3871C8.28013 14.1416 7.80338 14.0034 7.30124 14.0034C5.27294 14.0034 3.6283 16.2405 3.6283 18.9966C3.6283 21.7527 5.27294 23.9898 7.30124 23.9898C9.32954 23.9898 10.9742 21.7527 10.9742 18.9966C10.9742 18.5029 10.9206 18.0233 10.8218 17.572C9.90784 18.2293 8.81612 18.3167 8.17575 17.7159Z" fill="url(#paint0_linear_491_772)"/>
<path d="M27.4178 31.446C32.0871 31.446 35.8723 25.8244 35.8723 18.8898C35.8723 11.9551 32.0871 6.3335 27.4178 6.3335C22.7485 6.3335 18.9633 11.9551 18.9633 18.8898C18.9633 25.8244 22.7485 31.446 27.4178 31.446Z" fill="#EEEEEE"/>
<path d="M27.4179 30.8821C23.0679 30.8821 19.5276 25.5025 19.5276 18.89C19.5276 12.2776 23.0679 6.89795 27.4179 6.89795C31.7679 6.89795 35.3083 12.2776 35.3083 18.89C35.3083 25.5025 31.7707 30.8821 27.4179 30.8821Z" fill="#FAFAFA"/>
<path d="M27.4178 7.4619C29.2881 7.4619 31.0795 8.5903 32.4589 10.6412C33.9315 12.8274 34.7439 15.7585 34.7439 18.8898C34.7439 22.0211 33.9315 24.9521 32.4589 27.1384C31.0795 29.1892 29.2881 30.3176 27.4178 30.3176C25.5475 30.3176 23.7561 29.1892 22.3767 27.1384C20.9041 24.9521 20.0917 22.0211 20.0917 18.8898C20.0917 15.7585 20.9041 12.8274 22.3767 10.6412C23.7561 8.5903 25.5475 7.4619 27.4178 7.4619ZM27.4178 6.3335C22.749 6.3335 18.9633 11.9558 18.9633 18.8898C18.9633 25.8238 22.749 31.446 27.4178 31.446C32.0866 31.446 35.8723 25.8238 35.8723 18.8898C35.8723 11.9558 32.0866 6.3335 27.4178 6.3335Z" fill="#B0BEC5"/>
<path d="M25.0114 17.7159C24.2498 16.9993 24.419 15.5775 25.3951 14.5394C25.4459 14.4858 25.4967 14.435 25.5503 14.3871C25.1158 14.1416 24.6391 14.0034 24.1369 14.0034C22.1086 14.0034 20.464 16.2405 20.464 18.9966C20.464 21.7527 22.1086 23.9898 24.1369 23.9898C26.1652 23.9898 27.8099 21.7527 27.8099 18.9966C27.8099 18.5029 27.7563 18.0233 27.6575 17.572C26.7464 18.2293 25.6518 18.3167 25.0114 17.7159Z" fill="url(#paint1_linear_491_772)"/>
<defs>
<linearGradient id="paint0_linear_491_772" x1="7.29935" y1="14.0023" x2="7.29935" y2="23.9906" gradientUnits="userSpaceOnUse">
<stop stop-color="#424242"/>
<stop offset="1" stop-color="#212121"/>
</linearGradient>
<linearGradient id="paint1_linear_491_772" x1="24.1367" y1="14.0023" x2="24.1367" y2="23.9906" gradientUnits="userSpaceOnUse">
<stop stop-color="#424242"/>
<stop offset="1" stop-color="#212121"/>
</linearGradient>
</defs>
</svg>
