<svg width="69" height="68" viewBox="0 0 69 68" fill="none" xmlns="http://www.w3.org/2000/svg">
<path d="M21.1422 15.9952L20.7683 15.6213C20.2013 15.0543 20.2013 14.1321 20.7683 13.5651L25.6161 8.71726C26.1831 8.15023 27.1053 8.15023 27.6724 8.71726L28.0462 9.09113C28.6132 9.65816 28.6132 10.5804 28.0462 11.1474L23.1984 15.9952C22.6376 16.5622 21.7092 16.5622 21.1422 15.9952Z" fill="#757575"/>
<path d="M32.4328 17.2108L32.0589 16.8369C31.4919 16.2699 31.4919 15.3477 32.0589 14.7806L36.9067 9.93284C37.4738 9.36581 38.396 9.36581 38.963 9.93284L39.3369 10.3067C39.9039 10.8737 39.9039 11.7959 39.3369 12.363L34.4891 17.2108C33.9283 17.7778 32.9998 17.7778 32.4328 17.2108Z" fill="#757575"/>
<path d="M52.1481 47.1255L52.5219 47.4993C53.089 48.0664 54.0112 48.0664 54.5782 47.4993L59.426 42.6515C59.993 42.0845 59.993 41.1623 59.426 40.5953L59.0521 40.2214C58.4851 39.6544 57.5629 39.6544 56.9959 40.2214L52.1481 45.0692C51.581 45.6362 51.581 46.5584 52.1481 47.1255Z" fill="#757575"/>
<path d="M50.9331 35.8349L51.307 36.2088C51.874 36.7758 52.7962 36.7758 53.3632 36.2088L58.211 31.361C58.778 30.794 58.778 29.8718 58.211 29.3048L57.8371 28.9309C57.2701 28.3639 56.3479 28.3639 55.7809 28.9309L50.9331 33.7787C50.3661 34.3457 50.3661 35.2679 50.9331 35.8349Z" fill="#757575"/>
<path d="M45.7051 14.9985C45.7051 14.9985 9.90122 10.9233 5.60176 10.9233C2.03757 10.9233 0 13.9205 0 13.9205C0 13.9205 20.4692 18.8181 27.0368 20.3821C33.6043 21.9462 37.0377 23.6535 37.0377 23.6535L45.7051 14.9985Z" fill="#039BE5"/>
<path opacity="0.2" d="M5.60176 12.3939C9.06625 12.3939 35.1995 15.2789 44.1785 16.2821L38.2091 22.3449C36.4519 21.6471 32.3955 20.1454 27.3795 18.949C22.2824 17.7339 8.81701 14.5125 3.04078 13.1291C3.7262 12.7179 4.59232 12.3939 5.60176 12.3939ZM5.60176 10.9233C2.03757 10.9233 0 13.9205 0 13.9205C0 13.9205 20.4692 18.8181 27.0368 20.3822C33.6043 21.9462 38.5643 24.0834 38.5643 24.0834L47.3564 15.1605C47.3626 15.1543 9.90122 10.9233 5.60176 10.9233Z" fill="#424242"/>
<path d="M53.0081 22.2952C53.0081 22.2952 57.0832 58.0991 57.0832 62.3985C57.0832 65.9627 54.0861 68.0003 54.0861 68.0003C54.0861 68.0003 49.1884 47.5311 47.6244 40.9635C46.0604 34.396 44.3531 30.9626 44.3531 30.9626L53.0081 22.2952Z" fill="#039BE5"/>
<path d="M24.7811 62.554L23.2669 64.3922C22.7248 65.0464 21.7403 64.9654 21.3041 64.2239L15.7709 54.8149C15.478 54.3165 15.5466 53.6684 15.9329 53.2447L20.9801 47.805C21.678 47.051 22.8993 47.456 23.0613 48.4966L25.0615 61.5071C25.1176 61.8872 25.0179 62.2673 24.7811 62.554Z" fill="#039BE5"/>
<path opacity="0.2" d="M21.678 49.2192L23.5972 61.6752L22.3821 63.152L17.0982 54.1605L21.678 49.2192ZM21.8463 47.4185C21.5409 47.4185 21.2231 47.5431 20.9801 47.8048L15.9329 53.2445C15.5404 53.6683 15.4718 54.3163 15.7709 54.8148L21.3042 64.2237C21.5409 64.6225 21.9397 64.8344 22.3447 64.8344C22.6812 64.8344 23.0239 64.6911 23.2669 64.392L24.7811 62.5538C25.0179 62.2672 25.1238 61.8808 25.0615 61.507L23.0613 48.4964C22.9554 47.8235 22.4071 47.4185 21.8463 47.4185Z" fill="#424242"/>
<path d="M5.86977 43.4808L4.03159 44.995C3.37733 45.5371 3.45833 46.5216 4.19983 46.9578L13.6088 52.491C14.1073 52.7838 14.7553 52.7153 15.179 52.329L20.6188 47.2818C21.3727 46.5839 20.9677 45.3626 19.9271 45.2006L6.91659 43.2004C6.5365 43.1381 6.1564 43.244 5.86977 43.4808Z" fill="#039BE5"/>
<path opacity="0.2" d="M6.74835 44.6646L19.2043 46.5838L14.2631 51.1699L5.27781 45.8797L6.74835 44.6646ZM6.71097 43.1816C6.40564 43.1816 6.10655 43.2876 5.86977 43.4807L4.03159 44.9949C3.37733 45.537 3.45833 46.5215 4.19983 46.9577L13.6088 52.4909C13.8144 52.6155 14.0512 52.6716 14.2818 52.6716C14.6058 52.6716 14.9298 52.5532 15.179 52.3227L20.6188 47.2755C21.3727 46.5776 20.9677 45.3563 19.9271 45.1943L6.91659 43.1941C6.84805 43.1879 6.77951 43.1816 6.71097 43.1816Z" fill="#424242"/>
<path opacity="0.2" d="M51.5875 22.7185C52.6218 31.9654 55.6065 58.9336 55.6065 62.3981C55.6065 63.4076 55.2825 64.2737 54.8713 64.9591C53.488 59.1829 50.2665 45.7112 49.0514 40.6204C47.8301 35.5047 46.0605 31.0806 45.2629 29.2175L51.5875 22.7185ZM52.7028 19.4534L43.5182 28.8997C43.5182 28.8997 46.0542 34.3955 47.6245 40.9631C49.1885 47.5307 54.0861 67.9999 54.0861 67.9999C54.0861 67.9999 57.0833 65.9561 57.0833 62.3981C57.0833 58.0987 52.7028 19.4534 52.7028 19.4534Z" fill="#424242"/>
<path d="M66.7537 1.36461C64.5417 -0.847426 59.7438 -0.436174 56.192 3.11555C52.5967 6.7109 19.8647 41.0193 19.8647 41.0193C19.8647 41.0193 14.2754 46.9077 15.6462 52.4721C21.2106 53.8492 27.099 48.2537 27.099 48.2537C27.099 48.2537 61.4573 15.4718 65.0028 11.9263C68.5545 8.3746 68.9658 3.58289 66.7537 1.36461Z" fill="url(#paint0_linear_603_147)"/>
<path d="M64.5104 9.64558C65.6195 8.41182 66.1056 6.21847 64.0057 4.11859C61.9058 2.01871 59.7062 2.50474 58.4787 3.61387C58.298 3.77588 57.8369 4.11859 57.9553 4.40522C58.0612 4.67316 58.5846 4.71055 58.8152 4.73547C60.0053 4.86632 61.0708 5.42089 61.8809 6.2434C62.6971 7.05344 63.2579 8.12519 63.3888 9.3091C63.4137 9.53965 63.4511 10.0631 63.719 10.169C64.0057 10.2874 64.3484 9.82628 64.5104 9.64558Z" fill="#4FC3F7"/>
<path opacity="0.2" d="M63.0461 1.24622C64.2238 1.24622 65.227 1.60139 65.875 2.2432C67.5387 3.9069 67.2334 7.93219 64.1241 11.0415C60.6284 14.5372 26.5879 47.0261 26.2452 47.3501C26.2016 47.3938 21.8648 51.444 17.4781 51.444C17.2226 51.444 16.9671 51.4315 16.7179 51.4004C16.1882 46.7893 20.7182 41.9291 20.7681 41.8792C21.0983 41.5365 53.5312 7.53963 57.0767 4.00037C58.7965 2.27435 61.0272 1.24622 63.0461 1.24622ZM63.0461 0C60.859 0 58.3042 1.00321 56.1981 3.11555C52.6028 6.7109 19.8708 41.0193 19.8708 41.0193C19.8708 41.0193 14.2815 46.9077 15.6524 52.4721C16.263 52.6216 16.8736 52.6902 17.4843 52.6902C22.438 52.6902 27.1051 48.2536 27.1051 48.2536C27.1051 48.2536 61.4634 15.4718 65.0089 11.9263C68.5606 8.3746 68.9781 3.58288 66.7598 1.36461C65.8563 0.467333 64.5353 0 63.0461 0Z" fill="#424242"/>
<path d="M20.8754 49.7178C24.652 45.9412 27.1888 42.3549 26.5415 41.7077C25.8942 41.0604 22.308 43.5972 18.5314 47.3738C14.7548 51.1504 12.218 54.7366 12.8652 55.3839C13.5125 56.0312 17.0988 53.4944 20.8754 49.7178Z" fill="#616161"/>
<defs>
<linearGradient id="paint0_linear_603_147" x1="29.0942" y1="40.4573" x2="64.6102" y2="3.22646" gradientUnits="userSpaceOnUse">
<stop offset="0.0062124" stop-color="#BDBDBD"/>
<stop offset="0.0936" stop-color="#C4C4C4"/>
<stop offset="0.4215" stop-color="#DBDBDB"/>
<stop offset="0.7308" stop-color="#E9E9E9"/>
<stop offset="1" stop-color="#EEEEEE"/>
</linearGradient>
</defs>
</svg>
