<svg width="134" height="200" viewBox="0 0 134 200" fill="none" xmlns="http://www.w3.org/2000/svg">
<mask id="mask0_118_16" style="mask-type:luminance" maskUnits="userSpaceOnUse" x="0" y="0" width="134" height="200">
<path d="M133.36 0H0V200H133.36V0Z" fill="white"/>
</mask>
<g mask="url(#mask0_118_16)">
<path d="M33.3471 200C51.7474 200 66.6804 185.067 66.6804 166.667V133.333H33.3471C14.9471 133.333 0.0136719 148.267 0.0136719 166.667C0.0136719 185.067 14.9471 200 33.3471 200Z" fill="#0ACF83"/>
<path d="M0.0136719 99.9998C0.0136719 81.5998 14.9471 66.6665 33.3471 66.6665H66.6804V133.333H33.3471C14.9471 133.333 0.0136719 118.4 0.0136719 99.9998Z" fill="#A259FF"/>
<path d="M0.0136719 33.3333C0.0136719 14.9333 14.9471 0 33.3471 0H66.6804V66.6667H33.3471C14.9471 66.6667 0.0136719 51.7333 0.0136719 33.3333Z" fill="#F24E1E"/>
<path d="M66.6797 0H100.013C118.413 0 133.347 14.9333 133.347 33.3333C133.347 51.7333 118.413 66.6667 100.013 66.6667H66.6797V0Z" fill="#FF7262"/>
<path d="M133.347 99.9998C133.347 118.4 118.413 133.333 100.013 133.333C81.6127 133.333 66.6797 118.4 66.6797 99.9998C66.6797 81.5998 81.6127 66.6665 100.013 66.6665C118.413 66.6665 133.347 81.5998 133.347 99.9998Z" fill="#1ABCFE"/>
</g>
</svg>
