<svg width="54" height="68" viewBox="0 0 54 68" fill="none" xmlns="http://www.w3.org/2000/svg">
<path d="M10.5517 20.8145C10.2287 24.2598 10.0021 30.3571 12.0364 32.9524C12.0364 32.9524 11.0787 26.2544 19.6636 17.8509C23.1203 14.4679 23.9193 9.86661 22.7123 6.41565C22.0266 4.46067 20.7743 2.84569 19.6863 1.71803C19.0516 1.05504 19.539 -0.0386165 20.4626 0.00104978C26.0499 0.25038 35.1051 1.80303 38.9528 11.4589C40.6414 15.6975 40.7661 20.0778 39.9614 24.5318C39.4514 27.3764 37.6381 33.7003 41.7747 34.4767C44.727 35.032 46.155 32.686 46.7953 30.9974C47.0617 30.2947 47.9853 30.1191 48.484 30.68C53.4706 36.3523 53.8956 43.0332 52.8643 48.7848C50.8696 59.9027 39.6101 67.9946 28.4242 67.9946C14.4504 67.9946 3.32682 59.9991 0.442514 45.5266C-0.71914 39.6843 -0.129812 28.1244 8.88009 19.9645C9.54875 19.3525 10.6424 19.8965 10.5517 20.8145Z" fill="url(#paint0_radial_603_76)"/>
<path d="M33.5299 41.605C28.3789 34.975 30.6853 27.4101 31.9489 24.3955C32.1189 23.9988 31.6656 23.6248 31.3086 23.8685C29.0929 25.3758 24.554 28.9231 22.4403 33.9154C19.5787 40.6643 19.7827 43.9679 21.477 48.0026C22.497 50.4335 21.3127 50.9492 20.7177 51.0399C20.1397 51.1305 19.607 50.7452 19.182 50.3429C17.9637 49.1812 17.0854 47.6682 16.6661 46.0362C16.5754 45.6849 16.1164 45.5886 15.9067 45.8776C14.3201 48.0706 13.4984 51.5895 13.4588 54.0772C13.3341 61.7667 19.6864 68 27.3703 68C37.0545 68 44.1094 57.2901 38.5448 48.3369C36.9298 45.7302 35.4112 44.0246 33.5299 41.605Z" fill="url(#paint1_radial_603_76)"/>
<defs>
<radialGradient id="paint0_radial_603_76" cx="0" cy="0" r="1" gradientUnits="userSpaceOnUse" gradientTransform="translate(25.6567 68.1709) rotate(-179.751) scale(39.9992 65.6307)">
<stop offset="0.3144" stop-color="#FF9800"/>
<stop offset="0.6616" stop-color="#FF6D00"/>
<stop offset="0.9715" stop-color="#F44336"/>
</radialGradient>
<radialGradient id="paint1_radial_603_76" cx="0" cy="0" r="1" gradientUnits="userSpaceOnUse" gradientTransform="translate(27.9029 28.3671) rotate(90.5787) scale(41.8514 31.4964)">
<stop offset="0.2141" stop-color="#FFF176"/>
<stop offset="0.3275" stop-color="#FFF27D"/>
<stop offset="0.4868" stop-color="#FFF48F"/>
<stop offset="0.6722" stop-color="#FFF7AD"/>
<stop offset="0.7931" stop-color="#FFF9C4"/>
<stop offset="0.8221" stop-color="#FFF8BD" stop-opacity="0.804"/>
<stop offset="0.8627" stop-color="#FFF6AB" stop-opacity="0.529"/>
<stop offset="0.9101" stop-color="#FFF38D" stop-opacity="0.2088"/>
<stop offset="0.9409" stop-color="#FFF176" stop-opacity="0"/>
</radialGradient>
</defs>
</svg>
