<svg width="83" height="83" viewBox="0 0 83 83" fill="none" xmlns="http://www.w3.org/2000/svg">
<path d="M57.6047 57.0594C56.376 55.7341 54.7676 54.0084 53.3594 52.5173C50.6259 49.6388 47.2849 47.4851 47.2849 47.4851L41.728 53.4492C41.728 53.4492 43.8886 57.4253 46.6429 59.793C47.989 60.9527 49.6733 62.1331 51.0469 63.0443C50.8399 63.7276 50.6328 64.6181 50.543 65.6812C50.2807 68.9807 50.7915 73.3296 50.8122 73.8128C50.8951 76.3392 50.9227 78.2099 50.9227 78.2099L55.2991 78.1961L58.9439 62.0295C59.3442 60.2555 58.8472 58.3917 57.6047 57.0594Z" fill="url(#paint0_linear_604_270)"/>
<path d="M35.5431 47.4851C35.5431 47.4851 32.202 49.6388 29.4754 52.5242C28.0672 54.0153 26.4588 55.741 25.2301 57.0663C23.9876 58.3986 23.4906 60.2624 23.891 62.0364L27.5357 78.203L31.9121 78.2168C31.9121 78.2168 31.9397 76.3461 32.0226 73.8197C32.0364 73.3365 32.5541 68.9877 32.2918 65.6881C32.209 64.625 31.995 63.7345 31.7879 63.0512C33.1616 62.14 34.8459 60.9596 36.1919 59.7999C38.9462 57.4322 41.1068 53.4561 41.1068 53.4561L35.5431 47.4851Z" fill="url(#paint1_linear_604_270)"/>
<path d="M26.4312 73.8127L27.5425 78.1961L31.919 78.2099L32.0156 73.8127H26.4312Z" fill="#E0E0E0"/>
<path d="M33.4239 79.9357C33.417 78.6103 32.278 77.1055 32.278 77.1055H26.9283L22.8003 78.562C21.7373 78.9831 21.0332 80.0047 21.0332 81.1506V82.0341C21.0332 82.4207 21.3438 82.7382 21.7304 82.7382L32.6301 82.7037C33.0719 82.7037 33.4308 82.3448 33.4308 81.8961L33.4239 79.9357Z" fill="#4568AD"/>
<path d="M50.8123 73.8127L50.9296 78.2099L55.2991 78.1961L56.4036 73.8127H50.8123Z" fill="#E0E0E0"/>
<path d="M60.0346 78.562L55.9135 77.1055H50.5638C50.5638 77.1055 49.4179 78.6103 49.4179 79.9426L49.411 81.903C49.411 82.3448 49.77 82.7037 50.2117 82.7106L61.1045 82.7382C61.4911 82.7382 61.8017 82.4276 61.8017 82.0341V81.1506C61.8017 80.0047 61.0976 78.9831 60.0346 78.562Z" fill="#4568AD"/>
<path d="M48.9139 25.52C48.6447 25.0368 48.9899 24.5398 49.5628 23.9323C50.4809 22.9659 51.4818 20.7156 50.5568 18.4307C50.5637 18.4169 50.3774 18.0303 50.3774 18.0234L49.9908 18.0027C49.8665 17.982 45.6627 17.9751 41.4588 17.9751C37.2549 17.9751 33.0511 17.982 32.9268 18.0027C32.9268 18.0027 32.3608 18.4169 32.3677 18.4307C31.4358 20.7156 32.4367 22.959 33.3617 23.9323C33.9415 24.5398 34.2798 25.0368 34.0106 25.52C33.7552 25.9894 32.982 26.0584 32.982 26.0584C32.982 26.0584 33.1615 26.5416 33.5895 26.8039C33.983 27.0455 34.4731 27.1007 34.8044 27.1076C34.8044 27.1076 36.116 28.9231 39.5467 28.9231H41.4588H43.3709C46.8016 28.9231 48.1132 27.1076 48.1132 27.1076C48.4514 27.1007 48.9346 27.0455 49.3281 26.8039C49.7561 26.5416 49.9356 26.0584 49.9356 26.0584C49.9356 26.0584 49.1693 25.9963 48.9139 25.52Z" fill="#543930"/>
<path d="M41.4589 28.9232V26.9075L47.561 26.4243L48.1133 27.1077C48.1133 27.1077 46.8017 28.9232 43.371 28.9232H41.4589Z" fill="url(#paint2_radial_604_270)"/>
<path d="M48.0994 26.2311C47.1882 24.8436 49.2108 24.3259 49.2108 24.3259C48.8587 24.7608 48.7 25.1474 48.907 25.5201C49.1624 25.9895 49.9356 26.0586 49.9356 26.0586C49.9356 26.0586 48.8863 26.9904 48.0994 26.2311Z" fill="url(#paint3_radial_604_270)"/>
<path d="M50.5569 18.4377C51.4612 20.6466 50.5086 22.9246 49.6181 23.8841C49.4939 24.0152 48.9761 24.526 48.8588 24.9333C48.8588 24.9333 46.8224 22.0893 46.215 20.4257C46.0907 20.0875 45.9803 19.7423 45.9665 19.3834C45.9527 19.1141 45.9941 18.7966 46.1528 18.5688C46.3461 18.2858 50.4603 18.2099 50.4603 18.2099C50.4534 18.203 50.5569 18.4377 50.5569 18.4377Z" fill="url(#paint4_radial_604_270)"/>
<path d="M32.3677 18.4376C31.4634 20.6465 32.416 22.9245 33.3065 23.884C33.4307 24.0151 33.9484 24.5259 34.0658 24.9332C34.0658 24.9332 36.1021 22.0892 36.7096 20.4256C36.8339 20.0874 36.9443 19.7422 36.9581 19.3833C36.9719 19.1141 36.9305 18.7965 36.7717 18.5687C36.5784 18.2857 36.3576 18.3616 36.04 18.3616C35.4257 18.3616 32.7335 18.2029 32.5264 18.2029C32.5333 18.2029 32.3677 18.4376 32.3677 18.4376Z" fill="url(#paint5_radial_604_270)"/>
<path d="M41.4657 28.9232V26.9075L35.3635 26.4243L34.8113 27.1077C34.8113 27.1077 36.1228 28.9232 39.5536 28.9232H41.4657Z" fill="url(#paint6_radial_604_270)"/>
<path d="M34.832 26.2311C35.7501 24.8436 33.7207 24.3259 33.7207 24.3259C34.0727 24.7608 34.2315 25.1474 34.0244 25.5201C33.769 25.9895 32.9958 26.0586 32.9958 26.0586C32.9958 26.0586 34.0382 26.9904 34.832 26.2311Z" fill="url(#paint7_radial_604_270)"/>
<path d="M63.6861 13.1018L60.5522 11.521C58.0465 13.9784 56.8592 16.0838 55.7409 19.7493C53.3732 20.8744 51.3299 22.9384 50.0046 25.0714C48.5964 27.0111 47.7128 28.088 46.6981 30.0139C45.9319 31.4773 46.4841 33.1064 47.8716 34.1211C48.5274 34.6043 49.0589 34.8114 49.5766 34.8114C50.1564 34.8114 50.7087 34.5422 51.3852 34.0866C52.8141 33.272 54.7538 31.1183 55.9963 29.5169L55.9618 29.4962C57.5425 27.5288 59.1371 24.7539 59.9309 22.1308C62.1537 19.8114 63.6861 16.7672 63.6861 13.1018Z" fill="url(#paint8_linear_604_270)"/>
<path d="M36.1367 30.0208C35.122 28.0949 34.2384 27.018 32.8302 25.0783C31.5049 22.9453 29.4616 20.8813 27.0939 19.7562C25.9687 16.0769 24.7815 13.9784 22.2757 11.521L19.1487 13.1087C19.1487 16.7741 20.6811 19.8114 22.9039 22.1377C23.6977 24.7539 25.2854 27.5357 26.873 29.5031L26.8385 29.5238C28.081 31.1252 30.0208 33.2789 31.4497 34.0935C32.1261 34.5491 32.6784 34.8183 33.2582 34.8183C33.7759 34.8183 34.3075 34.6043 34.9632 34.128C36.3438 33.1133 36.9029 31.4773 36.1367 30.0208Z" fill="url(#paint9_linear_604_270)"/>
<path d="M50.0046 25.0714C48.769 26.7695 47.9407 27.8118 47.0709 29.3373C46.2219 29.1165 45.2623 28.9922 44.1993 28.9922H38.5596C37.5173 28.9922 36.5854 29.1165 35.7571 29.3304C34.8873 27.8049 34.0589 26.7626 32.8233 25.0645L26.8385 29.5168C28.081 31.1183 30.7594 34.0865 30.7594 34.0865C31.3323 36.8891 34.6319 48.0304 34.6319 48.0304H48.6241L52.1929 34.0313C52.1929 34.0313 54.7815 31.0769 55.9964 29.5237L50.0046 25.0714Z" fill="url(#paint10_linear_604_270)"/>
<path d="M39.0221 29.4755C39.0221 30.6214 39.9954 31.5533 41.1965 31.5533H41.6314C42.8325 31.5533 43.8058 30.6214 43.8058 29.4755V26.9421H39.0221V29.4755Z" fill="#E59600"/>
<path d="M35.5776 23.7874C34.5076 23.7874 33.631 22.8486 33.631 21.6958C33.631 20.543 34.5007 19.6042 35.5776 19.6042H47.2573C48.3273 19.6042 49.2039 20.543 49.2039 21.6958C49.2039 22.8486 48.3342 23.7874 47.2573 23.7874H35.5776Z" fill="#E59600"/>
<path d="M41.4174 10.9136C37.7174 10.9136 34.2936 14.8689 34.2936 20.5569C34.2936 26.2173 37.821 29.013 41.4174 29.013C45.0138 29.013 48.5412 26.2173 48.5412 20.5569C48.5412 14.8689 45.1173 10.9136 41.4174 10.9136Z" fill="#FFCA28"/>
<path d="M42.2389 23.0212C42.2182 23.0143 42.1905 23.0074 42.1698 23.0005H40.6581C40.6374 23.0005 40.6098 23.0074 40.5891 23.0212C40.451 23.0764 40.3751 23.2214 40.4441 23.3732C40.5062 23.5251 40.81 23.9462 41.4174 23.9462C42.0249 23.9462 42.3217 23.5251 42.3907 23.3732C42.4529 23.2214 42.3769 23.0764 42.2389 23.0212Z" fill="#E59600"/>
<path d="M43.2121 24.7331C42.5287 25.1403 40.2991 25.1403 39.6226 24.7331C39.2292 24.4984 38.8288 24.8573 38.9945 25.2094C39.1532 25.5614 40.375 26.3691 41.4243 26.3691C42.4735 26.3691 43.6815 25.5614 43.8403 25.2094C43.9991 24.8573 43.6056 24.4984 43.2121 24.7331Z" fill="#795548"/>
<path d="M37.9522 22.1168C38.524 22.1168 38.9876 21.6347 38.9876 21.04C38.9876 20.4453 38.524 19.9631 37.9522 19.9631C37.3803 19.9631 36.9167 20.4453 36.9167 21.04C36.9167 21.6347 37.3803 22.1168 37.9522 22.1168Z" fill="#404040"/>
<path d="M44.8827 22.1168C45.4546 22.1168 45.9182 21.6347 45.9182 21.04C45.9182 20.4453 45.4546 19.9631 44.8827 19.9631C44.3109 19.9631 43.8473 20.4453 43.8473 21.04C43.8473 21.6347 44.3109 22.1168 44.8827 22.1168Z" fill="#404040"/>
<path d="M39.4915 19.1073C39.2913 18.845 38.8357 18.4653 37.9522 18.4653C37.0617 18.4653 36.6061 18.845 36.4128 19.1073C36.3231 19.2247 36.3507 19.3558 36.4059 19.4386C36.4611 19.5146 36.6268 19.5836 36.8132 19.5215C36.9996 19.4593 37.3516 19.273 37.9522 19.2661C38.5527 19.273 38.9117 19.4524 39.0911 19.5215C39.2775 19.5836 39.4432 19.5146 39.4984 19.4386C39.5605 19.3558 39.5813 19.2247 39.4915 19.1073Z" fill="#6D4C41"/>
<path d="M46.4221 19.1073C46.2219 18.845 45.7663 18.4653 44.8827 18.4653C43.9922 18.4653 43.5366 18.845 43.3434 19.1073C43.2536 19.2247 43.2812 19.3558 43.3365 19.4386C43.3917 19.5146 43.5574 19.5836 43.7437 19.5215C43.9301 19.4593 44.2822 19.273 44.8827 19.2661C45.4833 19.273 45.8422 19.4524 46.0217 19.5215C46.2081 19.5836 46.3737 19.5146 46.429 19.4386C46.4911 19.3558 46.5118 19.2247 46.4221 19.1073Z" fill="#6D4C41"/>
<path d="M50.0184 13.8404C49.5007 13.0535 48.3272 11.9973 47.2849 11.9283C47.1192 10.9205 46.0354 10.0645 44.9931 9.74007C42.1698 8.84269 40.3336 9.85052 39.3396 10.3889C39.1325 10.4994 37.8072 11.238 36.8822 10.7065C36.3023 10.3751 36.3092 9.48466 36.3092 9.48466C36.3092 9.48466 34.4869 10.175 35.1081 12.1078C34.4869 12.1354 33.6654 12.3977 33.2305 13.2744C32.7128 14.3167 32.8992 15.1934 33.0442 15.6144C32.5057 16.07 31.8293 17.0433 32.2918 18.3066C32.6438 19.2592 34.0382 19.6941 34.0382 19.6941C33.9415 21.406 34.2591 22.4552 34.4248 22.8832C34.4524 22.9591 34.5628 22.9522 34.5766 22.8763C34.7906 22.0272 35.5085 19.0797 35.4395 18.562C35.4395 18.562 37.8624 18.0788 40.168 16.3807C40.6374 16.0355 41.1482 15.7387 41.6866 15.5247C44.5858 14.3719 45.1933 16.3392 45.1933 16.3392C45.1933 16.3392 47.202 15.9527 47.8095 18.7484C48.0373 19.7976 48.196 21.4681 48.3203 22.6416C48.3272 22.7244 48.4445 22.7451 48.4722 22.6623C48.6723 22.1998 49.0796 21.2748 49.1763 20.336C49.2108 20.0047 50.1012 19.5698 50.4878 18.1478C51.0262 16.2288 50.3912 14.4064 50.0184 13.8404Z" fill="#543930"/>
<path d="M49.197 20.3222C49.2315 19.9909 50.122 19.556 50.5086 18.134C50.55 17.9821 50.5845 17.8303 50.6121 17.6715C50.9227 15.9458 50.3636 14.3581 50.0185 13.8335C49.5353 13.1018 48.4998 12.1492 47.5196 11.949C47.4368 11.9352 47.3539 11.9283 47.2711 11.9214C47.2711 11.9214 47.3401 12.377 47.1538 12.7428C46.9122 13.2191 46.429 13.3296 46.429 13.3296C48.983 15.8975 48.8036 18.0374 49.197 20.3222Z" fill="url(#paint11_radial_604_270)"/>
<path d="M39.9609 10.0576C39.7262 10.1681 39.5191 10.2854 39.3396 10.3821C39.1325 10.4925 37.8072 11.2311 36.8822 10.6996C36.3093 10.3752 36.3093 9.50539 36.3093 9.47778C36.0469 9.81603 35.2531 12.2044 37.5725 12.3632C38.5734 12.4322 39.1947 11.5556 39.5605 10.8169C39.6917 10.5546 39.9057 10.1612 39.9609 10.0576Z" fill="url(#paint12_radial_604_270)"/>
<path d="M44.6963 9.6434C46.2564 10.0645 47.0226 10.8583 47.278 11.9214C47.3539 12.232 47.4437 15.1381 41.8937 11.8385C39.8298 10.6098 40.3958 9.83668 40.6374 9.75384C41.5762 9.4156 42.9499 9.174 44.6963 9.6434Z" fill="url(#paint13_radial_604_270)"/>
<path d="M36.3024 9.47768C36.2955 9.47768 36.2955 9.47768 36.2886 9.48458C36.0884 9.56741 34.5283 10.2922 35.1082 12.1008L36.7718 12.37C35.3083 10.879 36.3093 9.47077 36.3024 9.47768C36.3093 9.47768 36.3093 9.47077 36.3024 9.47768Z" fill="url(#paint14_radial_604_270)"/>
<path d="M36.1437 12.2665L35.1151 12.1008C35.0737 12.1008 34.9357 12.1146 34.8666 12.1215C34.2868 12.2044 33.6103 12.5012 33.2376 13.2674C32.8441 14.0889 32.851 14.7999 32.9614 15.2693C32.9891 15.428 33.0581 15.6075 33.0581 15.6075C33.0581 15.6075 33.5689 15.1243 34.7769 15.0967L36.1437 12.2665Z" fill="url(#paint15_radial_604_270)"/>
<path d="M33.0028 15.649C32.4989 16.0977 31.8155 17.0986 32.3194 18.3411C32.699 19.2799 34.0451 19.6872 34.0451 19.6872C34.0451 19.6941 34.3143 19.77 34.4524 19.77L34.7699 15.0898C34.121 15.0898 33.4998 15.2831 33.0994 15.5592C33.1063 15.573 33.0028 15.6421 33.0028 15.649Z" fill="url(#paint16_radial_604_270)"/>
<path d="M25.03 8.98753C24.4087 8.62167 21.4612 8.15918 19.4248 8.15918C18.3065 8.15918 17.4713 8.30414 17.4713 8.6838L17.4644 11.0515C17.4575 13.433 19.0106 15.3796 21.5785 15.3865H21.5854C26.238 15.3865 26.6038 9.90561 25.03 8.98753Z" fill="url(#paint17_radial_604_270)"/>
<path d="M24.8643 11.5142C24.8367 11.6039 24.5951 11.6936 24.3328 11.7627H24.3259C24.0222 11.8386 23.6632 11.9905 22.9936 12.1768C22.0617 12.4392 21.9858 13.6886 21.9858 13.6886C21.8132 13.0397 22.255 11.9007 22.8694 11.6384V11.6315C23.1593 11.4935 23.4837 11.4175 23.8289 11.3623C23.8841 11.3554 24.0222 11.3485 24.1947 11.3554H24.2016C24.5123 11.3623 24.8988 11.4037 24.8643 11.5142Z" fill="#EDA600"/>
<path d="M82.8348 9.91249C82.8348 10.8651 82.3309 11.6382 81.7028 11.6382H1.13208C0.510815 11.6382 0 10.8651 0 9.91249C0 8.95989 0.510815 8.18677 1.13208 8.18677H81.6959C82.324 8.18677 82.8348 8.95989 82.8348 9.91249Z" fill="url(#paint18_linear_604_270)"/>
<path d="M11.6797 19.9149C13.9646 19.9149 15.8214 18.058 15.8214 15.7731V4.14174C15.8214 1.85688 13.9646 0 11.6797 0C9.39484 0 7.53796 1.85688 7.53796 4.14174V15.7731C7.53796 18.058 9.38794 19.9149 11.6797 19.9149Z" fill="url(#paint19_radial_604_270)"/>
<path d="M71.1552 19.9149C68.8703 19.9149 67.0134 18.058 67.0134 15.7731V4.14174C67.0134 1.85688 68.8703 0 71.1552 0C73.44 0 75.2969 1.85688 75.2969 4.14174V15.7731C75.2969 18.058 73.4469 19.9149 71.1552 19.9149Z" fill="url(#paint20_radial_604_270)"/>
<path d="M4.14178 15.9318C5.66732 15.9318 6.90294 14.6962 6.90294 13.1707V6.74407C6.90294 5.21853 5.66732 3.98291 4.14178 3.98291C2.61623 3.98291 1.38062 5.21853 1.38062 6.74407V13.1707C1.38062 14.6962 2.61623 15.9318 4.14178 15.9318Z" fill="url(#paint21_radial_604_270)"/>
<path d="M78.693 15.9318C77.1675 15.9318 75.9319 14.6962 75.9319 13.1707V6.74407C75.9319 5.21853 77.1675 3.98291 78.693 3.98291C80.2186 3.98291 81.4542 5.21853 81.4542 6.74407V13.1707C81.4542 14.6962 80.2186 15.9318 78.693 15.9318Z" fill="url(#paint22_radial_604_270)"/>
<path d="M23.891 11.6382H17.4505L16.8983 8.18677H23.891V11.6382Z" fill="#646464"/>
<path d="M25.6926 7.52421L25.4924 8.59416L25.451 8.82886L25.3543 9.34658L25.2991 9.6503C25.1818 10.2716 24.6364 10.7064 24.029 10.7064C23.9531 10.7064 23.8702 10.6995 23.7943 10.6857C23.4768 10.6305 23.2075 10.4648 23.0212 10.2163C22.7934 10.4234 22.4965 10.5408 22.1721 10.5408C21.9788 10.5408 21.3714 10.2716 21.2678 10.168C21.2402 10.1404 21.2126 10.1128 21.1919 10.0783C21.1643 10.099 21.1367 10.1266 21.1091 10.1473C21.0952 10.1542 20.7018 10.3889 20.3014 10.382C19.9287 10.3751 19.5559 10.1473 19.4455 10.0369C19.335 10.1956 19.1831 10.3337 19.0037 10.4303C18.8794 10.5063 18.7414 10.5546 18.5895 10.5753C18.5205 10.5891 18.4514 10.596 18.3824 10.596C18.1063 10.596 17.8371 10.5063 17.6162 10.3406C17.3263 10.1335 17.1399 9.82978 17.0916 9.48463L17.0018 8.89789V8.89098L16.8845 8.13857C16.8293 7.79342 16.9121 7.44828 17.1192 7.16526C17.3263 6.87534 17.63 6.68896 17.9751 6.64064C18.058 6.62683 18.1408 6.61993 18.2236 6.62683C18.2443 6.62683 18.272 6.62683 18.2927 6.63373C18.5136 6.64754 18.7345 6.72347 18.9277 6.86153C18.9553 6.88224 18.9761 6.90295 18.9968 6.91675C19.0382 6.75799 19.121 6.60612 19.2246 6.48187C19.2522 6.44045 19.2798 6.40594 19.3143 6.37142C19.3557 6.3231 19.3902 6.3024 19.404 6.28859C19.4109 6.28859 19.4109 6.28169 19.4109 6.28169C19.618 6.10221 19.8872 5.99176 20.1841 5.97796C20.2807 5.97106 20.3773 5.97796 20.4671 5.99176C20.5361 6.00557 20.5982 6.02628 20.6604 6.04699C20.8398 6.10221 20.9986 6.19195 21.1367 6.3162C21.1781 6.26098 21.2264 6.20575 21.2747 6.15743C21.3438 6.08841 21.4197 6.02628 21.4956 5.97796C21.537 5.95035 21.5854 5.92964 21.6268 5.90203C21.7993 5.81919 21.9926 5.77777 22.1928 5.78468C22.4137 5.78468 22.6277 5.8399 22.821 5.95035C22.8555 5.96415 22.8831 5.98486 22.9107 6.00557C22.9797 6.05389 23.0419 6.10911 23.104 6.17124C23.2144 6.28169 23.3042 6.41284 23.3663 6.5509C23.4491 6.42665 23.5596 6.3093 23.6907 6.21956C23.7184 6.19885 23.7529 6.17814 23.7874 6.16434C23.9254 6.0884 24.0704 6.03318 24.2223 6.01247C24.3672 5.99176 24.5122 5.99176 24.6571 6.01938C25.0023 6.0815 25.2922 6.27478 25.4924 6.5578C25.6857 6.84772 25.7547 7.18597 25.6926 7.52421Z" fill="url(#paint23_linear_604_270)"/>
<path d="M49.3212 48.3066L48.838 46.9536H34.3626L34.1003 48.3342L27.8877 53.7944L34.8182 60.9941C34.8182 60.9941 39.5053 57.0802 39.9264 56.7074C40.3889 56.2932 40.948 56.2449 41.2862 56.238C41.6245 56.2449 42.1836 56.2932 42.6461 56.7074C43.0672 57.0871 47.7542 60.9941 47.7542 60.9941L54.9471 53.7944L49.3212 48.3066Z" fill="#7C7C7C"/>
<path d="M25.5615 8.2697C25.3199 8.89096 24.0083 8.29731 23.5113 8.0419C23.4354 7.43445 23.3595 7.03408 23.3595 7.03408C23.3595 7.03408 23.3595 7.03408 23.3595 7.04098C23.3802 7.38613 23.035 7.63463 22.7106 7.51038C22.3447 7.36542 21.9237 7.24807 21.6199 7.26187C21.5026 7.26878 21.406 7.28949 21.3162 7.3171C21.2334 7.04788 21.1851 6.86841 21.1851 6.86841C21.1851 6.86841 21.1851 6.89602 21.1851 6.94434C21.1713 7.17904 21.0608 7.39993 20.8675 7.53109C20.1151 8.02119 19.9218 8.94618 20.8123 9.9333C20.5086 10.1404 20.0323 10.1266 19.7631 9.85046C19.4179 9.50532 19.273 8.40776 19.0728 7.59321C19.1349 8.17306 19.3075 9.20849 19.2246 9.60886C19.1211 10.0921 18.6379 10.3958 18.1547 10.2784C17.7336 10.1749 17.2366 9.83666 16.995 8.90477L17.0847 9.49151C17.1331 9.83666 17.3194 10.1404 17.6094 10.3475C17.8302 10.5131 18.0995 10.6029 18.3756 10.6029C18.4446 10.6029 18.5136 10.596 18.5827 10.5822C18.7138 10.5615 18.8312 10.52 18.9416 10.4648C18.9485 10.4579 18.9623 10.4579 18.9692 10.451C18.9761 10.4441 18.9899 10.4441 18.9968 10.4372C19.2868 10.2784 19.4317 10.0575 19.4386 10.0437C19.4731 10.099 19.8321 10.3958 20.267 10.3958C20.8675 10.3958 21.1022 10.1542 21.1022 10.1542C21.1574 10.1887 21.2127 10.2163 21.2679 10.237C21.3093 10.2508 22.9246 10.7962 22.8625 11.4105C22.8556 11.4865 22.8625 11.5624 22.8694 11.6383V11.6659V11.6728C22.8901 11.8523 22.9315 12.0249 22.9936 12.1836L23.0005 12.1767C23.1662 12.0456 23.5666 12.156 23.6011 11.9213C23.7322 11.0309 23.6977 9.96781 23.6149 9.05663L25.3544 9.34655L25.5615 8.2697Z" fill="#EDA600"/>
<path d="M25.8928 10.5201C25.5545 8.66325 23.3111 7.89012 22.4689 7.5933C22.3654 7.55878 20.826 7.19293 20.6396 8.5597C20.5568 9.15335 21.0055 9.80223 21.5784 10.0231C23.1454 10.6237 23.1385 10.955 23.1385 11.1759C23.1316 11.7488 23.4491 12.8326 23.9461 13.157C24.0497 13.2261 24.167 13.2675 24.2775 13.2675C24.3465 13.2675 24.4155 13.2537 24.4846 13.2261C25.4579 12.8188 26.086 11.6039 25.8928 10.5201Z" fill="url(#paint24_linear_604_270)"/>
<path d="M57.8877 8.98753C58.509 8.62167 61.4565 8.15918 63.4929 8.15918C64.6112 8.15918 65.4464 8.30414 65.4464 8.6838L65.4533 11.0515C65.4602 13.433 63.9071 15.3796 61.3392 15.3865H61.3323C56.6797 15.3865 56.307 9.90561 57.8877 8.98753Z" fill="url(#paint25_radial_604_270)"/>
<path d="M58.0534 11.5142C58.081 11.6039 58.3226 11.6936 58.585 11.7627H58.5919C58.8956 11.8386 59.2545 11.9905 59.9241 12.1768C60.856 12.4392 60.9319 13.6886 60.9319 13.6886C61.1045 13.0397 60.6627 11.9007 60.0484 11.6384V11.6315C59.7584 11.4935 59.434 11.4175 59.0889 11.3623C59.0336 11.3554 58.8956 11.3485 58.723 11.3554H58.7161C58.4055 11.3623 58.0189 11.4037 58.0534 11.5142Z" fill="#EDA600"/>
<path d="M59.0267 8.18677H66.0194L65.4671 11.6382H59.0267V8.18677Z" fill="#646464"/>
<path d="M57.225 7.52421L57.4252 8.59416L57.4666 8.82886L57.5633 9.34658L57.6185 9.6503C57.7359 10.2716 58.2812 10.7064 58.8886 10.7064C58.9646 10.7064 59.0474 10.6995 59.1233 10.6857C59.4409 10.6305 59.7101 10.4648 59.8965 10.2163C60.1243 10.4234 60.4211 10.5408 60.7455 10.5408C60.9388 10.5408 61.5463 10.2716 61.6498 10.168C61.6774 10.1404 61.705 10.1128 61.7257 10.0783C61.7533 10.099 61.781 10.1266 61.8086 10.1473C61.8224 10.1542 62.2158 10.3889 62.6162 10.382C62.989 10.3751 63.3548 10.1473 63.4722 10.0369C63.5826 10.1956 63.7345 10.3337 63.914 10.4303C64.0382 10.5063 64.1763 10.5546 64.3281 10.5753C64.3972 10.5891 64.4662 10.596 64.5352 10.596C64.8113 10.596 65.0805 10.5063 65.3014 10.3406C65.5914 10.1335 65.7777 9.82978 65.8261 9.48463L65.9158 8.89789V8.89098L66.0331 8.13857C66.0884 7.79342 66.0055 7.44828 65.7984 7.16526C65.5914 6.87534 65.2876 6.68896 64.9425 6.64064C64.8597 6.62683 64.7768 6.61993 64.694 6.62683C64.6733 6.62683 64.6457 6.62683 64.625 6.63373C64.4041 6.64754 64.1832 6.72347 63.9899 6.86153C63.9623 6.88224 63.9416 6.90295 63.9209 6.91675C63.8794 6.75799 63.7966 6.60612 63.6931 6.48187C63.6654 6.44045 63.6378 6.40594 63.6033 6.37142C63.5619 6.3231 63.5274 6.3024 63.5136 6.28859C63.5067 6.28859 63.5067 6.28169 63.5067 6.28169C63.2996 6.10221 63.0304 5.99176 62.7336 5.97796C62.6369 5.97106 62.5403 5.97796 62.4505 5.99176C62.3815 6.00557 62.3194 6.02628 62.2573 6.04699C62.0778 6.10221 61.919 6.19195 61.781 6.3162C61.7395 6.26098 61.6912 6.20575 61.6429 6.15743C61.5739 6.08841 61.4979 6.02628 61.422 5.97796C61.3806 5.95035 61.3323 5.92964 61.2909 5.90203C61.1183 5.81919 60.925 5.77777 60.7248 5.78468C60.5039 5.78468 60.2899 5.8399 60.0966 5.95035C60.0621 5.96415 60.0345 5.98486 60.0069 6.00557C59.9379 6.05389 59.8758 6.10911 59.8136 6.17124C59.7032 6.28169 59.6134 6.41284 59.5513 6.5509C59.4685 6.42665 59.358 6.3093 59.2269 6.21956C59.1993 6.19885 59.1648 6.17814 59.1302 6.16434C58.9922 6.0884 58.8472 6.03318 58.6954 6.01247C58.5504 5.99176 58.4054 5.99176 58.2605 6.01938C57.9153 6.0815 57.6254 6.27478 57.4252 6.5578C57.2319 6.84772 57.1629 7.18597 57.225 7.52421Z" fill="url(#paint26_linear_604_270)"/>
<path d="M57.3562 8.2697C57.5978 8.89096 58.9094 8.29731 59.4064 8.0419C59.4823 7.43445 59.5582 7.03408 59.5582 7.03408C59.5582 7.03408 59.5582 7.03408 59.5582 7.04098C59.5375 7.38613 59.8827 7.63463 60.2071 7.51038C60.573 7.36542 60.994 7.24807 61.2978 7.26187C61.4151 7.26878 61.5118 7.28949 61.6015 7.3171C61.6843 7.04788 61.7326 6.86841 61.7326 6.86841C61.7326 6.86841 61.7326 6.89602 61.7326 6.94434C61.7465 7.17904 61.8569 7.39993 62.0502 7.53109C62.8026 8.02119 62.9959 8.94618 62.1054 9.9333C62.4091 10.1404 62.8854 10.1266 63.1546 9.85046C63.4998 9.50532 63.6447 8.40776 63.8449 7.59321C63.7828 8.17306 63.6102 9.20849 63.6931 9.60886C63.7897 10.0921 64.2798 10.3958 64.763 10.2784C65.1841 10.1749 65.6811 9.83666 65.9227 8.90477L65.833 9.49151C65.7847 9.83666 65.5983 10.1404 65.3083 10.3475C65.0875 10.5131 64.8182 10.6029 64.5421 10.6029C64.4731 10.6029 64.4041 10.596 64.335 10.5822C64.2039 10.5615 64.0865 10.52 63.9761 10.4648C63.9692 10.4579 63.9554 10.4579 63.9485 10.451C63.9416 10.4441 63.9278 10.4441 63.9209 10.4372C63.6309 10.2784 63.486 10.0575 63.4791 10.0437C63.4446 10.099 63.0856 10.3958 62.6507 10.3958C62.0502 10.3958 61.8155 10.1542 61.8155 10.1542C61.7603 10.1887 61.705 10.2163 61.6498 10.237C61.6015 10.2508 60 10.7962 60.0552 11.4105C60.0621 11.4865 60.0552 11.5624 60.0483 11.6383V11.6659V11.6728C60.0276 11.8523 59.9862 12.0249 59.9241 12.1836L59.9172 12.1767C59.7515 12.0456 59.3511 12.156 59.3166 11.9213C59.1855 11.0309 59.22 9.96781 59.3028 9.05663L57.5633 9.34655L57.3562 8.2697Z" fill="#EDA600"/>
<path d="M57.0249 10.5201C57.3632 8.66325 59.6066 7.89012 60.4488 7.5933C60.5523 7.55878 62.0916 7.19293 62.278 8.5597C62.3609 9.15335 61.9122 9.80223 61.3392 10.0231C59.7723 10.6237 59.7792 10.955 59.7792 11.1759C59.7861 11.7488 59.4685 12.8326 58.9715 13.157C58.868 13.2261 58.7506 13.2675 58.6402 13.2675C58.5712 13.2675 58.5021 13.2537 58.4331 13.2261C57.4598 12.8188 56.8316 11.6039 57.0249 10.5201Z" fill="url(#paint27_linear_604_270)"/>
<defs>
<linearGradient id="paint0_linear_604_270" x1="50.4038" y1="47.7949" x2="50.4038" y2="74.2519" gradientUnits="userSpaceOnUse">
<stop stop-color="#FFB300"/>
<stop offset="0.5" stop-color="#FFCA28"/>
</linearGradient>
<linearGradient id="paint1_linear_604_270" x1="32.431" y1="47.7949" x2="32.431" y2="74.2519" gradientUnits="userSpaceOnUse">
<stop stop-color="#FFB300"/>
<stop offset="0.5" stop-color="#FFCA28"/>
</linearGradient>
<radialGradient id="paint2_radial_604_270" cx="0" cy="0" r="1" gradientUnits="userSpaceOnUse" gradientTransform="translate(44.5752 26.0139) scale(4.99915 2.45559)">
<stop offset="0.7275" stop-color="#6D4C41" stop-opacity="0"/>
<stop offset="1" stop-color="#6D4C41"/>
</radialGradient>
<radialGradient id="paint3_radial_604_270" cx="0" cy="0" r="1" gradientUnits="userSpaceOnUse" gradientTransform="translate(49.502 25.2689) rotate(154.924) scale(1.47728 1.09593)">
<stop offset="0.6628" stop-color="#6D4C41"/>
<stop offset="1" stop-color="#6D4C41" stop-opacity="0"/>
</radialGradient>
<radialGradient id="paint4_radial_604_270" cx="0" cy="0" r="1" gradientUnits="userSpaceOnUse" gradientTransform="translate(45.6721 21.0924) rotate(-94.2783) scale(6.48912 5.40827)">
<stop offset="0.7247" stop-color="#6D4C41" stop-opacity="0"/>
<stop offset="1" stop-color="#6D4C41"/>
</radialGradient>
<radialGradient id="paint5_radial_604_270" cx="0" cy="0" r="1" gradientUnits="userSpaceOnUse" gradientTransform="translate(37.258 21.0919) rotate(-85.7217) scale(6.48912 5.40827)">
<stop offset="0.7247" stop-color="#6D4C41" stop-opacity="0"/>
<stop offset="1" stop-color="#6D4C41"/>
</radialGradient>
<radialGradient id="paint6_radial_604_270" cx="0" cy="0" r="1" gradientUnits="userSpaceOnUse" gradientTransform="translate(38.354 26.0139) rotate(180) scale(4.99915 2.45559)">
<stop offset="0.7275" stop-color="#6D4C41" stop-opacity="0"/>
<stop offset="1" stop-color="#6D4C41"/>
</radialGradient>
<radialGradient id="paint7_radial_604_270" cx="0" cy="0" r="1" gradientUnits="userSpaceOnUse" gradientTransform="translate(33.4289 25.2695) rotate(25.0761) scale(1.47728 1.09593)">
<stop offset="0.6628" stop-color="#6D4C41"/>
<stop offset="1" stop-color="#6D4C41" stop-opacity="0"/>
</radialGradient>
<linearGradient id="paint8_linear_604_270" x1="52.9253" y1="27.2776" x2="61.7867" y2="12.7654" gradientUnits="userSpaceOnUse">
<stop stop-color="#FFB300"/>
<stop offset="0.5" stop-color="#FFCA28"/>
</linearGradient>
<linearGradient id="paint9_linear_604_270" x1="29.8188" y1="27.1539" x2="20.8933" y2="12.8344" gradientUnits="userSpaceOnUse">
<stop stop-color="#FFB300"/>
<stop offset="0.5" stop-color="#FFCA28"/>
</linearGradient>
<linearGradient id="paint10_linear_604_270" x1="41.4174" y1="28.9805" x2="41.4174" y2="46.5806" gradientUnits="userSpaceOnUse">
<stop stop-color="#F78C1F"/>
<stop offset="0.4936" stop-color="#F37F20"/>
<stop offset="1" stop-color="#ED6D23"/>
</linearGradient>
<radialGradient id="paint11_radial_604_270" cx="0" cy="0" r="1" gradientUnits="userSpaceOnUse" gradientTransform="translate(45.308 17.6672) rotate(72.0851) scale(7.60626 5.64366)">
<stop offset="0.6985" stop-color="#6D4C41" stop-opacity="0"/>
<stop offset="1" stop-color="#6D4C41"/>
</radialGradient>
<radialGradient id="paint12_radial_604_270" cx="0" cy="0" r="1" gradientUnits="userSpaceOnUse" gradientTransform="translate(37.8941 9.37585) rotate(28.2026) scale(1.99436 2.36473)">
<stop offset="0.58" stop-color="#6D4C41"/>
<stop offset="1" stop-color="#6D4C41" stop-opacity="0"/>
</radialGradient>
<radialGradient id="paint13_radial_604_270" cx="0" cy="0" r="1" gradientUnits="userSpaceOnUse" gradientTransform="translate(42.3525 12.9945) rotate(-157.19) scale(6.23738 3.50543)">
<stop offset="0.6985" stop-color="#6D4C41" stop-opacity="0"/>
<stop offset="1" stop-color="#6D4C41"/>
</radialGradient>
<radialGradient id="paint14_radial_604_270" cx="0" cy="0" r="1" gradientUnits="userSpaceOnUse" gradientTransform="translate(37.0924 11.1943) scale(1.83058 2.23935)">
<stop offset="0.7016" stop-color="#6D4C41" stop-opacity="0"/>
<stop offset="1" stop-color="#6D4C41"/>
</radialGradient>
<radialGradient id="paint15_radial_604_270" cx="0" cy="0" r="1" gradientUnits="userSpaceOnUse" gradientTransform="translate(36.8395 14.4261) rotate(-164.942) scale(3.43335 3.21299)">
<stop offset="0.6605" stop-color="#6D4C41" stop-opacity="0"/>
<stop offset="1" stop-color="#6D4C41"/>
</radialGradient>
<radialGradient id="paint16_radial_604_270" cx="0" cy="0" r="1" gradientUnits="userSpaceOnUse" gradientTransform="translate(36.028 17.74) rotate(7.83355) scale(3.6046 5.06506)">
<stop offset="0.5981" stop-color="#6D4C41" stop-opacity="0"/>
<stop offset="1" stop-color="#6D4C41"/>
</radialGradient>
<radialGradient id="paint17_radial_604_270" cx="0" cy="0" r="1" gradientUnits="userSpaceOnUse" gradientTransform="translate(21.6685 11.7749) scale(3.91899)">
<stop stop-color="#FFB300"/>
<stop offset="0.5" stop-color="#FFCA28"/>
</radialGradient>
<linearGradient id="paint18_linear_604_270" x1="41.4174" y1="7.75803" x2="41.4174" y2="11.9399" gradientUnits="userSpaceOnUse">
<stop stop-color="#BDBDBD"/>
<stop offset="1" stop-color="#757575"/>
</linearGradient>
<radialGradient id="paint19_radial_604_270" cx="0" cy="0" r="1" gradientUnits="userSpaceOnUse" gradientTransform="translate(11.6433 3.13448) rotate(90) scale(15.1534 8.52124)">
<stop offset="0.3956" stop-color="#9E9E9E"/>
<stop offset="0.7899" stop-color="#646464"/>
</radialGradient>
<radialGradient id="paint20_radial_604_270" cx="0" cy="0" r="1" gradientUnits="userSpaceOnUse" gradientTransform="translate(71.1929 3.19422) rotate(90) scale(15.1534 8.52124)">
<stop offset="0.3956" stop-color="#9E9E9E"/>
<stop offset="0.7899" stop-color="#646464"/>
</radialGradient>
<radialGradient id="paint21_radial_604_270" cx="0" cy="0" r="1" gradientUnits="userSpaceOnUse" gradientTransform="translate(4.29535 6.014) scale(3.26057 5.63979)">
<stop offset="0.4406" stop-color="#9E9E9E"/>
<stop offset="0.9854" stop-color="#646464"/>
</radialGradient>
<radialGradient id="paint22_radial_604_270" cx="0" cy="0" r="1" gradientUnits="userSpaceOnUse" gradientTransform="translate(78.4811 6.014) rotate(180) scale(3.26057 5.63979)">
<stop offset="0.4406" stop-color="#9E9E9E"/>
<stop offset="0.9854" stop-color="#646464"/>
</radialGradient>
<linearGradient id="paint23_linear_604_270" x1="21.2596" y1="8.61915" x2="21.3319" y2="6.33159" gradientUnits="userSpaceOnUse">
<stop stop-color="#FFB300"/>
<stop offset="0.5" stop-color="#FFCA28"/>
</linearGradient>
<linearGradient id="paint24_linear_604_270" x1="21.4042" y1="11.1772" x2="25.0625" y2="9.34567" gradientUnits="userSpaceOnUse">
<stop stop-color="#FFB300"/>
<stop offset="0.4693" stop-color="#FFCA28"/>
</linearGradient>
<radialGradient id="paint25_radial_604_270" cx="0" cy="0" r="1" gradientUnits="userSpaceOnUse" gradientTransform="translate(61.2492 11.7749) rotate(180) scale(3.91898)">
<stop stop-color="#FFB300"/>
<stop offset="0.5" stop-color="#FFCA28"/>
</radialGradient>
<linearGradient id="paint26_linear_604_270" x1="61.658" y1="8.61915" x2="61.5857" y2="6.33159" gradientUnits="userSpaceOnUse">
<stop stop-color="#FFB300"/>
<stop offset="0.5" stop-color="#FFCA28"/>
</linearGradient>
<linearGradient id="paint27_linear_604_270" x1="61.5135" y1="11.1772" x2="57.8551" y2="9.34567" gradientUnits="userSpaceOnUse">
<stop stop-color="#FFB300"/>
<stop offset="0.4693" stop-color="#FFCA28"/>
</linearGradient>
</defs>
</svg>
