<svg width="58" height="58" viewBox="0 0 58 58" fill="none" xmlns="http://www.w3.org/2000/svg">
<g clip-path="url(#clip0_245_214)">
<rect width="58" height="58" rx="29" fill="white"/>
<g clip-path="url(#clip1_245_214)">
<path d="M41.0248 27.4727C41.0248 27.4727 38.4599 32.5505 39.4776 35.0634H18.5328C18.5328 35.0634 19.1766 33.132 16.6844 27.4727H41.0248Z" fill="#191919"/>
<path d="M42.6551 22.6121C43.7454 16.2882 41.0871 9.00895 35.6458 6.361C35.4589 6.26754 22.323 -0.0771484 16.1341 13.8064C15.3241 15.6236 14.8776 18.7181 15.1995 20.7015L15.2514 22.1137C15.4799 27.773 18.9689 32.7263 24.0052 34.3773C26.4559 35.1769 29.2908 35.6027 32.2918 35.0731C38.0342 34.0658 42.3124 28.853 42.6551 22.6121Z" fill="#191919"/>
<path d="M18.1175 21.9365C18.1175 21.9365 15.5318 20.9811 14.9295 23.2864C14.7842 23.8679 14.8049 24.4806 15.0022 25.0517C15.3657 26.1628 16.321 27.9904 18.5432 27.4089" fill="white"/>
<path d="M17.7436 27.8145C16.3729 27.8145 15.293 26.8799 14.7115 25.1354C14.4934 24.5124 14.4726 23.8478 14.6284 23.204C14.8153 22.4978 15.1891 21.989 15.7499 21.6983C16.8194 21.1375 18.159 21.6256 18.2213 21.6463C18.377 21.7086 18.4601 21.8748 18.3978 22.0409C18.3355 22.1967 18.1694 22.2798 18.0032 22.2175C17.9928 22.2175 16.8506 21.8021 16.0199 22.2382C15.6253 22.4459 15.3553 22.8197 15.2099 23.3597C15.0749 23.8789 15.0957 24.4293 15.2722 24.9485C16.0302 27.2226 17.4217 27.3784 18.4497 27.1084C18.6159 27.0668 18.782 27.1603 18.8236 27.3264C18.8651 27.4926 18.7716 27.6587 18.6055 27.7003C18.3147 27.773 18.024 27.8145 17.7436 27.8145Z" fill="#191919"/>
<path d="M40.0591 22.1769C40.0591 22.1769 42.6551 21.2942 43.2158 23.6099C43.3508 24.1914 43.3093 24.8041 43.1016 25.3648C42.707 26.4655 41.6998 28.2724 39.4983 27.6285" fill="white"/>
<path d="M40.3602 28.0643C40.0591 28.0643 39.7372 28.0124 39.4049 27.919C39.2387 27.867 39.1557 27.7009 39.1972 27.5451C39.2387 27.379 39.4153 27.2959 39.571 27.3375C40.5991 27.6386 41.9905 27.5244 42.8109 25.2606C42.9978 24.7518 43.0393 24.2015 42.9147 23.6719C42.7901 23.1319 42.5201 22.7477 42.1359 22.54C41.3156 22.0831 40.1733 22.4673 40.1629 22.4673C40.0072 22.5192 39.8306 22.4362 39.7787 22.2804C39.7268 22.1246 39.8099 21.9481 39.9656 21.8962C40.0175 21.8754 41.3675 21.4289 42.4267 22.0104C42.977 22.3115 43.3405 22.8308 43.5066 23.5473C43.652 24.1911 43.6104 24.866 43.382 25.4787C42.7693 27.1609 41.6894 28.0643 40.3602 28.0643Z" fill="#191919"/>
<path d="M6.47686 57.6896C6.47686 57.6896 5.03347 51.0126 13.7457 46.9628C13.7457 46.9628 23.4757 41.5008 24.2856 41.0958C24.2856 41.0958 28.7404 39.2059 33.6002 41.0958L46.5907 47.9805C46.5907 47.9805 52.3539 51.3553 51.5439 57.7L6.47686 57.6896Z" fill="white"/>
<path d="M51.8035 58.0003H6.22764L6.17572 57.7615C6.16533 57.6888 5.80189 55.9858 6.54955 53.7532C7.78526 50.0565 11.0666 47.8758 13.6004 46.7024C14.1299 46.4116 23.3407 41.23 24.1402 40.8354L24.161 40.825C24.3479 40.7419 28.7819 38.9143 33.704 40.825L33.7352 40.8354L46.7257 47.72C46.7984 47.7616 52.6654 51.2714 51.8347 57.7407L51.8035 58.0003ZM6.73646 57.3876H51.2635C51.8451 51.4895 46.4869 48.2704 46.4245 48.2392L33.4652 41.3753C28.8754 39.5997 24.6179 41.2923 24.4102 41.3753C23.5587 41.8011 13.995 47.1801 13.8911 47.232L13.8703 47.2424C10.4021 48.8519 8.06563 51.1572 7.14144 53.909C6.59108 55.5185 6.67416 56.8581 6.73646 57.3876Z" fill="#191919"/>
<path d="M23.7353 41.6773V35.7168H34.2959V41.6773" fill="white"/>
<path d="M34.2959 41.9788C34.1298 41.9788 33.9948 41.8438 33.9948 41.6776V36.0183H24.0468V41.6776C24.0468 41.8438 23.9118 41.9788 23.7456 41.9788C23.5795 41.9788 23.4445 41.8438 23.4445 41.6776V35.416H34.6074V41.6776C34.597 41.8438 34.462 41.9788 34.2959 41.9788Z" fill="#191919"/>
<path d="M34.2959 34.7935C34.2959 34.7935 28.7196 38.3864 23.7456 34.3262V35.7176C23.7456 35.7176 28.9688 41.3043 34.2959 40.1101V34.7935Z" fill="#191919"/>
<path d="M29.0208 38.8537C22.6761 38.8121 17.5982 30.5464 17.6398 24.2017L17.6917 17.8258C17.7332 11.4811 22.9149 6.38254 29.2596 6.42408C35.6043 6.46562 40.7029 11.6473 40.6614 17.992L40.6198 24.3678C40.5575 30.7229 35.3551 38.9056 29.0208 38.8537Z" fill="white"/>
<path d="M29.0727 39.1649C29.0519 39.1649 29.0312 39.1649 29.0104 39.1649C25.9782 39.1442 23.0188 37.3373 20.6823 34.0767C18.564 31.1276 17.3075 27.4413 17.3283 24.2118L17.3802 17.836C17.4009 14.6896 18.647 11.7405 20.89 9.52868C23.133 7.31687 26.1028 6.11231 29.2492 6.13308C32.3956 6.15384 35.3551 7.39994 37.5565 9.64291C39.7579 11.8859 40.9729 14.8557 40.9521 18.0021L40.9106 24.378C40.8898 27.6074 39.5814 31.273 37.4111 34.2013C35.0436 37.3996 32.0841 39.1649 29.0727 39.1649ZM29.1661 6.73536C26.2067 6.73536 23.4237 7.87761 21.3158 9.95443C19.187 12.052 18.0032 14.8557 17.9825 17.836L17.9305 24.2118C17.9098 27.3167 19.1143 30.868 21.1704 33.7133C23.3926 36.8077 26.1859 38.5315 29.0104 38.5523C31.8453 38.573 34.649 36.9012 36.9231 33.8379C39.0103 31.0134 40.2771 27.4828 40.2979 24.378L40.3395 18.0021C40.3602 15.0115 39.218 12.1974 37.1204 10.0687C35.0228 7.93991 32.2191 6.75612 29.2388 6.73536C29.2181 6.73536 29.1973 6.73536 29.1661 6.73536Z" fill="#191919"/>
<path d="M21.7519 42.4883C21.7519 42.4883 29.0208 51.0448 36.2897 42.4883C36.2897 42.4883 46.6634 47.7115 47.9302 48.9784C47.9302 48.9784 52.032 51.564 51.5439 57.701H6.47686C6.47686 57.701 5.34499 51.7301 11.8662 47.9815L21.7519 42.4883Z" fill="#191919"/>
<path d="M23.7145 23.3717C24.1274 23.3717 24.4621 22.9068 24.4621 22.3333C24.4621 21.7598 24.1274 21.2949 23.7145 21.2949C23.3016 21.2949 22.9668 21.7598 22.9668 22.3333C22.9668 22.9068 23.3016 23.3717 23.7145 23.3717Z" fill="#191919"/>
<path d="M20.6512 20.734C20.5577 20.734 20.4746 20.6925 20.4123 20.6198C20.3085 20.4848 20.3293 20.2979 20.4539 20.194C23.3614 17.8576 26.7363 19.5606 26.7674 19.5814C26.9128 19.6541 26.9751 19.841 26.892 19.9864C26.8193 20.1317 26.6324 20.194 26.4871 20.111C26.3624 20.0487 23.4237 18.5741 20.8381 20.6613C20.7862 20.7132 20.7135 20.734 20.6512 20.734Z" fill="#191919"/>
<path d="M33.7352 23.3717C34.1481 23.3717 34.4828 22.9068 34.4828 22.3333C34.4828 21.7598 34.1481 21.2949 33.7352 21.2949C33.3223 21.2949 32.9875 21.7598 32.9875 22.3333C32.9875 22.9068 33.3223 23.3717 33.7352 23.3717Z" fill="#191919"/>
<path d="M37.3281 20.9822C37.2658 20.9822 37.1931 20.9614 37.1412 20.9095C34.5555 18.8119 31.6064 20.2761 31.4818 20.3384C31.3364 20.4111 31.1495 20.3592 31.0768 20.2034C31.0041 20.058 31.0561 19.8711 31.2118 19.7984C31.243 19.7777 34.6282 18.0954 37.5254 20.4422C37.6604 20.5461 37.6707 20.7434 37.5669 20.868C37.5046 20.9511 37.4215 20.9822 37.3281 20.9822Z" fill="#191919"/>
<path d="M28.8235 33.5158C27.9097 33.5158 26.8401 33.3808 25.6563 32.9965C25.5006 32.9446 25.4071 32.7681 25.459 32.6123C25.5109 32.4566 25.6875 32.3631 25.8432 32.415C29.1142 33.495 31.5649 32.4254 31.596 32.415C31.7518 32.3423 31.9283 32.415 32.001 32.5708C32.0737 32.7266 32.001 32.9031 31.8452 32.9758C31.7726 33.0069 30.6199 33.5158 28.8235 33.5158Z" fill="#191919"/>
<path d="M28.865 29.7561C28.3354 29.7561 27.7643 29.6522 27.4528 29.268C27.1516 28.9046 27.162 28.3854 27.4632 27.7312C27.8266 26.9731 28.0862 26.1735 28.242 25.3532C28.5431 23.7437 28.6469 22.5703 28.5327 22.0718C28.4912 21.9057 28.595 21.7499 28.7612 21.7084C28.9273 21.6668 29.0831 21.7707 29.1246 21.9368C29.2596 22.5287 29.1661 23.7229 28.8339 25.4674C28.6677 26.3397 28.3873 27.1912 28.0031 27.9908C27.8681 28.2815 27.7435 28.6761 27.9097 28.8942C28.2108 29.268 29.3219 29.1538 29.81 29.0396C29.9761 28.998 30.1319 29.1019 30.1734 29.268C30.2149 29.4342 30.1111 29.5899 29.945 29.6315C29.8619 29.6522 29.3842 29.7561 28.865 29.7561Z" fill="#191919"/>
<path d="M29.5192 6.39277C29.5192 6.39277 29.675 8.52151 27.1828 8.76035C26.0925 8.85381 25.0333 9.16533 24.0676 9.67415C22.4892 10.5256 20.9523 11.9275 19.7997 14.3574C19.7997 14.3574 17.9825 18.1995 18.6574 21.4497C18.6574 21.4497 17.0271 22.1039 16.6637 19.9025C16.6637 19.9025 15.7187 13.4228 19.8516 9.17571C19.862 9.16533 26.269 4.02519 29.5192 6.39277Z" fill="#191919"/>
<path d="M28.7715 6.39277C28.7715 6.39277 28.6158 8.52151 31.108 8.76035C32.1983 8.85381 33.2575 9.16533 34.2232 9.67415C35.8016 10.5256 37.3384 11.9275 38.4911 14.3574C38.4911 14.3574 40.3083 18.1995 39.6333 21.4497C39.6333 21.4497 41.2636 22.1039 41.6271 19.9025C41.6271 19.9025 42.572 13.4228 38.4392 9.17571C38.4288 9.16533 32.0218 4.02519 28.7715 6.39277Z" fill="#191919"/>
</g>
</g>
<defs>
<clipPath id="clip0_245_214">
<rect width="58" height="58" rx="29" fill="white"/>
</clipPath>
<clipPath id="clip1_245_214">
<rect width="53.1667" height="53.1667" fill="white" transform="translate(2.41667 4.83398)"/>
</clipPath>
</defs>
</svg>
