<svg width="25" height="26" viewBox="0 0 25 26" fill="none" xmlns="http://www.w3.org/2000/svg">
<path d="M18.4549 25.4976H2.09608C1.19635 25.4976 0.460205 24.7615 0.460205 23.8618V2.59535C0.460205 1.69562 1.19635 0.959473 2.09608 0.959473H18.4549C19.3546 0.959473 20.0907 1.69562 20.0907 2.59535V23.8618C20.0907 24.7615 19.3546 25.4976 18.4549 25.4976Z" fill="url(#paint0_linear_529_1230)"/>
<path d="M2.09619 3.41357H7.82176V4.23151H2.09619V3.41357Z" fill="#BDBDBD"/>
<path d="M2.09619 5.86719H17.637V6.68513H2.09619V5.86719Z" fill="#BDBDBD"/>
<path d="M2.09619 8.32129H17.637V9.13923H2.09619V8.32129Z" fill="#BDBDBD"/>
<path d="M2.09619 10.7749H17.637V11.5928H2.09619V10.7749Z" fill="#BDBDBD"/>
<path d="M2.09619 13.2285H17.637V14.0465H2.09619V13.2285Z" fill="#BDBDBD"/>
<path d="M2.09619 15.6826H13.5473V16.5006H2.09619V15.6826Z" fill="#BDBDBD"/>
<path d="M2.09619 18.1362H11.9115V18.9542H2.09619V18.1362Z" fill="#BDBDBD"/>
<path d="M2.09619 20.5903H6.18588V21.4083H2.09619V20.5903Z" fill="#BDBDBD"/>
<path opacity="0.2" d="M18.4549 1.57293C19.0192 1.57293 19.4773 2.03097 19.4773 2.59535V23.8618C19.4773 24.4261 19.0192 24.8842 18.4549 24.8842H2.09608C1.5317 24.8842 1.07366 24.4261 1.07366 23.8618V2.59535C1.07366 2.03097 1.5317 1.57293 2.09608 1.57293H18.4549ZM18.4549 0.959473H2.09608C1.19635 0.959473 0.460205 1.69562 0.460205 2.59535V23.8618C0.460205 24.7615 1.19635 25.4976 2.09608 25.4976H18.4549C19.3546 25.4976 20.0907 24.7615 20.0907 23.8618V2.59535C20.0907 1.69562 19.3546 0.959473 18.4549 0.959473Z" fill="#424242"/>
<path d="M7.0343 20.621L7.96062 18.1487L8.59861 16.4474C8.74175 16.0078 8.98713 15.609 9.31431 15.2819L10.7866 13.8096L14.6043 17.6273L13.132 19.0996C12.8049 19.4268 12.4061 19.6721 11.9665 19.8153L10.2652 20.4533L7.79294 21.3796C7.32467 21.5309 6.88094 21.0872 7.0343 20.621Z" fill="url(#paint1_linear_529_1230)"/>
<path opacity="0.2" d="M10.7846 14.6766L13.7333 17.6253L12.6945 18.664C12.4369 18.9217 12.1179 19.118 11.7723 19.2305L11.7478 19.2386L10.0465 19.8766L7.6274 20.7825L8.53327 18.3634L9.17126 16.6621L9.17944 16.6376C9.29191 16.292 9.48821 15.973 9.74586 15.7154L10.7846 14.6766ZM10.7846 13.8096L9.31235 15.2819C8.98518 15.609 8.7398 16.0078 8.59666 16.4474L7.95867 18.1487L7.03235 20.621C6.90148 21.0238 7.2123 21.4082 7.59877 21.4082C7.66012 21.4082 7.72351 21.398 7.78894 21.3775L10.2612 20.4512L11.9625 19.8132C12.4021 19.6701 12.8009 19.4247 13.128 19.0975L14.6003 17.6253L10.7846 13.8096Z" fill="#424242"/>
<path d="M7.03431 20.6207L7.96062 18.1484C8.44321 18.3877 8.89921 18.7087 9.3 19.1116C9.70283 19.5144 10.0218 19.9684 10.2631 20.4509L7.7909 21.3772C7.32468 21.5306 6.88094 21.0869 7.03431 20.6207Z" fill="url(#paint2_linear_529_1230)"/>
<path opacity="0.2" d="M8.27757 19.0482C8.48819 19.1954 8.6845 19.361 8.86649 19.543C9.04848 19.725 9.21411 19.9213 9.36134 20.1319L7.62731 20.7822L8.27757 19.0482ZM7.96062 18.1484L7.0343 20.6207C6.90343 21.0235 7.21425 21.4079 7.60073 21.4079C7.66207 21.4079 7.72546 21.3977 7.7909 21.3772L10.2631 20.4509C10.0239 19.9684 9.70283 19.5123 9.29999 19.1116C8.8992 18.7087 8.4432 18.3877 7.96062 18.1484Z" fill="#424242"/>
<path d="M17.8599 6.73381L21.6776 10.5515L22.9495 9.2776L19.1338 5.46191L17.8599 6.73381Z" fill="url(#paint3_linear_529_1230)"/>
<path d="M22.1008 10.1284L18.2836 6.31121L18.7073 5.88756L22.5245 9.70477L22.1008 10.1284Z" fill="#9E9E9E"/>
<path d="M19.1338 5.46249L22.9515 9.28022L24.6487 7.58299C25.117 7.11472 25.117 6.35404 24.6487 5.88577L22.5282 3.76526C22.06 3.297 21.2993 3.297 20.831 3.76526L19.1338 5.46249Z" fill="url(#paint4_linear_529_1230)"/>
<path d="M20.5466 9.41941L18.9905 7.86328L11.1383 15.7155L11.124 16.0222C11.0954 16.6827 11.7272 17.3146 12.3857 17.2839L12.6924 17.2696L20.5466 9.41941Z" fill="url(#paint5_linear_529_1230)"/>
<path d="M21.6776 10.5517L13.4757 18.7536C13.0156 18.5614 12.6598 18.0788 12.6803 17.5798L12.6946 17.2731L20.5468 9.4209L21.6776 10.5517Z" fill="url(#paint6_linear_529_1230)"/>
<path d="M18.9926 7.86517L11.1404 15.7174L10.8337 15.7317C10.3347 15.7542 9.85213 15.3963 9.65991 14.9363L17.8618 6.73438L18.9926 7.86517Z" fill="url(#paint7_linear_529_1230)"/>
<path opacity="0.2" d="M21.6776 4.02703C21.835 4.02703 21.9822 4.08837 22.0927 4.1988L24.2132 6.3193C24.3236 6.42972 24.3849 6.57695 24.3849 6.73441C24.3849 6.89186 24.3236 7.03909 24.2132 7.14951L13.4143 17.9483C13.3366 17.842 13.2896 17.7193 13.2937 17.6069L13.308 17.3001L13.3366 16.6315L12.668 16.6601L12.3612 16.6744H12.3449C12.2038 16.6744 12.0443 16.5967 11.9216 16.4679C11.801 16.3431 11.7335 16.1857 11.7396 16.0507L11.7539 15.744L11.7826 15.0753L11.1139 15.104L10.8072 15.1183H10.7908C10.6824 15.1183 10.5659 15.0733 10.4657 14.9976L21.2645 4.1988C21.3749 4.08837 21.5222 4.02703 21.6776 4.02703ZM21.6776 3.41357C21.3708 3.41357 21.0641 3.53013 20.829 3.76529L9.65796 14.9363C9.84608 15.3841 10.3062 15.7317 10.7888 15.7317H10.8317L11.1384 15.7174L11.1262 16.0241C11.0975 16.6703 11.7008 17.2879 12.3449 17.2879H12.3878L12.6946 17.2735L12.6802 17.5803C12.6577 18.0792 13.0156 18.5618 13.4757 18.754L24.6467 7.58302C25.115 7.11475 25.115 6.35406 24.6467 5.88579L22.5262 3.76529C22.2931 3.53013 21.9843 3.41357 21.6776 3.41357Z" fill="#424242"/>
<defs>
<linearGradient id="paint0_linear_529_1230" x1="10.2755" y1="0.209689" x2="10.2755" y2="25.2113" gradientUnits="userSpaceOnUse">
<stop stop-color="#F5F5F5"/>
<stop offset="1" stop-color="#E0E0E0"/>
</linearGradient>
<linearGradient id="paint1_linear_529_1230" x1="10.8032" y1="6.08578" x2="10.8032" y2="20.942" gradientUnits="userSpaceOnUse">
<stop offset="0.006854" stop-color="#FFECB3"/>
<stop offset="1" stop-color="#FFE082"/>
</linearGradient>
<linearGradient id="paint2_linear_529_1230" x1="8.63358" y1="14.835" x2="8.63358" y2="21.2075" gradientUnits="userSpaceOnUse">
<stop stop-color="#757575"/>
<stop offset="1" stop-color="#424242"/>
</linearGradient>
<linearGradient id="paint3_linear_529_1230" x1="20.4057" y1="4.65011" x2="20.4057" y2="11.1002" gradientUnits="userSpaceOnUse">
<stop stop-color="#E0E0E0"/>
<stop offset="1" stop-color="#9E9E9E"/>
</linearGradient>
<linearGradient id="paint4_linear_529_1230" x1="22.0659" y1="2.53877" x2="22.0659" y2="8.7322" gradientUnits="userSpaceOnUse">
<stop stop-color="#E57373"/>
<stop offset="1" stop-color="#F44336"/>
</linearGradient>
<linearGradient id="paint5_linear_529_1230" x1="15.8357" y1="5.23811" x2="15.8357" y2="16.459" gradientUnits="userSpaceOnUse">
<stop stop-color="#FFC107"/>
<stop offset="1" stop-color="#FFA000"/>
</linearGradient>
<linearGradient id="paint6_linear_529_1230" x1="22.2255" y1="8.87306" x2="14.644" y2="16.4546" gradientUnits="userSpaceOnUse">
<stop stop-color="#FFCA28"/>
<stop offset="1" stop-color="#FFB300"/>
</linearGradient>
<linearGradient id="paint7_linear_529_1230" x1="19.5391" y1="6.18726" x2="11.9577" y2="13.7687" gradientUnits="userSpaceOnUse">
<stop stop-color="#FFCA28"/>
<stop offset="1" stop-color="#FFB300"/>
</linearGradient>
</defs>
</svg>
