<svg width="320" height="291" viewBox="0 0 320 291" fill="none" xmlns="http://www.w3.org/2000/svg">
<path d="M301.134 101.754C301.363 102.018 300.043 101.754 319.245 105.151V104.042L302.032 100.61C278.993 74.3336 247.102 64.7416 211.902 65.7624C209.262 56.9624 196.854 15.796 194.637 10.0936C192.173 3.75758 187.966 0.800781 181.401 0.800781C175.224 0.800781 84.6014 25.0888 79.3214 26.5496C69.307 29.2424 38.3486 36.916 17.7214 42.2312C-1.92018 47.3176 0.244624 59.8488 1.59982 67.3288C9.16782 109.921 27.1198 172.77 56.019 239.369C53.2798 247.794 52.1922 256.668 52.8158 265.505C55.2446 298.558 80.7822 322.388 107.059 329.674L108.96 335.201H110.843C108.537 328.882 108.696 328.372 107.957 328.161C80.7998 320.364 57.4622 296.041 54.963 265.329C53.203 243.206 63.763 220.185 78.7758 206.545C83.2638 202.497 92.8558 195.985 96.0414 201.054C82.1726 223.177 72.3694 248.415 70.0638 266.086C71.2743 265.883 72.5172 266.023 73.6524 266.489C74.7875 266.956 75.7696 267.73 76.4878 268.726C76.875 269.254 76.7166 270.292 75.8366 269.412C75.1768 268.801 74.4 268.33 73.5529 268.027C72.7059 267.725 71.8064 267.597 70.9086 267.652C70.7433 267.671 70.5834 267.723 70.4383 267.804C70.2932 267.886 70.1659 267.996 70.0638 268.127C69.5182 268.884 70.0638 270.01 70.7854 270.626C72.2843 271.756 74.0719 272.439 75.9422 272.598C76.2405 272.621 76.5402 272.573 76.8159 272.457C77.0916 272.34 77.3352 272.159 77.5262 271.929C83.2463 264.855 88.407 257.346 92.9614 249.471C94.9596 256.343 97.9922 262.872 101.955 268.831L98.3998 275.361C98.3802 275.393 98.3671 275.429 98.3613 275.466C98.3556 275.504 98.3572 275.542 98.3662 275.579C98.3752 275.616 98.3914 275.65 98.4137 275.681C98.4361 275.711 98.4643 275.737 98.4966 275.757C98.529 275.776 98.5649 275.789 98.6023 275.795C98.6397 275.801 98.6779 275.799 98.7147 275.79C98.7515 275.781 98.7861 275.765 98.8166 275.743C98.8472 275.72 98.873 275.692 98.8926 275.66L103.68 269.201C103.744 269.101 103.779 268.985 103.779 268.866C103.779 268.748 103.744 268.632 103.68 268.532C100.913 264.437 98.5555 260.081 96.6398 255.526C94.7889 251.023 93.4144 246.34 92.539 241.551C86.6782 206.844 125.205 227.049 134.497 275.766C138.968 298.998 132.35 312.726 132.35 313.852C132.358 313.937 132.394 314.018 132.452 314.081C132.51 314.143 132.588 314.185 132.672 314.199C132.757 314.213 132.844 314.199 132.919 314.158C132.995 314.118 133.054 314.053 133.089 313.975C136.882 303.219 138.087 291.721 136.609 280.412C139.46 280.538 142.314 280.235 145.075 279.514C147.768 286.554 148.384 292.908 145.691 300.177C145.633 300.285 145.602 300.406 145.602 300.529C145.602 300.652 145.633 300.773 145.691 300.881L169.68 335.201H171.88L147.117 300.353C147.454 299.506 147.748 298.643 147.997 297.766C147.997 297.766 193.757 284.9 205.813 280.817C213.574 278.177 245.501 267.916 256.36 264.466C267.729 260.858 272.499 257.62 274.541 252.146C276.582 246.673 273.537 239.017 266.585 221.927C262.907 212.863 243.705 161.577 242.509 158.567C253.069 158.374 267.289 153.111 275.949 147.62L319.174 169.321V167.561L275.931 145.015C269.313 148.852 258.982 155.769 242.209 157.687C231.544 129.298 233.075 134.42 227.267 115.94C229.696 115.658 232.142 115.306 234.553 114.919L249.109 126.113C249.188 126.178 249.29 126.209 249.392 126.199C249.495 126.189 249.589 126.139 249.654 126.06C249.72 125.981 249.751 125.879 249.741 125.776C249.731 125.674 249.681 125.58 249.601 125.514L235.31 113.441C234.765 113.001 234.589 113.441 226.792 114.11C218.309 114.972 199.107 116.01 192.313 110.924C188.793 108.178 189.55 104.711 192.56 101.332C204.88 88.0616 240.59 83.2392 259.792 82.5704C259.838 82.5816 259.887 82.5821 259.934 82.5718C259.981 82.5616 260.024 82.5409 260.062 82.5112C260.1 82.4816 260.13 82.4438 260.151 82.4007C260.172 82.3576 260.183 82.3103 260.183 82.2624C260.183 82.2145 260.172 82.1672 260.151 82.1241C260.13 82.081 260.1 82.0432 260.062 82.0135C260.024 81.9839 259.981 81.9631 259.934 81.9529C259.887 81.9427 259.838 81.9432 259.792 81.9544C245.832 81.9711 231.931 83.7451 218.414 87.2344C216.373 80.5464 214.278 73.6648 212.237 66.9064C277.374 67.2936 297.069 99.1496 301.134 101.754ZM19.0942 47.2824C40.7598 41.6856 162.2 9.86478 178.656 6.46798C180.87 5.82684 183.231 5.90697 185.397 6.69678C188.125 7.85838 189.286 10.4632 190.677 14.3704C153.329 22.5016 31.5198 54.5864 6.14062 62.788C5.36622 56.5224 6.43982 50.556 19.0942 47.2824ZM6.19342 63.1224C23.1774 57.8424 81.0638 42.6008 98.347 38.0776C168.589 19.5624 190.694 14.6872 190.729 14.6696C191.733 17.6792 193.246 22.4664 195.077 28.4152C160.352 35.2792 40.1966 67.8568 8.97422 77.6952C8.07662 73.612 6.66862 66.748 6.19342 63.1576V63.1224ZM9.06222 78.012C32.1006 70.972 162.728 35.3672 195.182 28.732C196.942 34.5224 199.072 41.404 201.307 48.7784C174.467 54.516 43.1886 89.012 13.8142 98.0584C11.8606 90.2616 10.2414 83.3624 9.06222 78.0472V78.012ZM96.6398 200.174C92.715 194.753 82.9998 201.054 77.8782 205.454C72.8315 209.931 68.4411 215.098 64.8366 220.801C61.8974 219.745 59.4334 213.761 56.7934 207.214C52.9887 198.047 49.7903 188.64 47.219 179.054C46.515 175.974 46.4094 173.598 48.8734 171.538C51.883 168.969 64.7134 164.85 68.4974 163.636C75.7134 161.313 83.8446 159.412 91.219 157.775C94.1406 157.142 97.2558 157.212 98.9982 159.078C101.585 161.788 106.285 175.551 108.942 183.295C106.021 186.815 103.187 190.494 100.477 194.401C94.2213 190.4 87.5536 187.084 80.5886 184.51C82.3486 181.412 89.7758 168.089 92.099 163.759C92.1527 163.666 92.1671 163.555 92.1391 163.451C92.111 163.347 92.0428 163.258 91.9494 163.205C91.8561 163.151 91.7452 163.137 91.6413 163.165C91.5373 163.193 91.4487 163.261 91.395 163.354C86.5198 170.694 82.507 177.206 78.811 183.823C70.099 180.602 62.971 178.543 54.787 176.326C54.6843 176.291 54.5719 176.298 54.4746 176.346C54.3772 176.393 54.3028 176.478 54.2678 176.581C54.2328 176.683 54.24 176.796 54.2879 176.893C54.3358 176.991 54.4203 177.065 54.523 177.1C60.1374 179.318 70.0814 182.574 77.8606 185.513C73.2442 193.791 69.3801 202.468 66.315 211.438C66.2951 211.531 66.3086 211.628 66.3532 211.712C66.3978 211.796 66.4707 211.862 66.559 211.898C66.6472 211.933 66.7453 211.937 66.8359 211.907C66.9265 211.878 67.0038 211.818 67.0542 211.737C73.4782 197.798 78.8462 187.748 79.6734 186.199C86.5848 188.777 93.2769 191.908 99.6846 195.562C98.6286 197.006 97.6078 198.572 96.6398 200.174ZM105.44 224.409C106.214 222.561 106.971 220.713 107.693 218.865C112.515 219.058 122.054 219.833 124.659 223.916C127.264 227.999 121.825 232.206 116.915 233.807C113.783 229.912 109.875 226.712 105.44 224.409ZM118.182 235.356C124.817 236.588 140.358 239.439 141.502 246.11C142.417 251.143 134.849 254.012 129.393 254.61C126.511 247.742 122.761 241.272 118.235 235.356H118.182ZM136.31 279.462C135.419 272.651 133.766 265.962 131.382 259.521C137.718 261.791 152.379 268.321 150.249 274.534C148.877 278.599 141.045 279.532 136.363 279.462H136.31ZM269.595 250.281C268.433 253.414 265.529 256.054 254.723 259.486C200.057 276.839 203.243 276.874 148.806 292.098C148.939 287.619 147.863 283.187 145.691 279.268C146.888 278.985 148.007 278.438 148.966 277.668C149.925 276.897 150.7 275.923 151.235 274.815C153.769 267.529 137.894 260.735 130.766 257.972C130.045 256.071 129.904 255.807 129.781 255.508C135.817 254.646 143.368 251.442 142.417 245.969C142.29 245.229 142.027 244.519 141.643 243.874C141.643 243.874 251.766 211.297 256.342 210.135C264.649 231.678 271.39 245.564 269.648 250.281H269.595ZM191.803 100.681C187.209 105.838 189.568 109.094 189.55 109.322C190.098 110.241 190.821 111.043 191.68 111.681C192.902 112.653 194.26 113.441 195.71 114.022C168.8 122.241 51.3726 156.033 50.8798 156.191C44.403 157.951 40.1262 159.218 36.7998 149.785C43.8398 141.601 67.2654 114.338 71.9998 110.959C73.6675 109.713 75.6908 109.034 77.7726 109.023C85.0414 108.812 121.966 126.201 128.425 123.103C132.861 120.956 148.225 96.8088 148.384 96.58C159.384 79.6312 157.958 80.5992 183.003 84.6824C188.582 85.5976 196.203 86.8296 206.112 88.396L206.869 91.124C201.184 93.3944 195.464 96.58 191.856 100.663L191.803 100.681ZM36.2894 148.641C33.2798 139.841 25.1486 113.81 25.6238 109.921C25.836 108.527 26.4477 107.225 27.3849 106.173C28.322 105.12 29.5444 104.362 30.9038 103.99C36.7294 102.353 188.881 60.764 193.053 60.764C196.379 60.764 197.664 62.524 198.931 65.7448C201.567 72.8303 203.846 80.0436 205.76 87.3576C168.8 81.268 165.931 80.0536 160.721 81.268C156.339 82.2888 154.385 84.788 147.169 95.7528C141.766 104.095 130.749 120.287 127.809 121.748C125.275 122.98 123.92 122.558 116.44 120.217C106.865 117.207 101.638 115.518 90.4798 111.1C83.7566 108.425 77.2094 105.521 71.1198 109.833C65.5758 113.863 40.6718 143.361 36.2894 148.641ZM213.381 88.6424C211.621 89.2056 209.737 89.8568 207.854 90.6136C205.64 82.0783 202.961 73.6705 199.829 65.428C198.403 61.908 196.819 59.884 192.982 59.8312C190.853 59.8312 99.1742 83.5208 30.5694 103.057C29.0298 103.492 27.6476 104.361 26.5869 105.559C25.5261 106.757 24.8315 108.234 24.5854 109.815C23.987 114.338 31.907 139.735 35.5502 149.574C39.827 161.119 44.5438 158.831 52.8686 156.614C87.3118 147.638 161.989 125.743 197.312 114.655C204.915 117.19 214.014 116.996 221.952 116.415C224.891 125.831 227.232 133.047 228.499 136.25C230.84 142.217 251.96 198.519 256.272 209.783C247.912 211.86 243.758 213.198 141.502 243.558C137.718 237.714 125.873 234.916 118.851 234.071C122.741 232.311 126.507 229.495 126.243 225.271C125.979 221.047 119.397 219.34 117.249 218.812C114.28 218.121 111.25 217.72 108.203 217.615C112.419 206.897 115.499 195.765 117.39 184.404C117.901 181.183 112.462 179.124 110.72 181.06L109.206 182.82C105.105 170.676 101.515 160.802 99.1918 158.321C97.4318 156.332 93.771 156.719 91.0958 157.124C81.8734 158.567 53.9598 166.258 48.4686 170.905C46.5678 172.788 45.4942 174.196 46.603 179.036C49.1339 188.713 52.327 198.204 56.1598 207.442C58.2542 212.564 61.1934 220.044 64.5022 221.241C62.2618 224.781 60.2965 228.488 58.6238 232.329C41.8862 194.172 30.4638 165.449 13.8846 98.5688C41.1822 90.2792 179.782 53.988 201.395 49.2888C202.909 54.0936 211.04 80.6696 213.381 88.6424Z" fill="white"/>
<path d="M118.499 174.513C117.197 174.038 114.592 178.033 113.941 179.142C113.923 179.17 113.912 179.202 113.909 179.234C113.906 179.267 113.911 179.301 113.923 179.331C113.935 179.362 113.954 179.39 113.978 179.412C114.003 179.434 114.032 179.45 114.064 179.459C115.059 179.685 115.991 180.13 116.792 180.761C116.812 180.784 116.836 180.802 116.864 180.814C116.891 180.826 116.921 180.833 116.951 180.833C116.98 180.833 117.01 180.826 117.037 180.814C117.065 180.802 117.089 180.784 117.109 180.761C117.655 179.599 119.802 175.041 118.499 174.513ZM23.4241 64.6363C20.0331 65.2998 16.7473 66.4187 13.6561 67.9627C14.6801 66.3921 15.6031 64.7578 16.4193 63.0699C16.4342 63.031 16.4348 62.9881 16.421 62.9489C16.4073 62.9096 16.38 62.8764 16.3441 62.8553C16.3083 62.8342 16.2661 62.8265 16.2251 62.8336C16.1841 62.8407 16.1469 62.862 16.1201 62.8939C14.9627 64.6297 13.922 66.4407 13.0049 68.3147C12.7057 68.9483 17.9329 70.3915 18.6193 70.4971C18.6563 70.4971 18.6923 70.4855 18.7222 70.4639C18.7522 70.4423 18.7746 70.4118 18.7863 70.3767C18.798 70.3417 18.7983 70.3039 18.7873 70.2686C18.7763 70.2334 18.7545 70.2025 18.7249 70.1803C17.1393 69.4006 15.4676 68.8099 13.7441 68.4203C16.9169 67.082 20.174 65.9532 23.4945 65.0411C23.8113 64.8475 23.7233 64.5835 23.4241 64.6363ZM41.8689 59.8843C39.9074 58.8367 37.8652 57.948 35.7617 57.2267C35.7215 57.2167 35.6791 57.2212 35.6419 57.2393C35.6048 57.2575 35.5751 57.2882 35.5583 57.326C35.5415 57.3638 35.5386 57.4064 35.55 57.4461C35.5615 57.4859 35.5866 57.5204 35.6209 57.5435C37.3198 58.4699 39.0845 59.2699 40.9009 59.9371C37.5394 60.2621 34.2463 61.0928 31.1329 62.4011C31.0986 62.4242 31.0735 62.4587 31.062 62.4984C31.0506 62.5382 31.0535 62.5808 31.0703 62.6186C31.0871 62.6564 31.1168 62.6871 31.1539 62.7053C31.1911 62.7234 31.2335 62.7279 31.2737 62.7179C33.5969 61.9787 36.9585 61.3275 41.3233 60.4299C40.1901 61.8033 39.1829 63.2759 38.3137 64.8299C38.3024 64.8686 38.3035 64.9099 38.3168 64.948C38.3301 64.9861 38.355 65.019 38.3879 65.0423C38.4209 65.0656 38.4603 65.078 38.5006 65.0777C38.5409 65.0775 38.5802 65.0647 38.6129 65.0411C39.8729 63.5496 40.9868 61.9407 41.9393 60.2363C41.9655 60.2117 41.9851 60.1809 41.9961 60.1466C42.007 60.1124 42.0091 60.076 42.0021 60.0407C41.995 60.0055 41.9791 59.9726 41.9558 59.9452C41.9325 59.9178 41.9026 59.8969 41.8689 59.8843ZM57.5857 57.5611C57.5305 58.593 57.105 59.5705 56.3873 60.314C55.6696 61.0576 54.7079 61.5174 53.6785 61.6091C52.6896 61.6869 51.7032 61.431 50.8768 60.8823C50.0505 60.3335 49.432 59.5236 49.1201 58.5819C48.8601 57.612 48.9511 56.5815 49.3771 55.6723C49.803 54.763 50.5365 54.0335 51.4481 53.6124C52.3596 53.1914 53.3906 53.1059 54.359 53.3711C55.3275 53.6363 56.1711 54.2352 56.7409 55.0619C55.8893 55.0209 55.0357 55.0503 54.1889 55.1499C54.1422 55.1499 54.0975 55.1684 54.0645 55.2014C54.0315 55.2344 54.0129 55.2792 54.0129 55.3259C54.0129 55.3726 54.0315 55.4173 54.0645 55.4503C54.0975 55.4834 54.1422 55.5019 54.1889 55.5019C55.1658 55.6069 56.1512 55.6069 57.1281 55.5019C57.1667 55.493 57.202 55.4734 57.23 55.4454C57.258 55.4174 57.2776 55.3821 57.2865 55.3435C57.5061 54.3263 57.5596 53.2802 57.4449 52.2459C57.4449 52.1992 57.4264 52.1545 57.3934 52.1214C57.3604 52.0884 57.3156 52.0699 57.2689 52.0699C57.2222 52.0699 57.1775 52.0884 57.1445 52.1214C57.1115 52.1545 57.0929 52.1992 57.0929 52.2459C56.9157 53.0604 56.8505 53.8953 56.8993 54.7275C53.6785 50.0811 46.9729 53.9179 48.4513 58.9163C50.0529 64.5307 58.5889 63.0875 57.9553 57.6843C57.9716 57.6353 57.9678 57.5818 57.9447 57.5356C57.9216 57.4894 57.8811 57.4542 57.8321 57.4379C57.7831 57.4216 57.7296 57.4254 57.6834 57.4485C57.6372 57.4716 57.6021 57.5121 57.5857 57.5611ZM16.9297 51.8411C16.4772 51.8411 16.0348 51.9753 15.6586 52.2267C15.2823 52.4781 14.989 52.8354 14.8159 53.2535C14.6427 53.6716 14.5974 54.1316 14.6857 54.5755C14.774 55.0193 14.9919 55.427 15.3119 55.747C15.6318 56.0669 16.0395 56.2848 16.4833 56.3731C16.9272 56.4614 17.3872 56.4161 17.8053 56.2429C18.2234 56.0698 18.5807 55.7765 18.8321 55.4002C19.0835 55.024 19.2177 54.5816 19.2177 54.1291C19.2177 53.5223 18.9767 52.9403 18.5476 52.5112C18.1185 52.0821 17.5365 51.8411 16.9297 51.8411ZM25.0081 49.4123C24.5556 49.4123 24.1132 49.5465 23.737 49.7979C23.3607 50.0493 23.0674 50.4066 22.8943 50.8247C22.7211 51.2428 22.6758 51.7028 22.7641 52.1467C22.8524 52.5905 23.0703 52.9982 23.3903 53.3182C23.7102 53.6381 24.1179 53.856 24.5617 53.9443C25.0056 54.0326 25.4656 53.9873 25.8837 53.8141C26.3018 53.641 26.6591 53.3477 26.9105 52.9714C27.1619 52.5952 27.2961 52.1528 27.2961 51.7003C27.2961 51.0935 27.0551 50.5115 26.626 50.0824C26.1969 49.6534 25.6149 49.4123 25.0081 49.4123ZM33.1041 47.0363C32.6516 47.0363 32.2092 47.1705 31.833 47.4219C31.4567 47.6733 31.1634 48.0306 30.9903 48.4487C30.8171 48.8668 30.7718 49.3268 30.8601 49.7707C30.9484 50.2145 31.1663 50.6222 31.4862 50.9422C31.8062 51.2621 32.2139 51.48 32.6577 51.5683C33.1016 51.6566 33.5616 51.6113 33.9797 51.4381C34.3978 51.265 34.7551 50.9717 35.0065 50.5954C35.2579 50.2192 35.3921 49.7768 35.3921 49.3243C35.3921 48.7175 35.1511 48.1355 34.722 47.7064C34.2929 47.2773 33.7109 47.0363 33.1041 47.0363ZM185.115 19.4043C183.743 19.4043 81.3985 45.4171 72.8625 47.7051C67.5825 49.1307 66.3681 49.2363 65.3121 50.9963C64.9275 51.6182 64.717 52.332 64.7026 53.063C64.6881 53.7941 64.8703 54.5156 65.2299 55.1523C65.5896 55.7889 66.1136 56.3173 66.7473 56.6822C67.3809 57.0471 68.101 57.2351 68.8321 57.2267C70.2156 57.0494 71.574 56.7128 72.8801 56.2235C95.3553 50.0811 183.971 28.0635 185.063 27.8523C185.769 27.7687 186.449 27.5336 187.057 27.163C187.664 26.7925 188.185 26.2952 188.583 25.7051C188.959 25.0814 189.166 24.3696 189.18 23.641C189.195 22.9125 189.018 22.1929 188.667 21.5545C188.315 20.9161 187.802 20.3813 187.179 20.0039C186.555 19.6265 185.844 19.4197 185.115 19.4043ZM188.266 25.4411C187.887 25.9801 187.398 26.4318 186.83 26.7658C186.262 27.0997 185.63 27.3082 184.975 27.3771C56.8465 59.4619 70.0465 56.8571 68.8145 56.8571C68.1612 56.8466 67.5221 56.6647 66.9612 56.3296C66.4003 55.9946 65.9372 55.5181 65.6182 54.9479C65.2992 54.3777 65.1356 53.7337 65.1436 53.0804C65.1517 52.427 65.3312 51.7873 65.6641 51.2251C66.5969 49.7115 67.4241 49.6411 72.9329 48.1627C82.7889 45.5051 183.813 19.8795 185.063 19.8795C185.714 19.8773 186.355 20.0473 186.919 20.3725C187.484 20.6976 187.953 21.1662 188.278 21.7308C188.603 22.2955 188.773 22.936 188.771 23.5876C188.769 24.2392 188.595 24.8786 188.266 25.4411Z" fill="white"/>
<path d="M74.9215 53.6009C74.4538 53.2389 73.9386 52.9428 73.3903 52.7209C73.6228 52.231 73.6579 51.6703 73.4883 51.1552C73.3188 50.64 72.9575 50.2098 72.4794 49.9537C72.0014 49.6976 71.4431 49.6353 70.9203 49.7796C70.3975 49.9239 69.9502 50.2638 69.6712 50.7289C69.3922 51.1939 69.3027 51.7485 69.4214 52.2777C69.5401 52.8069 69.8579 53.2702 70.3088 53.5715C70.7597 53.8728 71.3093 53.9891 71.8437 53.8963C72.378 53.8035 72.8562 53.5087 73.1791 53.0729C73.6748 53.4065 74.2061 53.684 74.7631 53.9001C74.8005 53.9081 74.8395 53.9036 74.8742 53.8874C74.9089 53.8712 74.9373 53.8442 74.9552 53.8103C74.9731 53.7765 74.9795 53.7378 74.9734 53.7C74.9673 53.6622 74.9491 53.6274 74.9215 53.6009ZM71.4015 53.6009C71.0497 53.6221 70.6996 53.5371 70.3966 53.357C70.0936 53.1769 69.8517 52.91 69.7022 52.5909C69.5526 52.2717 69.5023 51.915 69.5578 51.5669C69.6134 51.2189 69.7721 50.8955 70.0135 50.6387C70.2549 50.3819 70.5678 50.2034 70.9118 50.1265C71.2558 50.0496 71.6149 50.0778 71.9427 50.2073C72.2705 50.3368 72.5519 50.5618 72.7503 50.8531C72.9488 51.1443 73.0552 51.4885 73.0559 51.8409C73.0577 52.2815 72.8941 52.7068 72.5976 53.0326C72.3011 53.3585 71.8931 53.5613 71.4543 53.6009H71.4015ZM182.493 23.4697C182.123 21.0233 181.261 21.2169 180.926 22.5545C180.844 22.8547 180.785 23.1606 180.75 23.4697C180.169 23.4697 178.867 23.3113 178.585 23.8393C178.304 24.3673 178.885 24.6489 179.325 24.8425C179.624 24.9708 179.937 25.0652 180.257 25.1241C179.853 25.6697 179.342 26.7081 179.87 27.0425C180.398 27.3769 181.384 26.3385 181.824 25.8633C182.281 26.2505 183.179 26.9017 183.689 26.5849C184.2 26.2681 183.39 25.3177 182.933 24.8249C183.531 24.7017 184.429 24.4201 184.288 23.8393C184.147 23.2585 183.038 23.4169 182.493 23.4697ZM182.686 24.7017C182.581 24.7017 182.545 24.7897 182.686 24.8953C182.827 25.0009 183.83 26.1097 183.566 26.3561C183.302 26.6025 182.317 25.8457 181.947 25.5817C181.921 25.5643 181.89 25.5551 181.859 25.5551C181.828 25.5551 181.797 25.5643 181.771 25.5817C181.19 26.1449 180.293 26.9193 180.011 26.7081C179.729 26.4969 180.504 25.2473 180.574 25.0537C180.59 25.0373 180.599 25.0152 180.599 24.9921C180.599 24.9691 180.59 24.947 180.574 24.9305C180.257 24.8073 178.92 24.4025 179.008 23.9625C179.096 23.5225 180.768 23.6809 180.961 23.6985C181.155 23.7161 181.102 23.6105 181.12 23.4697C181.454 21.7097 181.753 21.8329 181.894 22.0793C182.11 22.5651 182.292 23.0649 182.44 23.5753V23.6633C182.44 23.6633 183.953 23.6633 184.059 23.9625C184.165 24.2617 183.109 24.6137 182.686 24.7017ZM114.733 174.355C111.424 163.161 108.96 158.409 110.139 154.59C112.497 147.743 136.539 141.9 144.547 140.052C147.275 139.419 153.453 137.975 156.075 138.539C158.697 139.102 160.281 140.633 166.318 158.779C168.864 166.223 170.951 173.817 172.566 181.518C172.849 182.424 172.927 183.381 172.796 184.322C172.666 185.262 172.329 186.161 171.809 186.956C169.029 190.652 149.088 196.108 144.617 197.34C122.881 203.307 125.504 202.409 119.009 186.129C119.009 186.096 118.996 186.065 118.973 186.042C118.95 186.019 118.919 186.006 118.886 186.006C118.854 186.006 118.822 186.019 118.799 186.042C118.776 186.065 118.763 186.096 118.763 186.129C121.614 194.929 122.653 199.98 127.334 201.177C130.854 202.11 141.045 198.871 144.776 197.815C168.237 191.075 170.789 189.191 172.285 187.255C172.848 186.398 173.217 185.427 173.366 184.412C173.515 183.396 173.44 182.36 173.147 181.377C171.538 173.629 169.452 165.987 166.899 158.497C160.827 140.369 159.278 138.556 156.198 137.887C153.523 137.307 148.137 138.556 144.424 139.419C136.416 141.302 112.216 147.127 109.646 154.343C108.221 158.62 112.621 169.743 114.469 174.355C114.539 174.601 114.785 174.513 114.733 174.355ZM188.441 182.996C193.493 182.697 216.003 176.326 227.161 171.451C230.928 169.796 232.811 168.124 231.913 164.129C228.232 151.163 223.705 138.452 218.361 126.078C217.692 124.034 216.312 122.298 214.472 121.185C210.424 119.249 190.8 125.638 184.27 127.75C180.134 129.087 173.059 131.358 170.19 134.209C167.656 136.638 168.008 139.735 168.958 143.115C179.993 182.081 182.264 183.348 188.441 182.996ZM170.419 134.561C173.288 131.798 180.345 129.563 184.376 128.26C189.973 126.5 210.459 119.935 214.296 121.713C216.014 122.787 217.297 124.432 217.921 126.359C223.244 138.69 227.725 151.368 231.333 164.305C232.054 168.142 230.541 169.321 226.968 170.887C217.517 175.023 193.827 182.099 188.494 182.451C182.369 182.838 180.275 180.691 169.345 143.062C168.36 139.841 168.008 136.814 170.419 134.561ZM50.3519 73.2777C50.3272 73.1669 50.2804 73.0622 50.2143 72.9698C50.1483 72.8775 50.0642 72.7994 49.9673 72.7403C49.8704 72.6811 49.7625 72.6421 49.6502 72.6256C49.5378 72.6091 49.4233 72.6154 49.3135 72.6441L18.1087 80.8985C17.8753 80.9592 17.6756 81.1101 17.5534 81.3181C17.4313 81.526 17.3968 81.774 17.4575 82.0073C17.5182 82.2407 17.6691 82.4405 17.877 82.5626C18.085 82.6847 18.3329 82.7192 18.5663 82.6585L49.7535 74.4041C49.8698 74.3744 49.9786 74.3207 50.073 74.2465C50.1674 74.1723 50.2453 74.0792 50.3016 73.9732C50.3579 73.8671 50.3915 73.7505 50.4002 73.6308C50.4088 73.511 50.3924 73.3908 50.3519 73.2777ZM43.5759 82.0777C43.5492 81.9685 43.501 81.8657 43.4341 81.7753C43.3672 81.6849 43.2829 81.6088 43.1862 81.5514C43.0895 81.4941 42.9823 81.4566 42.8709 81.4412C42.7595 81.4258 42.6461 81.4328 42.5375 81.4618L19.8335 87.4634C19.7212 87.4936 19.6163 87.5462 19.5249 87.618C19.4335 87.6899 19.3576 87.7795 19.3017 87.8814C19.2458 87.9833 19.2111 88.0955 19.1996 88.2112C19.1882 88.3268 19.2002 88.4436 19.2351 88.5545C19.2615 88.6635 19.3098 88.7659 19.3769 88.8556C19.4441 88.9453 19.5289 89.0204 19.626 89.0764C19.7231 89.1324 19.8306 89.168 19.9419 89.1812C20.0532 89.1943 20.166 89.1847 20.2735 89.1529L42.9775 83.1513C43.0877 83.1209 43.1909 83.0689 43.2808 82.9982C43.3708 82.9276 43.4458 82.8398 43.5015 82.7398C43.5572 82.6399 43.5924 82.5299 43.6052 82.4163C43.618 82.3026 43.608 82.1875 43.5759 82.0777ZM63.3759 69.4409C63.4375 69.6597 63.583 69.8453 63.7808 69.9574C63.9785 70.0694 64.2125 70.0989 64.4319 70.0393L95.6191 61.7849C95.7289 61.7561 95.8319 61.7058 95.9223 61.6371C96.0126 61.5684 96.0886 61.4826 96.1458 61.3845C96.203 61.2865 96.2403 61.1781 96.2556 61.0656C96.271 60.9531 96.264 60.8387 96.2351 60.7289C96.2062 60.6192 96.156 60.5161 96.0873 60.4258C96.0185 60.3354 95.9327 60.2594 95.8347 60.2022C95.7366 60.145 95.6282 60.1077 95.5157 60.0924C95.4033 60.0771 95.2889 60.0841 95.1791 60.1129L63.9919 68.4377C63.7812 68.4958 63.6004 68.6317 63.4861 68.8179C63.3717 69.0041 63.3323 69.2268 63.3759 69.4409ZM89.4591 69.5993C89.3972 69.3798 89.2525 69.1929 89.0555 69.078C88.8585 68.9631 88.6246 68.9292 88.4031 68.9833L65.6991 75.0025C65.5875 75.0308 65.4829 75.0815 65.3916 75.1516C65.3003 75.2217 65.2243 75.3097 65.1683 75.4103C65.1123 75.5108 65.0774 75.6217 65.0657 75.7362C65.0541 75.8507 65.066 75.9664 65.1007 76.0761C65.1587 76.2943 65.3 76.481 65.4941 76.5962C65.6882 76.7113 65.9198 76.7458 66.1391 76.6921L88.8607 70.6729C89.0808 70.6075 89.2666 70.4585 89.3784 70.2579C89.4902 70.0573 89.5191 69.821 89.4591 69.5993ZM109.259 57.1209C109.286 57.2302 109.334 57.333 109.401 57.4234C109.468 57.5138 109.552 57.5899 109.649 57.6472C109.745 57.7046 109.853 57.7421 109.964 57.7575C110.075 57.7729 110.189 57.7659 110.297 57.7369L141.485 49.4825C141.597 49.4521 141.703 49.3995 141.795 49.328C141.887 49.2564 141.964 49.1673 142.021 49.0658C142.078 48.9642 142.115 48.8523 142.128 48.7366C142.142 48.6208 142.133 48.5034 142.101 48.3913C142.035 48.1751 141.889 47.9924 141.692 47.881C141.496 47.7696 141.264 47.738 141.045 47.7929L109.857 55.9593C109.735 55.9855 109.62 56.0385 109.521 56.1144C109.422 56.1904 109.341 56.2874 109.283 56.3985C109.226 56.5096 109.194 56.6321 109.19 56.757C109.186 56.8819 109.209 57.0062 109.259 57.1209ZM135.36 57.1209C135.298 56.9022 135.153 56.7166 134.955 56.6045C134.757 56.4925 134.523 56.463 134.304 56.5225L111.6 62.5241C111.366 62.5848 111.167 62.7357 111.045 62.9437C110.923 63.1516 110.888 63.3996 110.949 63.6329C111.009 63.8663 111.16 64.0661 111.368 64.1882C111.576 64.3103 111.824 64.3448 112.057 64.2841L134.761 58.2649C134.881 58.2382 134.994 58.1856 135.092 58.1108C135.189 58.036 135.269 57.9408 135.326 57.8319C135.383 57.723 135.416 57.6029 135.422 57.4801C135.427 57.3573 135.406 57.2348 135.36 57.1209ZM155.125 44.5721C155.153 44.6798 155.203 44.7808 155.271 44.8692C155.338 44.9576 155.423 45.0317 155.519 45.0874C155.616 45.143 155.722 45.179 155.833 45.1932C155.943 45.2075 156.056 45.1998 156.163 45.1705L187.368 36.9161C187.478 36.8857 187.581 36.8337 187.671 36.763C187.761 36.6924 187.836 36.6046 187.892 36.5047C187.948 36.4047 187.983 36.2947 187.996 36.1811C188.008 36.0674 187.998 35.9523 187.966 35.8425C187.938 35.7326 187.888 35.6294 187.819 35.5389C187.75 35.4484 187.664 35.3723 187.566 35.3151C187.468 35.2579 187.36 35.2206 187.247 35.2054C187.135 35.1902 187.02 35.1974 186.91 35.2265L155.723 43.4809C155.499 43.5463 155.31 43.698 155.198 43.9026C155.086 44.1073 155.059 44.3481 155.125 44.5721ZM181.12 44.6601C181.093 44.5509 181.045 44.4481 180.978 44.3577C180.911 44.2673 180.827 44.1912 180.73 44.1338C180.633 44.0765 180.526 44.039 180.415 44.0236C180.303 44.0082 180.19 44.0152 180.081 44.0441L157.448 50.0809C157.338 50.1098 157.235 50.1601 157.145 50.2288C157.054 50.2975 156.978 50.3833 156.921 50.4814C156.864 50.5794 156.827 50.6878 156.811 50.8003C156.796 50.9128 156.803 51.0272 156.832 51.1369C156.861 51.2467 156.911 51.3497 156.98 51.4401C157.048 51.5305 157.134 51.6065 157.232 51.6637C157.33 51.7209 157.439 51.7582 157.551 51.7735C157.664 51.7888 157.778 51.7818 157.888 51.7529L180.592 45.7513C180.699 45.7158 180.798 45.6591 180.883 45.5845C180.968 45.51 181.037 45.4191 181.087 45.3174C181.136 45.2156 181.164 45.105 181.17 44.9921C181.176 44.8792 181.159 44.7664 181.12 44.6601ZM174.309 196.161C174.275 196.052 174.219 195.951 174.146 195.863C174.072 195.776 173.982 195.704 173.881 195.651C173.779 195.599 173.668 195.567 173.555 195.558C173.441 195.549 173.326 195.562 173.217 195.598L132.861 208.164C132.752 208.198 132.651 208.252 132.564 208.325C132.476 208.397 132.404 208.486 132.35 208.587C132.297 208.687 132.265 208.797 132.254 208.911C132.243 209.024 132.255 209.138 132.289 209.247C132.322 209.355 132.377 209.456 132.449 209.544C132.522 209.631 132.611 209.704 132.711 209.757C132.812 209.81 132.922 209.843 133.035 209.853C133.148 209.864 133.262 209.852 133.371 209.819L173.728 197.252C173.949 197.183 174.133 197.03 174.242 196.826C174.351 196.621 174.375 196.383 174.309 196.161ZM165.28 208.164C165.246 208.055 165.191 207.954 165.117 207.866C165.044 207.779 164.954 207.707 164.852 207.654C164.751 207.602 164.64 207.57 164.526 207.561C164.412 207.552 164.297 207.565 164.189 207.601L135.166 216.63C135.057 216.664 134.956 216.719 134.868 216.792C134.781 216.866 134.709 216.956 134.656 217.058C134.604 217.159 134.572 217.27 134.563 217.384C134.554 217.498 134.568 217.612 134.603 217.721C134.672 217.942 134.825 218.126 135.03 218.235C135.234 218.344 135.473 218.368 135.694 218.302L164.699 209.255C164.92 209.186 165.105 209.033 165.213 208.829C165.322 208.625 165.346 208.386 165.28 208.164ZM177.688 212.494L137.331 225.078C137.222 225.112 137.122 225.168 137.035 225.242C136.948 225.315 136.876 225.405 136.823 225.507C136.771 225.608 136.739 225.719 136.73 225.832C136.72 225.946 136.733 226.06 136.768 226.169C136.803 226.278 136.858 226.378 136.932 226.465C137.005 226.552 137.095 226.624 137.197 226.677C137.298 226.729 137.409 226.761 137.522 226.77C137.636 226.78 137.75 226.767 137.859 226.732L178.216 214.166C178.325 214.132 178.426 214.076 178.514 214.003C178.601 213.93 178.673 213.839 178.726 213.738C178.778 213.636 178.81 213.525 178.819 213.412C178.828 213.298 178.815 213.183 178.779 213.075C178.71 212.854 178.557 212.669 178.353 212.56C178.148 212.452 177.91 212.428 177.688 212.494ZM231.597 178.227L191.24 190.881C191.131 190.914 191.03 190.969 190.943 191.042C190.855 191.114 190.783 191.203 190.73 191.304C190.677 191.404 190.644 191.514 190.633 191.627C190.623 191.741 190.634 191.855 190.668 191.963C190.701 192.072 190.756 192.173 190.828 192.26C190.901 192.348 190.99 192.42 191.091 192.474C191.191 192.527 191.301 192.559 191.414 192.57C191.527 192.581 191.642 192.569 191.75 192.535L232.16 179.899C232.393 179.831 232.59 179.673 232.707 179.46C232.825 179.247 232.852 178.997 232.785 178.763C232.717 178.53 232.559 178.333 232.346 178.216C232.134 178.099 231.883 178.071 231.649 178.139L231.597 178.227ZM223.571 190.775C223.539 190.667 223.486 190.566 223.414 190.479C223.342 190.391 223.253 190.319 223.153 190.267C223.053 190.214 222.944 190.182 222.831 190.173C222.718 190.164 222.605 190.177 222.497 190.212L193.44 199.241C193.219 199.31 193.034 199.463 192.926 199.667C192.817 199.872 192.793 200.11 192.859 200.332C192.893 200.441 192.948 200.542 193.022 200.63C193.095 200.717 193.185 200.79 193.287 200.842C193.388 200.894 193.499 200.926 193.613 200.935C193.727 200.944 193.842 200.931 193.95 200.895L222.973 191.867C223.085 191.836 223.19 191.784 223.281 191.712C223.373 191.64 223.449 191.55 223.504 191.449C223.56 191.347 223.595 191.234 223.607 191.119C223.618 191.003 223.606 190.886 223.571 190.775ZM195.2 208.763C195.232 208.871 195.286 208.972 195.357 209.061C195.428 209.149 195.517 209.222 195.616 209.276C195.716 209.329 195.825 209.363 195.938 209.375C196.051 209.387 196.165 209.376 196.273 209.343L236.63 196.777C236.752 196.755 236.868 196.707 236.971 196.637C237.073 196.566 237.159 196.475 237.224 196.369C237.289 196.263 237.33 196.144 237.346 196.021C237.361 195.898 237.35 195.773 237.314 195.654C237.278 195.536 237.217 195.426 237.135 195.332C237.054 195.239 236.953 195.164 236.84 195.112C236.727 195.06 236.605 195.032 236.481 195.031C236.357 195.03 236.234 195.055 236.12 195.105L195.763 207.671C195.654 207.705 195.553 207.761 195.465 207.834C195.378 207.908 195.306 207.998 195.253 208.099C195.201 208.201 195.169 208.312 195.16 208.425C195.151 208.539 195.164 208.654 195.2 208.763ZM145.92 253.203L165.632 247.219C165.83 247.132 165.989 246.976 166.079 246.78C166.169 246.584 166.184 246.362 166.121 246.155C166.058 245.949 165.921 245.773 165.737 245.661C165.553 245.549 165.334 245.508 165.121 245.547L145.409 251.531C145.287 251.553 145.171 251.601 145.069 251.671C144.967 251.741 144.88 251.832 144.816 251.938C144.751 252.045 144.71 252.163 144.694 252.286C144.679 252.409 144.689 252.534 144.726 252.653C144.762 252.772 144.823 252.882 144.904 252.975C144.986 253.069 145.087 253.144 145.2 253.196C145.312 253.248 145.435 253.275 145.559 253.276C145.683 253.277 145.806 253.252 145.92 253.203ZM146.413 259.327C146.482 259.548 146.635 259.733 146.839 259.842C147.043 259.95 147.282 259.974 147.504 259.908L174.08 251.83C174.273 251.742 174.428 251.588 174.517 251.395C174.605 251.202 174.621 250.983 174.561 250.779C174.501 250.576 174.369 250.401 174.19 250.286C174.011 250.172 173.797 250.126 173.587 250.158L146.941 258.236C146.73 258.316 146.557 258.473 146.459 258.676C146.361 258.879 146.344 259.112 146.413 259.327ZM152.96 265.452L168.694 260.665C168.804 260.635 168.907 260.583 168.996 260.512C169.086 260.441 169.16 260.353 169.214 260.252C169.268 260.152 169.302 260.042 169.312 259.928C169.323 259.814 169.31 259.7 169.275 259.591C169.243 259.483 169.189 259.381 169.118 259.293C169.047 259.205 168.958 259.132 168.859 259.078C168.759 259.024 168.65 258.991 168.537 258.979C168.424 258.967 168.31 258.978 168.201 259.011L152.361 263.78C152.246 263.814 152.138 263.87 152.044 263.945C151.95 264.02 151.872 264.113 151.814 264.218C151.756 264.324 151.719 264.44 151.706 264.559C151.693 264.679 151.703 264.8 151.737 264.915C151.77 265.031 151.826 265.139 151.901 265.233C151.977 265.327 152.069 265.405 152.175 265.463C152.28 265.521 152.396 265.558 152.516 265.571C152.635 265.584 152.756 265.574 152.872 265.54L152.96 265.452ZM154.861 271.507C154.93 271.727 155.083 271.912 155.287 272.021C155.491 272.13 155.73 272.153 155.952 272.087L178.48 265.259C178.678 265.172 178.837 265.016 178.927 264.82C179.017 264.624 179.032 264.402 178.969 264.195C178.906 263.989 178.769 263.813 178.585 263.701C178.401 263.589 178.182 263.548 177.969 263.587L155.441 270.415C155.221 270.484 155.036 270.638 154.927 270.842C154.819 271.046 154.795 271.285 154.861 271.507ZM171.933 273.812L153.153 279.497C153.038 279.53 152.93 279.586 152.836 279.662C152.742 279.737 152.664 279.83 152.606 279.935C152.548 280.041 152.511 280.156 152.498 280.276C152.485 280.396 152.495 280.517 152.529 280.632C152.562 280.748 152.618 280.856 152.693 280.949C152.769 281.043 152.861 281.122 152.967 281.18C153.072 281.238 153.188 281.274 153.308 281.288C153.427 281.301 153.548 281.29 153.664 281.257L172.443 275.555C172.662 275.487 172.846 275.335 172.953 275.132C173.061 274.929 173.083 274.692 173.015 274.472C172.947 274.253 172.795 274.069 172.592 273.962C172.389 273.855 172.152 273.832 171.933 273.9V273.812ZM181.595 242.819L197.84 238.207C198.073 238.144 198.272 237.991 198.393 237.782C198.513 237.572 198.545 237.323 198.482 237.09C198.419 236.856 198.266 236.658 198.057 236.537C197.847 236.417 197.598 236.384 197.365 236.447L181.12 241.147C181.008 241.175 180.903 241.226 180.811 241.296C180.719 241.365 180.642 241.453 180.585 241.553C180.527 241.653 180.491 241.764 180.477 241.878C180.463 241.993 180.472 242.109 180.504 242.22C180.573 242.442 180.725 242.628 180.929 242.739C181.132 242.851 181.371 242.879 181.595 242.819ZM182.616 248.961C182.646 249.071 182.698 249.174 182.769 249.264C182.84 249.354 182.927 249.429 183.027 249.485C183.127 249.541 183.237 249.576 183.351 249.589C183.465 249.601 183.58 249.591 183.689 249.559L202.504 244.279C202.737 244.216 202.936 244.063 203.057 243.854C203.177 243.644 203.209 243.395 203.146 243.162C203.083 242.928 202.93 242.73 202.721 242.609C202.511 242.489 202.262 242.456 202.029 242.519L183.214 247.799C183.092 247.826 182.977 247.878 182.878 247.954C182.779 248.03 182.697 248.127 182.64 248.239C182.583 248.35 182.551 248.472 182.547 248.597C182.543 248.722 182.566 248.846 182.616 248.961ZM201.958 250.721C201.889 250.5 201.737 250.314 201.533 250.202C201.33 250.09 201.091 250.062 200.867 250.123L185.309 254.54C185.193 254.571 185.085 254.625 184.99 254.698C184.895 254.771 184.816 254.862 184.756 254.966C184.636 255.176 184.603 255.424 184.666 255.658C184.729 255.891 184.882 256.09 185.092 256.21C185.302 256.331 185.55 256.363 185.784 256.3L201.36 251.883C201.477 251.849 201.587 251.791 201.682 251.714C201.776 251.636 201.854 251.54 201.91 251.431C201.966 251.322 201.999 251.203 202.007 251.081C202.016 250.959 201.999 250.836 201.958 250.721ZM186.805 262.355C186.835 262.465 186.887 262.568 186.958 262.658C187.028 262.748 187.116 262.823 187.216 262.879C187.316 262.934 187.426 262.97 187.54 262.982C187.653 262.995 187.768 262.985 187.878 262.953L206.27 257.673C206.382 257.645 206.486 257.594 206.578 257.524C206.669 257.454 206.745 257.366 206.801 257.265C206.857 257.165 206.892 257.054 206.904 256.939C206.915 256.825 206.903 256.709 206.869 256.599C206.839 256.485 206.785 256.378 206.712 256.285C206.639 256.192 206.548 256.116 206.444 256.059C206.34 256.003 206.226 255.969 206.108 255.959C205.99 255.949 205.872 255.963 205.76 256.001L187.368 261.281C187.154 261.354 186.977 261.505 186.872 261.705C186.767 261.905 186.743 262.138 186.805 262.355ZM202.24 264.379L189.533 267.987C189.299 268.05 189.1 268.203 188.98 268.412C188.86 268.622 188.827 268.871 188.89 269.104C188.953 269.338 189.106 269.536 189.316 269.657C189.526 269.777 189.774 269.81 190.008 269.747L202.715 266.139C202.948 266.076 203.147 265.922 203.268 265.713C203.388 265.503 203.42 265.254 203.357 265.021C203.294 264.788 203.141 264.589 202.932 264.468C202.722 264.348 202.473 264.316 202.24 264.379ZM117.989 104.764C118.892 105.662 120.002 106.324 121.222 106.69C122.442 107.056 123.733 107.116 124.981 106.864C126.23 106.612 127.397 106.056 128.379 105.245C129.361 104.435 130.128 103.394 130.612 102.216C131.096 101.038 131.282 99.7591 131.154 98.4921C131.025 97.225 130.586 96.0092 129.876 94.9523C129.165 93.8955 128.205 93.0301 127.08 92.433C125.955 91.8358 124.701 91.5253 123.427 91.5289C121.888 91.5161 120.38 91.9644 119.098 92.8161C117.815 93.6678 116.818 94.8838 116.233 96.3076C115.647 97.7314 115.502 99.2978 115.815 100.805C116.128 102.312 116.885 103.691 117.989 104.764ZM118.745 94.5561C119.529 93.7823 120.49 93.2132 121.545 92.899C122.6 92.5848 123.717 92.5353 124.795 92.7547C125.874 92.9741 126.882 93.4558 127.731 94.1572C128.58 94.8586 129.242 95.7582 129.661 96.7764C130.08 97.7947 130.241 98.9003 130.131 99.9957C130.021 101.091 129.643 102.143 129.03 103.057C128.418 103.972 127.589 104.722 126.618 105.24C125.647 105.759 124.563 106.031 123.462 106.031C122.132 106.032 120.832 105.637 119.727 104.897C118.622 104.157 117.762 103.105 117.257 101.875C116.751 100.645 116.623 99.2924 116.888 97.9892C117.153 96.6859 117.8 95.491 118.745 94.5561Z" fill="white"/>
<path d="M153.699 141.936C148.971 149.785 144.796 157.954 141.203 166.383C133.798 162.504 126.156 159.095 118.323 156.175C118.227 156.146 118.124 156.152 118.031 156.19C117.938 156.229 117.861 156.298 117.813 156.386C117.77 156.484 117.766 156.596 117.802 156.697C117.838 156.798 117.911 156.882 118.007 156.931C127.053 161.419 140.464 168.143 140.464 168.143C136.922 176.441 133.883 184.946 131.365 193.61C131.349 193.67 131.347 193.732 131.358 193.793C131.37 193.854 131.396 193.911 131.433 193.96C131.471 194.009 131.519 194.049 131.574 194.077C131.629 194.105 131.69 194.12 131.752 194.12C132.421 194.12 131.647 194.12 142.171 169.04C147.592 171.891 156.251 176.784 165.967 182.645C166.058 182.706 166.169 182.728 166.276 182.706C166.384 182.685 166.478 182.622 166.539 182.531C166.599 182.44 166.621 182.328 166.6 182.221C166.578 182.114 166.515 182.019 166.424 181.959C158.961 176.49 151.101 171.584 142.911 167.28C146.008 160.029 149.775 151.863 154.421 142.323C154.472 142.228 154.484 142.116 154.452 142.012C154.421 141.908 154.35 141.82 154.254 141.769C154.158 141.718 154.046 141.707 153.942 141.738C153.838 141.769 153.751 141.841 153.699 141.936ZM175.488 139.842C182.528 143.362 186.84 145.28 198.368 151.247C194.622 159.44 191.452 167.885 188.882 176.52C188.849 176.623 188.859 176.734 188.908 176.83C188.958 176.926 189.043 176.998 189.146 177.031C189.249 177.063 189.36 177.054 189.456 177.004C189.551 176.955 189.624 176.869 189.656 176.767C193.317 167.861 191.944 170.448 200.093 152.127C207.133 155.893 215.071 160.416 223.501 165.52C223.592 165.581 223.703 165.603 223.811 165.582C223.918 165.56 224.012 165.497 224.073 165.406C224.134 165.315 224.156 165.203 224.134 165.096C224.113 164.989 224.05 164.895 223.959 164.834C216.607 159.473 208.878 154.65 200.832 150.402C204.563 142.323 208.699 134.122 212.008 127.275C212.045 127.184 212.047 127.082 212.013 126.989C211.98 126.896 211.914 126.818 211.827 126.771C211.741 126.723 211.64 126.709 211.544 126.731C211.447 126.752 211.362 126.808 211.304 126.888C206.842 134.2 202.782 141.75 199.143 149.504C191.606 145.542 183.822 142.068 175.84 139.103C175.742 139.056 175.63 139.05 175.527 139.086C175.425 139.123 175.341 139.198 175.295 139.296C175.248 139.394 175.242 139.507 175.278 139.609C175.315 139.712 175.39 139.795 175.488 139.842ZM214.261 237.099C214.809 236.547 215.182 235.845 215.335 235.082C215.488 234.319 215.414 233.528 215.122 232.807C214.829 232.085 214.332 231.466 213.691 231.024C213.05 230.583 212.294 230.339 211.515 230.323C210.877 230.331 210.25 230.495 209.689 230.8C209.127 231.106 208.649 231.543 208.296 232.075C207.942 232.607 207.724 233.217 207.659 233.853C207.595 234.488 207.687 235.13 207.927 235.722C208.167 236.314 208.547 236.838 209.036 237.25C209.524 237.661 210.106 237.947 210.73 238.083C211.354 238.219 212.002 238.2 212.617 238.029C213.233 237.857 213.797 237.538 214.261 237.099ZM208.717 233.051C208.926 232.605 209.239 232.216 209.63 231.916C210.022 231.617 210.48 231.416 210.965 231.332C211.451 231.247 211.949 231.281 212.419 231.43C212.889 231.579 213.315 231.84 213.663 232.189C213.94 232.466 214.159 232.796 214.305 233.16C214.45 233.524 214.52 233.914 214.51 234.306C214.501 234.698 214.411 235.084 214.247 235.44C214.083 235.796 213.848 236.115 213.557 236.378C212.983 236.904 212.232 237.195 211.454 237.195C210.675 237.195 209.925 236.904 209.351 236.378C208.927 235.963 208.64 235.43 208.527 234.849C208.414 234.267 208.48 233.665 208.717 233.122V233.051ZM221.459 234.213C222.178 234.543 222.98 234.644 223.758 234.502C224.535 234.36 225.251 233.983 225.807 233.421C226.517 232.67 226.913 231.674 226.913 230.64C226.913 229.606 226.517 228.611 225.807 227.859C225.45 227.486 225.021 227.188 224.546 226.985C224.071 226.782 223.56 226.677 223.043 226.677C222.527 226.677 222.016 226.782 221.541 226.985C221.066 227.188 220.637 227.486 220.28 227.859C219.847 228.317 219.528 228.87 219.349 229.475C219.17 230.079 219.137 230.717 219.252 231.337C219.367 231.956 219.627 232.54 220.011 233.04C220.394 233.54 220.891 233.942 221.459 234.213ZM220.263 229.373C220.471 228.927 220.785 228.537 221.176 228.238C221.567 227.938 222.025 227.738 222.511 227.653C222.996 227.569 223.495 227.602 223.964 227.752C224.434 227.901 224.861 228.161 225.208 228.511C225.486 228.787 225.704 229.118 225.85 229.482C225.996 229.846 226.066 230.236 226.056 230.628C226.046 231.02 225.957 231.406 225.793 231.762C225.629 232.118 225.394 232.437 225.103 232.699C224.531 233.224 223.784 233.515 223.008 233.515C222.233 233.515 221.485 233.224 220.914 232.699C220.466 232.286 220.162 231.741 220.044 231.143C219.927 230.545 220.004 229.925 220.263 229.373ZM237.44 229.725C237.989 229.176 238.365 228.477 238.52 227.715C238.674 226.954 238.602 226.164 238.311 225.444C238.02 224.723 237.524 224.104 236.884 223.664C236.244 223.224 235.489 222.981 234.712 222.967C234.071 222.969 233.44 223.128 232.874 223.43C232.308 223.733 231.826 224.169 231.468 224.701C231.11 225.234 230.888 225.845 230.821 226.483C230.754 227.121 230.845 227.766 231.085 228.361C231.325 228.955 231.707 229.482 232.198 229.895C232.689 230.308 233.274 230.594 233.901 230.729C234.528 230.863 235.178 230.842 235.795 230.667C236.412 230.492 236.977 230.169 237.44 229.725ZM231.896 225.695C232.105 225.248 232.418 224.859 232.81 224.559C233.201 224.26 233.659 224.059 234.144 223.975C234.63 223.89 235.128 223.924 235.598 224.073C236.068 224.222 236.494 224.483 236.842 224.832C237.119 225.108 237.337 225.437 237.483 225.799C237.628 226.162 237.698 226.55 237.688 226.941C237.679 227.331 237.589 227.716 237.425 228.07C237.261 228.425 237.027 228.743 236.736 229.003C236.167 229.532 235.419 229.825 234.642 229.825C233.865 229.825 233.117 229.532 232.547 229.003C232.091 228.6 231.774 228.063 231.641 227.469C231.508 226.875 231.567 226.254 231.808 225.695H231.896ZM244.48 226.856C245.2 227.184 246.004 227.282 246.781 227.137C247.559 226.992 248.273 226.611 248.827 226.047C249.545 225.302 249.946 224.309 249.946 223.275C249.946 222.241 249.545 221.247 248.827 220.503C248.475 220.125 248.051 219.823 247.579 219.613C247.108 219.404 246.599 219.292 246.083 219.284C245.567 219.275 245.055 219.371 244.577 219.566C244.099 219.76 243.665 220.049 243.301 220.415C242.853 220.874 242.522 221.433 242.334 222.047C242.147 222.66 242.11 223.309 242.225 223.94C242.341 224.571 242.606 225.165 242.998 225.673C243.39 226.18 243.899 226.586 244.48 226.856ZM243.301 221.999C243.511 221.555 243.823 221.169 244.213 220.872C244.603 220.575 245.059 220.376 245.542 220.291C246.025 220.207 246.521 220.239 246.988 220.386C247.456 220.533 247.881 220.791 248.229 221.136C248.591 221.529 248.841 222.012 248.952 222.535C249.063 223.057 249.031 223.6 248.86 224.106C248.689 224.612 248.384 225.063 247.979 225.411C247.573 225.758 247.081 225.99 246.555 226.083C246.029 226.175 245.488 226.123 244.988 225.934C244.488 225.745 244.049 225.424 243.716 225.006C243.383 224.588 243.169 224.089 243.096 223.559C243.023 223.03 243.094 222.491 243.301 221.999Z" fill="white"/>
</svg>
