<svg width="69" height="68" viewBox="0 0 69 68" fill="none" xmlns="http://www.w3.org/2000/svg">
<path d="M51.1706 68C51.2843 58.6756 58.903 51.1706 68.2274 51.1706H68.3411V0C68.2843 0 68.2843 0 68.2274 0C30.5886 0 0.113712 30.4181 0 68H51.1706Z" fill="#F44336"/>
<path d="M51.1706 67.9999C51.2843 58.6755 58.903 51.1705 68.2274 51.1705H68.3412V8.52832C68.1137 8.52832 67.8863 8.52832 67.6589 8.52832C34.7392 8.52832 8.07361 35.137 7.9599 67.9999H51.1706Z" fill="#FF9800"/>
<path d="M51.1706 68C51.2843 58.6756 58.903 51.1706 68.2275 51.1706H68.3412V17.0569C68.2843 17.0569 68.2843 17.0569 68.2275 17.0569C40.0268 17.0569 17.1706 39.8562 17.0569 68H51.1706Z" fill="#FFEB3B"/>
<path d="M51.1704 67.9999C51.2841 58.6755 58.9029 51.1705 68.2273 51.1705H68.341V25.5852C68.2841 25.5852 68.2841 25.5852 68.2273 25.5852C44.7457 25.5852 25.6989 44.5752 25.5851 67.9999H51.1704Z" fill="#8BC34A"/>
<path d="M51.1706 67.9998C51.2843 58.6754 58.903 51.1704 68.2274 51.1704H68.3411V34.1135C68.2843 34.1135 68.2843 34.1135 68.2274 34.1135C49.4649 34.1135 34.2274 49.2373 34.1137 67.9998H51.1706Z" fill="#2196F3"/>
<path d="M51.1706 67.9999C51.2843 58.6755 58.903 51.1705 68.2274 51.1705H68.3411V42.6421C68.2843 42.6421 68.2843 42.6421 68.2274 42.6421C54.184 42.6421 42.7559 53.9565 42.6422 67.9999H51.1706Z" fill="#673AB7"/>
<path opacity="0.2" d="M2.27425 68C2.3311 50.4883 9.2107 34 21.6053 21.6054C34.0569 9.15385 50.602 2.27425 68.2274 2.27425H68.3411V0C68.2843 0 68.2843 0 68.2274 0C30.5886 0 0.113712 30.4181 0 68H2.27425Z" fill="#424242"/>
<path opacity="0.2" d="M51.7392 67.9997C51.853 59.0164 59.1874 51.7388 68.1707 51.7388H68.2844V49.4646C68.2275 49.4646 68.2275 49.4646 68.1707 49.4646C57.8797 49.4646 49.5787 57.7087 49.4081 67.9997H51.7392Z" fill="#424242"/>
</svg>
