<svg width="68" height="68" viewBox="0 0 68 68" fill="none" xmlns="http://www.w3.org/2000/svg">
<path d="M1.32501 4.50854H66.0569V48.0337H1.32501V4.50854Z" fill="url(#paint0_linear_603_114)"/>
<path d="M64.7319 5.83325V46.7139H2.64452V5.83325H64.7319ZM67.3764 3.18872H0V49.3584H67.3764V3.18872Z" fill="url(#paint1_linear_603_114)"/>
<path d="M34.0082 0C10.9823 0 11.1676 21.2909 11.1676 21.6278C11.1676 35.4175 12.2232 54.8949 17.7424 62.559C19.9321 65.5966 24.16 65.765 24.16 65.765L33.6882 65.7538L43.2163 65.765C43.2163 65.765 47.4498 65.5966 49.6339 62.559C55.1532 54.8949 56.2087 35.4175 56.2087 21.6278C56.2031 21.2909 57.0341 0 34.0082 0Z" fill="#543930"/>
<path d="M34.0082 0C10.9823 0 11.1676 21.2909 11.1676 21.6278C11.1676 35.4175 12.2232 54.8949 17.7424 62.559C19.9321 65.5966 24.16 65.765 24.16 65.765L33.6882 65.7538L43.2163 65.765C43.2163 65.765 47.4498 65.5966 49.6339 62.559C55.1532 54.8949 56.2087 35.4175 56.2087 21.6278C56.2031 21.2909 57.0341 0 34.0082 0Z" fill="url(#paint2_radial_603_114)"/>
<path d="M62.0424 67.9771V66.1916C62.0424 57.5057 47.8148 52.9634 33.7668 52.9634H33.6882C19.5728 52.9802 5.33392 57.0733 5.33392 66.1916V67.9771H62.0424Z" fill="url(#paint3_linear_603_114)"/>
<path d="M6.17617 67.977V66.1915C6.17617 57.6572 19.994 53.8223 33.6882 53.8055H33.7612C41.0042 53.8055 48.0338 55.0351 53.0533 57.1743C56.7702 58.7633 61.2002 61.6156 61.2002 66.1859V67.9714H62.8847V66.1859C62.8847 56.7813 48.1404 52.1211 33.7612 52.1211C33.7387 52.1211 33.7107 52.1211 33.6882 52.1211C19.3763 52.1379 4.49176 56.2086 4.49176 66.1915V67.977H6.17617Z" fill="#3488C1"/>
<path d="M4.49176 66.1859V67.9714H5.33397H6.17617H21.1113H21.9535H22.7957C23.2336 55.7426 25.1426 52.2446 25.1426 52.2446C15.6257 54.3221 4.91286 56.7813 4.49176 66.1859Z" fill="url(#paint4_linear_603_114)"/>
<path d="M42.4526 52.2505C42.4526 52.2505 44.356 55.7484 44.7995 67.9773H45.6417H46.4839H61.419H62.2612H63.1034V66.1918C62.6823 56.7816 51.9695 54.3223 42.4526 52.2505Z" fill="url(#paint5_linear_603_114)"/>
<path d="M19.3427 67.9773C19.3595 65.2037 19.6683 59.4205 21.6559 53.0029L19.7582 53.4633C17.9502 59.7406 17.6583 65.2318 17.6526 67.9773H19.3427Z" fill="url(#paint6_linear_603_114)"/>
<path d="M49.7237 67.9773C49.7181 65.2318 49.4261 59.7406 47.6182 53.4633L45.7204 53.0029C47.708 59.4205 48.0168 65.2037 48.0337 67.9773H49.7237Z" fill="url(#paint7_linear_603_114)"/>
<path d="M33.6881 50.2295H28.5899V55.833C28.5899 58.3652 30.6673 60.4202 33.2276 60.4202H34.1541C36.7144 60.4202 38.7918 58.3652 38.7918 55.833V50.2295H33.6881Z" fill="#E59600"/>
<path d="M28.0736 49.9766L33.6771 57.169L24.5644 60.8972L23.2113 52.7334L28.0736 49.9766Z" fill="url(#paint8_linear_603_114)"/>
<path d="M39.4207 49.9766L33.8172 57.169L42.9299 60.8972L44.283 52.7334L39.4207 49.9766Z" fill="url(#paint9_linear_603_114)"/>
<path d="M54.457 67.977L54.8837 66.4891L55.2375 65.2651L55.2038 65.2539L55.2094 65.2258L54.3391 64.9787L55.2599 61.7671C55.3161 61.5706 55.3104 61.3741 55.2599 61.1944C55.2599 61.1888 55.2543 61.1776 55.2543 61.172C55.2487 61.1495 55.2431 61.1327 55.2318 61.1158C55.1364 60.8126 54.9174 60.5712 54.6198 60.4814L54.5356 60.4589C54.5356 60.4589 54.5356 60.4589 54.53 60.4589L52.4245 59.8525L32.8123 54.2097C32.7843 54.2041 32.7618 54.2041 32.7393 54.1929C30.9202 53.7157 29.0449 54.7712 28.5227 56.5904L27.7142 59.4146C27.658 59.6055 27.5963 59.8132 27.5289 60.0378L26.7878 62.6262L25.2493 67.977H54.457Z" fill="url(#paint10_linear_603_114)"/>
<path d="M55.1869 67.9774L57.1296 61.206C57.2924 60.639 56.9668 60.0494 56.3997 59.8922L34.6764 53.6599C32.8348 53.1321 30.9089 54.1989 30.3811 56.0405L26.9562 67.983L55.1869 67.9774Z" fill="#424242"/>
<path d="M56.1694 67.977L56.7533 65.9388C56.9498 65.2538 56.5399 64.5351 55.8437 64.3386L32.5315 57.6571C29.988 56.9272 29.5444 58.9766 28.8314 61.4639L26.9617 67.977H56.1694Z" fill="url(#paint11_linear_603_114)"/>
<path opacity="0.2" d="M33.8737 55.4168C33.9747 55.4168 34.087 55.428 34.2049 55.4561L55.1197 61.4638L54.9457 62.0702C48.3259 60.223 35.6928 56.6689 33.082 55.8042C33.2168 55.6189 33.4807 55.4168 33.8737 55.4168ZM33.8737 53.5471C31.3358 53.5471 30.0669 56.6745 32.1219 57.4437C34.3846 58.2859 56.2258 64.361 56.2258 64.361L57.1129 61.2617C57.287 60.6666 57.0063 60.0602 56.4897 59.9142L34.6822 53.6482C34.4015 53.5808 34.132 53.5471 33.8737 53.5471Z" fill="#424242"/>
<path d="M55.7932 61.3407L33.4467 54.9287C32.8403 54.7546 32.1778 55.1869 31.9757 55.8888L31.942 56.0123C31.7398 56.7141 32.0711 57.4328 32.6775 57.6069L55.024 64.0189C55.024 64.0189 54.8331 63.5528 55.0633 62.7275C55.2935 61.8965 55.7932 61.3407 55.7932 61.3407Z" fill="url(#paint12_linear_603_114)"/>
<mask id="mask0_603_114" style="mask-type:luminance" maskUnits="userSpaceOnUse" x="26" y="57" width="32" height="11">
<path d="M57.0845 64.6593L32.0991 57.5511C30.1171 56.9896 29.9094 57.6746 29.3985 59.4769L26.9617 68L56.1413 67.9888L57.0845 64.6593Z" fill="white"/>
</mask>
<g mask="url(#mask0_603_114)">
<path d="M29.129 67.9777L33.4804 52.8236L29.8702 51.7849L25.2212 67.9777H29.129Z" fill="url(#paint13_linear_603_114)"/>
</g>
<path d="M33.8622 7.39429C24.205 7.39429 15.2607 14.5755 15.2607 29.8026C15.2607 42.0314 22.835 49.2687 29.4266 51.6045C30.9988 52.1603 32.5147 52.441 33.8622 52.441C35.1985 52.441 36.7089 52.1659 38.2698 51.6157C44.8727 49.2912 52.4638 42.0538 52.4638 29.8082C52.4638 14.5755 43.5195 7.39429 33.8622 7.39429Z" fill="#FFCA28"/>
<path d="M36.142 36.6023C36.0802 36.5798 36.0241 36.563 35.9623 36.5574H32.0377C31.9759 36.563 31.9198 36.5798 31.858 36.6023C31.5043 36.7483 31.3077 37.1132 31.4762 37.5063C31.6446 37.8993 32.4251 38.9998 33.9972 38.9998C35.5693 38.9998 36.3498 37.8993 36.5238 37.5063C36.6922 37.1132 36.4957 36.7427 36.142 36.6023Z" fill="#E59600"/>
<path d="M25.4401 34.2722C26.9503 34.2722 28.1745 33.0052 28.1745 31.4424C28.1745 29.8795 26.9503 28.6125 25.4401 28.6125C23.93 28.6125 22.7057 29.8795 22.7057 31.4424C22.7057 33.0052 23.93 34.2722 25.4401 34.2722Z" fill="#404040"/>
<path d="M42.5595 34.2722C44.0696 34.2722 45.2939 33.0052 45.2939 31.4424C45.2939 29.8795 44.0696 28.6125 42.5595 28.6125C41.0494 28.6125 39.8251 29.8795 39.8251 31.4424C39.8251 33.0052 41.0494 34.2722 42.5595 34.2722Z" fill="#404040"/>
<path d="M28.9381 26.3612C28.4159 25.6706 27.2144 24.6711 24.8787 24.6711C22.543 24.6711 21.3358 25.6762 20.8192 26.3612C20.589 26.6644 20.6452 27.0181 20.808 27.2314C20.954 27.428 21.3919 27.6132 21.8748 27.4504C22.3577 27.2876 23.3009 26.7991 24.8787 26.7879C26.4564 26.7991 27.3997 27.2876 27.8825 27.4504C28.3654 27.6132 28.8034 27.4336 28.9493 27.2314C29.1122 27.0181 29.1683 26.6644 28.9381 26.3612Z" fill="#6D4C41"/>
<path d="M47.186 26.3612C46.6638 25.6706 45.4623 24.6711 43.1265 24.6711C40.7908 24.6711 39.5837 25.6762 39.0671 26.3612C38.8369 26.6644 38.8931 27.0181 39.0559 27.2314C39.2019 27.428 39.6398 27.6132 40.1227 27.4504C40.6055 27.2876 41.5488 26.7991 43.1265 26.7879C44.7043 26.7991 45.6475 27.2876 46.1304 27.4504C46.6133 27.6132 47.0512 27.4336 47.1972 27.2314C47.3544 27.0181 47.4106 26.6644 47.186 26.3612Z" fill="#6D4C41"/>
<path d="M38.528 41.1391C36.7593 42.1891 30.9649 42.1891 29.2019 41.1391C28.1857 40.5384 27.1526 41.4592 27.5737 42.38C27.9892 43.2839 31.1502 45.3895 33.879 45.3895C36.6077 45.3895 39.7295 43.2839 40.145 42.38C40.5661 41.4592 39.5442 40.5327 38.528 41.1391Z" fill="#795548"/>
<path d="M50.4931 28.107C50.4538 27.4389 50.4257 27.3715 49.5442 27.0908C48.8536 26.8718 45.0805 26.563 42.2395 26.7202C42.0374 26.7314 41.8409 26.7427 41.6556 26.7595C39.0784 26.9785 35.9847 28.0172 33.6602 28.0733C32.672 28.0958 28.6014 27.029 25.721 26.8044C25.5358 26.7932 25.3505 26.7763 25.1596 26.7707C22.3129 26.6247 18.523 26.956 17.8324 27.1806C16.9509 27.467 16.9228 27.5343 16.8891 28.2025C16.8498 28.865 16.9621 29.4377 17.4843 29.6118C18.1973 29.8476 18.203 30.7347 18.6802 33.2838C19.1125 35.6083 20.1513 37.4443 24.6149 37.7643C24.8058 37.7755 24.9855 37.7868 25.1652 37.7868C29.1123 37.8429 30.4711 35.2433 30.9203 34.3787C31.7568 32.7728 31.493 30.5607 33.7051 30.555C35.9117 30.5494 35.704 32.7223 36.5518 34.3225C37.0066 35.1816 38.3317 37.7924 42.2451 37.7362C42.436 37.7362 42.6325 37.725 42.8347 37.7082C47.2927 37.3601 48.3258 35.5184 48.7413 33.194C49.2017 30.6393 49.2073 29.7465 49.9148 29.5107C50.4257 29.3423 50.5324 28.7752 50.4931 28.107ZM27.7199 36.6638C27.0349 36.9839 26.1197 37.1467 25.154 37.1467C23.1383 37.1411 20.9036 36.4336 20.0951 35.0075C18.9497 32.975 18.6521 28.865 20.112 28.006C20.752 27.6298 22.9137 27.3715 25.1483 27.467C27.4672 27.568 29.8647 28.0509 30.7294 29.1851C32.1667 31.0547 29.8872 35.642 27.7199 36.6638ZM47.3152 34.9233C46.5123 36.3606 44.2608 37.0849 42.2339 37.0906C41.2794 37.0962 40.3754 36.939 39.7016 36.6245C37.5288 35.6139 35.2267 31.0435 36.6416 29.1626C37.5007 28.0172 39.9094 27.5231 42.2339 27.4108C44.4629 27.3041 46.619 27.5512 47.2534 27.9217C48.7245 28.7752 48.4494 32.8851 47.3152 34.9233Z" fill="#212121" stroke="#212121" stroke-width="0.379591" stroke-miterlimit="10"/>
<path d="M34.0082 0C10.9823 0 11.1676 21.291 11.1676 21.6278C11.1676 25.9848 11.2743 30.9089 11.5887 35.8443L15.3618 35.833C15.3281 34.1935 16.4791 24.059 19.8984 23.2898C32.4529 20.4656 39.5555 13.8066 39.5555 13.8066C41.4028 17.8379 47.1803 21.7738 49.2521 23.2729C50.9534 24.5026 51.8236 33.6882 51.79 35.8386H55.7708C55.7708 35.8106 55.782 35.7825 55.782 35.7488C56.0964 30.8359 56.1975 25.9455 56.1975 21.6166C56.2031 21.291 57.0341 0 34.0082 0Z" fill="#543930"/>
<path d="M34.0082 0C10.9823 0 11.1676 21.291 11.1676 21.6278C11.1676 25.9848 11.2743 30.9089 11.5887 35.8443L15.3618 35.833C15.3281 34.1935 16.4791 24.059 19.8984 23.2898C32.4529 20.4656 39.5555 13.8066 39.5555 13.8066C41.4028 17.8379 47.1803 21.7738 49.2521 23.2729C50.9534 24.5026 51.8236 33.6882 51.79 35.8386H55.7708C55.7708 35.8106 55.782 35.7825 55.782 35.7488C56.0964 30.8359 56.1975 25.9455 56.1975 21.6166C56.2031 21.291 57.0341 0 34.0082 0Z" fill="url(#paint14_radial_603_114)"/>
<defs>
<linearGradient id="paint0_linear_603_114" x1="33.6879" y1="4.78664" x2="33.6879" y2="48.0726" gradientUnits="userSpaceOnUse">
<stop stop-color="#26A69A"/>
<stop offset="1" stop-color="#00796B"/>
</linearGradient>
<linearGradient id="paint1_linear_603_114" x1="33.6879" y1="3.18591" x2="33.6879" y2="49.3562" gradientUnits="userSpaceOnUse">
<stop stop-color="#8D6E63"/>
<stop offset="0.7789" stop-color="#795548"/>
</linearGradient>
<radialGradient id="paint2_radial_603_114" cx="0" cy="0" r="1" gradientUnits="userSpaceOnUse" gradientTransform="translate(33.6883 31.1989) scale(26.6875 31.7608)">
<stop offset="0.7936" stop-color="#6D4C41" stop-opacity="0"/>
<stop offset="1" stop-color="#6D4C41"/>
</radialGradient>
<linearGradient id="paint3_linear_603_114" x1="33.6882" y1="59.9576" x2="33.6882" y2="67.5338" gradientUnits="userSpaceOnUse">
<stop stop-color="#B3E5FC"/>
<stop offset="1" stop-color="#70AFE3"/>
</linearGradient>
<linearGradient id="paint4_linear_603_114" x1="14.8172" y1="52.123" x2="14.8172" y2="67.4544" gradientUnits="userSpaceOnUse">
<stop stop-color="#651FFF"/>
<stop offset="0.7047" stop-color="#5914F2"/>
<stop offset="1" stop-color="#530EEB"/>
</linearGradient>
<linearGradient id="paint5_linear_603_114" x1="52.778" y1="52.8545" x2="52.778" y2="67.4311" gradientUnits="userSpaceOnUse">
<stop stop-color="#651FFF"/>
<stop offset="0.7047" stop-color="#5914F2"/>
<stop offset="1" stop-color="#530EEB"/>
</linearGradient>
<linearGradient id="paint6_linear_603_114" x1="19.652" y1="53.9743" x2="19.652" y2="67.2126" gradientUnits="userSpaceOnUse">
<stop stop-color="#D1C4E9" stop-opacity="0.2"/>
<stop offset="0.7848" stop-color="#D1C4E9" stop-opacity="0.6"/>
</linearGradient>
<linearGradient id="paint7_linear_603_114" x1="47.7248" y1="53.2798" x2="47.7248" y2="67.1062" gradientUnits="userSpaceOnUse">
<stop stop-color="#D1C4E9" stop-opacity="0.2"/>
<stop offset="0.7848" stop-color="#D1C4E9" stop-opacity="0.6"/>
</linearGradient>
<linearGradient id="paint8_linear_603_114" x1="28.264" y1="60.7818" x2="28.734" y2="49.3957" gradientUnits="userSpaceOnUse">
<stop stop-color="#E1F5FE"/>
<stop offset="1" stop-color="#81D4FA"/>
</linearGradient>
<linearGradient id="paint9_linear_603_114" x1="38.7245" y1="61.2137" x2="39.1945" y2="49.8276" gradientUnits="userSpaceOnUse">
<stop stop-color="#E1F5FE"/>
<stop offset="1" stop-color="#81D4FA"/>
</linearGradient>
<linearGradient id="paint10_linear_603_114" x1="42.1944" y1="58.3999" x2="38.6385" y2="73.3725" gradientUnits="userSpaceOnUse">
<stop offset="0.0017" stop-color="#212121" stop-opacity="0.2"/>
<stop offset="1" stop-color="#212121" stop-opacity="0.6"/>
</linearGradient>
<linearGradient id="paint11_linear_603_114" x1="43.7316" y1="60.5659" x2="40.8307" y2="70.298" gradientUnits="userSpaceOnUse">
<stop stop-color="#EF5350"/>
<stop offset="1" stop-color="#E53935"/>
</linearGradient>
<linearGradient id="paint12_linear_603_114" x1="31.9606" y1="55.9496" x2="55.407" y2="62.6781" gradientUnits="userSpaceOnUse">
<stop offset="0.0102" stop-color="#BDBDBD"/>
<stop offset="0.9869" stop-color="#F5F5F5"/>
</linearGradient>
<linearGradient id="paint13_linear_603_114" x1="27.2622" y1="66.9143" x2="29.7186" y2="59.1941" gradientUnits="userSpaceOnUse">
<stop stop-color="#212121"/>
<stop offset="1" stop-color="#424242"/>
</linearGradient>
<radialGradient id="paint14_radial_603_114" cx="0" cy="0" r="1" gradientUnits="userSpaceOnUse" gradientTransform="translate(33.8753 33.4614) scale(27.9545 33.9228)">
<stop offset="0.7945" stop-color="#6D4C41" stop-opacity="0"/>
<stop offset="1" stop-color="#6D4C41"/>
</radialGradient>
</defs>
</svg>
