<svg width="14" height="14" viewBox="0 0 14 14" fill="none" xmlns="http://www.w3.org/2000/svg">
<path d="M5.778 0.5H8.222C9.044 0.5 9.691 0.5 10.212 0.543C10.742 0.586 11.186 0.676 11.589 0.881C12.2478 1.2166 12.7834 1.7522 13.119 2.411C13.324 2.814 13.414 3.258 13.457 3.789C13.5 4.309 13.5 4.957 13.5 5.778V8.222C13.5 9.044 13.5 9.691 13.457 10.212C13.414 10.742 13.324 11.186 13.119 11.589C12.7834 12.2478 12.2478 12.7834 11.589 13.119C11.186 13.324 10.742 13.414 10.211 13.457C9.691 13.5 9.043 13.5 8.222 13.5H4.622C2.84 13.5 1.947 11.346 3.207 10.086L8.043 5.25H5.5C5.36739 5.25 5.24021 5.19732 5.14645 5.10355C5.05268 5.00979 5 4.88261 5 4.75C5 4.61739 5.05268 4.49021 5.14645 4.39645C5.24021 4.30268 5.36739 4.25 5.5 4.25H9.25C9.38261 4.25 9.50979 4.30268 9.60355 4.39645C9.69732 4.49021 9.75 4.61739 9.75 4.75V8.5C9.75 8.63261 9.69732 8.75979 9.60355 8.85355C9.50979 8.94732 9.38261 9 9.25 9C9.11739 9 8.99021 8.94732 8.89645 8.85355C8.80268 8.75979 8.75 8.63261 8.75 8.5V5.957L3.914 10.793C3.284 11.423 3.73 12.5 4.621 12.5H8.2C9.048 12.5 9.655 12.5 10.13 12.46C10.599 12.422 10.896 12.35 11.135 12.227C11.6051 11.9874 11.9874 11.6051 12.227 11.135C12.349 10.896 12.422 10.599 12.461 10.13C12.5 9.654 12.5 9.048 12.5 8.2V5.8C12.5 4.952 12.5 4.345 12.46 3.87C12.422 3.401 12.35 3.104 12.227 2.865C11.9875 2.39451 11.6053 2.01189 11.135 1.772C10.896 1.651 10.599 1.578 10.13 1.539C9.654 1.5 9.048 1.5 8.2 1.5H5.8C4.952 1.5 4.345 1.5 3.87 1.54C3.401 1.578 3.104 1.65 2.865 1.772C2.39435 2.01172 2.01172 2.39435 1.772 2.865C1.651 3.104 1.578 3.401 1.539 3.87C1.5 4.345 1.5 4.952 1.5 5.8V8.5C1.5 8.63261 1.44732 8.75979 1.35355 8.85355C1.25979 8.94732 1.13261 9 1 9C0.867392 9 0.740215 8.94732 0.646447 8.85355C0.552679 8.75979 0.5 8.63261 0.5 8.5V5.778C0.5 4.957 0.5 4.31 0.543 3.788C0.586 3.258 0.676 2.814 0.881 2.411C1.2166 1.7522 1.7522 1.2166 2.411 0.881C2.814 0.676 3.258 0.586 3.789 0.543C4.309 0.5 4.957 0.5 5.778 0.5Z" fill="white"/>
</svg>
