<svg width="1180" height="468" viewBox="0 0 1180 468" fill="none" xmlns="http://www.w3.org/2000/svg">
<g clip-path="url(#clip0_243_132)">
<rect width="1180" height="468" fill="white"/>
<path d="M118.508 134.32V169.398H114.797V149.945H107.57V146.898H114.797V134.32H118.508ZM101.789 144.164C101.789 150.102 105.5 156.469 110.891 158.852L108.664 161.82C104.621 159.867 101.496 155.785 99.9531 151C98.3906 156.098 95.207 160.453 91.1641 162.523L88.8984 159.633C94.25 157.094 98 150.453 98.0391 144.164V140.883H90.3047V137.836H109.562V140.883H101.789V144.164ZM135.266 136.82C140.812 136.781 144.758 140.219 144.797 145.141C144.758 150.062 140.812 153.5 135.266 153.5C129.758 153.5 125.695 150.062 125.734 145.141C125.695 140.219 129.758 136.781 135.266 136.82ZM135.266 140.023C131.867 140.023 129.367 142.055 129.406 145.141C129.367 148.227 131.867 150.258 135.266 150.258C138.664 150.258 141.164 148.227 141.164 145.141C141.164 142.055 138.664 140.023 135.266 140.023ZM152.805 134.32V169.398H149.094V134.32H152.805ZM124.055 158.773C130.422 158.773 139.25 158.695 146.906 157.602L147.18 160.297C139.25 161.82 130.773 161.859 124.523 161.859L124.055 158.773ZM180.344 143.227C180.305 149.438 183.898 155.766 189.133 158.305L186.828 161.273C183.02 159.301 180.07 155.375 178.547 150.688C176.965 155.688 173.898 159.867 169.914 161.938L167.609 158.93C173 156.352 176.633 149.633 176.633 143.227V137.25H180.344V143.227ZM195.461 134.32V148.266H201.086V151.43H195.461V169.32H191.75V134.32H195.461ZM231.75 134.32V169.398H228.039V134.32H231.75ZM213.039 136.938C218.234 136.938 222.062 141.703 222.062 149.203C222.062 156.742 218.234 161.508 213.039 161.508C207.766 161.508 203.977 156.742 203.977 149.203C203.977 141.703 207.766 136.938 213.039 136.938ZM213.039 140.258C209.797 140.258 207.57 143.695 207.57 149.203C207.57 154.75 209.797 158.188 213.039 158.188C216.242 158.188 218.469 154.75 218.469 149.203C218.469 143.695 216.242 140.258 213.039 140.258ZM265.734 152.953V155.922H241.359V137.211H265.383V140.219H245.109V144.945H264.641V147.875H245.109V152.953H265.734ZM269.367 161.859V164.906H237.336V161.859H269.367ZM282.414 136.547C287.805 136.547 291.828 139.945 291.828 144.867C291.828 149.203 288.703 152.348 284.289 153.031V158.578C287.395 158.441 290.5 158.207 293.391 157.836L293.664 160.609C286.281 161.898 278.117 161.938 272.062 161.898L271.477 158.852C274.191 158.832 277.316 158.812 280.578 158.734V153.031C276.047 152.387 272.961 149.223 273 144.867C272.961 139.945 276.906 136.547 282.414 136.547ZM282.414 139.672C279.055 139.711 276.594 141.742 276.594 144.867C276.594 147.992 279.055 150.062 282.414 150.023C285.734 150.062 288.156 147.992 288.195 144.867C288.156 141.742 285.734 139.711 282.414 139.672ZM299.211 134.32V148.539H304.602V151.664H299.211V169.32H295.5V134.32H299.211ZM348.273 161.82V164.945H316.242V161.82H348.273ZM345.344 137.68V140.727H339.992V152.406H345.227V155.375H319.055V152.406H324.289V140.727H318.977V137.68H345.344ZM327.961 152.406H336.359V140.727H327.961V152.406ZM382.844 162.016V165.141H350.812V162.016H364.914V155.883H354.719V144.75H375.266V139.828H354.641V136.781H378.938V147.719H358.391V152.836H379.758V155.883H368.586V162.016H382.844ZM408.352 135.062V155.414H404.836V146.234H399.953V143.227H404.836V135.062H408.352ZM395.969 141.82C395.969 145.609 398.273 149.555 402.727 151.391L400.852 154.242C397.668 152.934 395.48 150.512 394.25 147.641C393 150.863 390.695 153.578 387.297 155.023L385.305 152.094C389.953 150.219 392.375 145.883 392.375 141.82V140.102H386.164V137.094H401.828V140.102H395.969V141.82ZM415.227 134.32V155.688H411.711V134.32H415.227ZM415.227 157.133V169.32H411.555V160.141H391.438V157.133H415.227ZM448.352 152.953V155.922H423.977V137.211H448V140.219H427.727V144.945H447.258V147.875H427.727V152.953H448.352ZM451.984 161.859V164.906H419.953V161.859H451.984ZM484.641 134.32V169.32H481.086V134.32H484.641ZM477.531 134.984V167.602H473.977V150.727H470.031C469.719 157.562 466.789 161.82 462.453 161.781C457.883 161.82 454.914 157.016 454.914 149.438C454.914 141.859 457.883 137.094 462.453 137.133C466.711 137.094 469.602 141.137 470.031 147.719H473.977V134.984H477.531ZM462.453 140.609C459.914 140.609 458.352 143.852 458.352 149.438C458.352 155.023 459.914 158.266 462.453 158.266C465.031 158.266 466.633 155.023 466.633 149.438C466.633 143.852 465.031 140.609 462.453 140.609ZM528.898 134.32V169.32H525.344V151.234H520.812V167.523H517.414V135.023H520.812V148.188H525.344V134.32H528.898ZM513.156 138.539V141.547H503.742V157.758C508.039 157.719 511.281 157.523 515.031 156.82L515.305 159.867C511.086 160.727 507.492 160.883 502.375 160.922H500.031V138.539H513.156ZM560.93 134.359V145.609H566.008V148.695H560.93V160.531H557.219V134.359H560.93ZM554.328 138.422V141.43H533.469V138.422H542.062V134.32H545.773V138.422H554.328ZM543.898 143.109C548.938 143.109 552.375 145.727 552.375 149.711C552.375 153.695 548.938 156.273 543.898 156.273C538.82 156.273 535.383 153.695 535.383 149.711C535.383 145.727 538.82 143.109 543.898 143.109ZM543.898 145.961C540.93 145.961 538.938 147.406 538.977 149.711C538.938 151.977 540.93 153.383 543.898 153.383C546.867 153.383 548.859 151.977 548.898 149.711C548.859 147.406 546.867 145.961 543.898 145.961ZM562.414 165.57V168.578H538.742V158.461H542.453V165.57H562.414ZM118.391 182.32V217.32H114.641V182.32H118.391ZM110.07 185.914V188.961H106.438V205.211C108.254 205.094 110.051 204.938 111.789 204.742L111.984 207.477C104.406 208.688 96.0859 208.805 89.6406 208.844L89.2109 205.758C90.6562 205.758 92.1992 205.738 93.8203 205.719V188.961H90.1484V185.914H110.07ZM97.4141 205.641C99.1719 205.602 100.988 205.543 102.805 205.445V188.961H97.4141V205.641ZM152.219 198.922V201.969H127.844V185.445H151.906V188.492H131.516V198.922H152.219ZM155.891 209.625V212.711H123.859V209.625H155.891ZM163.43 184.547V189.898H170.188V184.547H173.625V201.07H159.914V184.547H163.43ZM163.43 198.062H170.188V192.789H163.43V198.062ZM188.273 182.359V203.375H184.758V194.312H180.656V203.141H177.219V182.984H180.656V191.266H184.758V182.359H188.273ZM188.273 205.328V217.32H184.602V208.336H164.484V205.328H188.273ZM234.68 202.047V205.055H220.461V217.281H216.828V205.055H202.766V202.047H234.68ZM231.672 184.391V187.359H220.852C220.91 191.695 226.301 195.562 232.922 196.461L231.555 199.391C225.812 198.492 220.852 195.66 218.742 191.656C216.574 195.66 211.633 198.492 205.969 199.391L204.562 196.461C211.105 195.562 216.496 191.695 216.633 187.359H205.734V184.391H231.672ZM266.32 182.32V200.328H262.648V182.32H266.32ZM266.359 202.008V210.758H247.062V214H267.531V216.969H243.469V207.945H262.688V204.938H243.352V202.008H266.359ZM250.07 185.953C250.031 190.641 253.43 194.898 258.781 196.578L256.945 199.469C252.863 198.141 249.797 195.367 248.234 191.812C246.633 195.641 243.508 198.688 239.328 200.133L237.453 197.203C242.922 195.367 246.281 190.797 246.281 185.953V183.258H250.07V185.953ZM299.602 185.406C299.562 190.055 305.266 194.43 312.141 195.328L310.695 198.375C304.973 197.457 299.934 194.488 297.688 190.367C295.383 194.508 290.363 197.457 284.68 198.375L283.195 195.328C290.07 194.43 295.695 190.094 295.734 185.406V183.492H299.602V185.406ZM313.586 201.812V204.859H299.367V217.32H295.734V204.859H281.672V201.812H313.586ZM338.156 205.445C338.156 208.453 339.641 211.637 342.805 213.531C346.027 211.48 347.609 208.121 347.609 205.445V203.766H351.242V205.445C351.242 209.078 353.625 212.594 358.195 214.078L356.359 216.812C352.902 215.621 350.559 213.297 349.328 210.406C348.215 213.238 346.125 215.797 342.922 217.125C339.562 215.855 337.434 213.375 336.359 210.523C335.09 213.277 332.785 215.602 329.484 216.812L327.609 214.078C332.102 212.477 334.523 208.844 334.562 205.445V203.766H338.156V205.445ZM355.031 182.359V202.281H351.32V182.359H355.031ZM336.047 184.273C341.398 184.273 345.344 187.672 345.344 192.555C345.344 197.398 341.398 200.758 336.047 200.758C330.695 200.758 326.711 197.398 326.711 192.555C326.711 187.672 330.695 184.273 336.047 184.273ZM336.047 187.438C332.727 187.398 330.344 189.469 330.344 192.555C330.344 195.602 332.727 197.672 336.047 197.672C339.328 197.672 341.711 195.602 341.711 192.555C341.711 189.469 339.328 187.398 336.047 187.438ZM376.516 182.906C384.406 182.906 389.016 185.016 389.016 188.922C389.016 192.828 384.406 194.977 376.516 194.977C368.625 194.977 364.016 192.828 364.016 188.922C364.016 185.016 368.625 182.906 376.516 182.906ZM376.516 185.641C370.93 185.641 367.844 186.852 367.883 188.922C367.844 191.07 370.93 192.203 376.516 192.203C382.102 192.203 385.188 191.07 385.188 188.922C385.188 186.852 382.102 185.641 376.516 185.641ZM392.492 197.125V200.094H360.578V197.125H392.492ZM388.469 202.789V210.992H368.078V214.117H389.445V216.969H364.445V208.297H384.797V205.562H364.406V202.789H388.469ZM422.961 182.32V196.539H428.039V199.586H422.961V217.32H419.25V182.32H422.961ZM405.695 186.07C405.695 194.82 404.094 202.789 397.766 209.547L394.836 207.477C399.953 202.164 401.809 196.129 402.18 189.117H396.086V186.07H405.695ZM415.344 186.07C415.344 194.938 414.25 204.234 407.805 211.852L404.836 209.82C410.031 203.746 411.594 196.598 411.867 189.117H406.828V186.07H415.344ZM461.75 209.859V212.945H429.719V209.859H437.375V200.719C434.504 199.137 432.766 196.617 432.766 193.492C432.766 187.984 438.156 184.352 445.656 184.352C453.195 184.352 458.586 187.984 458.586 193.492C458.586 196.578 456.906 199.059 454.094 200.641V209.859H461.75ZM445.656 187.32C440.148 187.32 436.359 189.703 436.359 193.492C436.359 197.242 440.148 199.703 445.656 199.703C451.125 199.703 454.992 197.242 454.992 193.492C454.992 189.703 451.125 187.32 445.656 187.32ZM441.047 209.859H450.344V202.047C448.918 202.418 447.336 202.594 445.656 202.594C444.016 202.594 442.453 202.418 441.047 202.086V209.859ZM470.031 205.602C470.07 200.484 471.594 198.922 474.172 197.32C475.812 196.305 477.062 194.898 477.062 192.828C477.062 190.367 475.188 188.844 472.844 188.844C470.734 188.844 468.703 190.133 468.508 193.023H464.289C464.445 188.062 468.195 185.328 472.844 185.328C477.922 185.328 481.32 188.375 481.32 192.828C481.32 195.953 479.836 198.062 477.336 199.586C474.992 200.992 474.094 202.438 474.016 205.602V205.836H470.031V205.602ZM472.18 214.273C470.656 214.273 469.367 213.023 469.406 211.5C469.367 209.977 470.656 208.727 472.18 208.727C473.664 208.727 474.953 209.977 474.953 211.5C474.953 213.023 473.664 214.273 472.18 214.273Z" fill="#121212"/>
<path d="M500 353H513C513.796 353 514.559 353.316 515.121 353.879C515.684 354.441 516 355.204 516 356V365C516 365.796 515.684 366.559 515.121 367.121C514.559 367.684 513.796 368 513 368H500C499.204 368 498.441 367.684 497.879 367.121C497.316 366.559 497 365.796 497 365V356C497 355.204 497.316 354.441 497.879 353.879C498.441 353.316 499.204 353 500 353ZM500 354C499.5 354 499.06 354.17 498.72 354.47L506.5 359.5L514.28 354.47C513.94 354.17 513.5 354 513 354H500ZM506.5 360.71L498.13 355.28C498.05 355.5 498 355.75 498 356V365C498 365.53 498.211 366.039 498.586 366.414C498.961 366.789 499.47 367 500 367H513C513.53 367 514.039 366.789 514.414 366.414C514.789 366.039 515 365.53 515 365V356C515 355.75 514.95 355.5 514.87 355.28L506.5 360.71Z" fill="#121212"/>
<path d="M528.406 366V353.273H536.123V354.68H529.988V358.934H535.719V360.322H529.988V364.594H536.211V366H528.406ZM538.426 366V356.455H539.885V357.949H540.008C540.412 356.93 541.326 356.332 542.574 356.332C543.822 356.332 544.666 356.93 545.123 357.949H545.229C545.721 356.965 546.723 356.332 548.094 356.332C549.799 356.332 551.012 357.369 551.012 359.619V366H549.5V359.637C549.5 358.23 548.604 357.686 547.566 357.686C546.23 357.686 545.475 358.582 545.475 359.795V366H543.945V359.479C543.945 358.406 543.172 357.686 542.082 357.686C540.939 357.686 539.938 358.652 539.938 360.041V366H538.426ZM552.98 363.293C552.98 361.096 554.914 360.604 556.566 360.48C557.173 360.437 558.72 360.357 559.15 360.34V359.566C559.15 358.354 558.43 357.65 556.988 357.65C555.775 357.65 555.055 358.213 554.844 358.934H553.262C553.455 357.404 554.949 356.332 557.059 356.332C558.307 356.332 560.645 356.701 560.645 359.707V366H559.15V364.699H559.08C558.764 365.35 557.885 366.229 556.232 366.229C554.422 366.229 552.98 365.156 552.98 363.293ZM554.492 363.363C554.492 364.365 555.336 364.875 556.496 364.875C558.201 364.875 559.15 363.732 559.15 362.537V361.57C558.702 361.605 557.199 361.72 556.742 361.746C555.371 361.834 554.492 362.326 554.492 363.363ZM563.07 366V356.455H564.582V366H563.07ZM563.826 354.873C563.246 354.873 562.771 354.434 562.771 353.871C562.771 353.309 563.246 352.869 563.826 352.869C564.406 352.869 564.898 353.309 564.898 353.871C564.898 354.434 564.406 354.873 563.826 354.873ZM568.502 353.273V366H566.99V353.273H568.502Z" fill="#121212"/>
<path d="M500.797 393.719C500.609 393.016 500.078 392.547 499.078 392.547C498.031 392.547 497.281 393.109 497.281 393.828C497.281 394.391 497.734 394.781 498.734 395.016L500 395.328C501.516 395.688 502.266 396.438 502.266 397.625C502.266 399.094 501.062 400.172 498.938 400.172C497.031 400.172 495.891 399.328 495.672 397.781H497.078C497.234 398.609 497.844 399 498.906 399C500.109 399 500.875 398.5 500.875 397.703C500.875 397.109 500.453 396.703 499.484 396.484L498.203 396.188C496.719 395.844 495.938 395.031 495.938 393.906C495.938 392.453 497.203 391.406 499.078 391.406C500.828 391.406 501.938 392.344 502.109 393.719H500.797ZM505.922 400L503.344 391.516H504.766L506.578 397.984H506.656L508.453 391.516H509.891L511.656 397.953H511.75L513.562 391.516H514.969L512.391 400H511.062L509.219 393.531H509.094L507.266 400H505.922ZM520.141 400.156C517.625 400.156 516.188 398.047 516.188 394.344C516.188 390.672 517.656 388.531 520.141 388.531C522.625 388.531 524.094 390.672 524.094 394.344C524.094 398.047 522.641 400.156 520.141 400.156ZM520.141 398.906C521.766 398.906 522.719 397.266 522.719 394.344C522.719 391.422 521.766 389.75 520.141 389.75C518.516 389.75 517.547 391.422 517.547 394.344C517.547 397.266 518.5 398.906 520.141 398.906ZM526.016 400L531.203 390.016V389.938H525.219V388.688H532.656V390L527.484 400H526.016ZM538.484 388.688V400H537.062V390.156H537L534.25 391.984V390.562L537.062 388.688H538.484ZM545.203 400.156C542.688 400.156 541.25 398.047 541.25 394.344C541.25 390.672 542.719 388.531 545.203 388.531C547.688 388.531 549.156 390.672 549.156 394.344C549.156 398.047 547.703 400.156 545.203 400.156ZM545.203 398.906C546.828 398.906 547.781 397.266 547.781 394.344C547.781 391.422 546.828 389.75 545.203 389.75C543.578 389.75 542.609 391.422 542.609 394.344C542.609 397.266 543.562 398.906 545.203 398.906ZM556.641 398.516C555.078 398.516 553.938 397.25 553.938 395.219C553.938 393.203 555.094 391.938 556.656 391.938C557.781 391.938 558.25 392.656 558.438 393.016H558.516V392.062H559.703V396.625C559.719 397.234 559.984 397.531 560.484 397.531C561.453 397.531 562.094 396.406 562.109 394.781C562.125 391.828 559.984 389.906 557 389.906C553.906 389.922 551.906 392.312 551.906 395.219C551.906 398.391 553.641 400.578 556.938 400.547C558.031 400.531 558.75 400.469 559.703 400.203V401.266C558.891 401.484 557.969 401.625 556.938 401.625C553.125 401.625 550.781 399.188 550.781 395.219C550.766 391.531 553.359 388.828 557 388.828C560.734 388.828 563.25 391.375 563.234 394.734C563.234 397.156 561.984 398.578 560.406 398.578C559.422 398.578 558.68 398.023 558.625 397.297H558.516C558.328 397.641 557.859 398.516 556.641 398.516ZM556.844 397.375C557.953 397.375 558.516 396.5 558.531 395.203C558.516 393.938 557.969 393.078 556.844 393.078C555.75 393.078 555.156 394.016 555.156 395.203C555.156 396.422 555.766 397.375 556.844 397.375ZM566.469 394.906V400H565.125V391.516H566.422V392.844H566.531C566.938 391.984 567.719 391.406 569.016 391.406C570.734 391.406 571.875 392.453 571.875 394.609V400H570.531V394.703C570.531 393.391 569.812 392.609 568.609 392.609C567.375 392.609 566.469 393.438 566.469 394.906ZM573.625 397.594C573.625 395.641 575.344 395.203 576.812 395.094C577.352 395.055 578.727 394.984 579.109 394.969V394.281C579.109 393.203 578.469 392.578 577.188 392.578C576.109 392.578 575.469 393.078 575.281 393.719H573.875C574.047 392.359 575.375 391.406 577.25 391.406C578.359 391.406 580.438 391.734 580.438 394.406V400H579.109V398.844H579.047C578.766 399.422 577.984 400.203 576.516 400.203C574.906 400.203 573.625 399.25 573.625 397.594ZM574.969 397.656C574.969 398.547 575.719 399 576.75 399C578.266 399 579.109 397.984 579.109 396.922V396.062C578.711 396.094 577.375 396.195 576.969 396.219C575.75 396.297 574.969 396.734 574.969 397.656ZM589.266 391.516L586.125 400H584.734L581.609 391.516H583.078L585.391 398.25H585.484L587.797 391.516H589.266ZM594 400.172C591.547 400.172 590.031 398.438 590.031 395.828C590.031 393.219 591.562 391.406 593.875 391.406C595.656 391.406 597.531 392.5 597.531 395.641V396.203H591.375C591.438 398 592.484 398.984 594 398.984C595.016 398.984 595.656 398.547 595.969 398.016H597.406C597 399.297 595.75 400.172 594 400.172ZM591.391 395.062H596.172C596.172 393.641 595.266 392.594 593.875 392.594C592.406 392.594 591.469 393.75 591.391 395.062ZM599.281 400V391.516H600.578V392.812H600.672C600.984 391.953 601.859 391.375 602.859 391.375C603.062 391.375 603.406 391.391 603.562 391.406V392.766C603.469 392.734 603.094 392.672 602.75 392.672C601.531 392.672 600.625 393.516 600.625 394.656V400H599.281ZM604.859 400.094C604.312 400.094 603.844 399.641 603.859 399.078C603.844 398.531 604.312 398.078 604.859 398.078C605.406 398.078 605.859 398.531 605.859 399.078C605.859 399.641 605.406 400.094 604.859 400.094ZM611.438 400.172C609.031 400.172 607.562 398.344 607.562 395.797C607.562 393.219 609.094 391.406 611.406 391.406C613.219 391.406 614.562 392.469 614.781 394.078H613.438C613.25 393.297 612.562 392.594 611.438 392.594C609.922 392.594 608.906 393.844 608.906 395.75C608.906 397.719 609.891 398.969 611.438 398.969C612.438 398.969 613.203 398.438 613.438 397.5H614.781C614.562 399.016 613.328 400.172 611.438 400.172ZM619.906 400.172C617.594 400.172 616.031 398.438 616.031 395.797C616.031 393.156 617.594 391.406 619.906 391.406C622.203 391.406 623.75 393.156 623.75 395.797C623.75 398.438 622.203 400.172 619.906 400.172ZM619.906 398.984C621.609 398.984 622.406 397.484 622.406 395.797C622.406 394.109 621.609 392.594 619.906 392.594C618.172 392.594 617.375 394.109 617.375 395.797C617.375 397.484 618.172 398.984 619.906 398.984ZM625.516 400V391.516H626.812V392.844H626.922C627.281 391.938 628.094 391.406 629.203 391.406C630.312 391.406 631.062 391.938 631.469 392.844H631.562C632 391.969 632.891 391.406 634.109 391.406C635.625 391.406 636.703 392.328 636.703 394.328V400H635.359V394.344C635.359 393.094 634.562 392.609 633.641 392.609C632.453 392.609 631.781 393.406 631.781 394.484V400H630.422V394.203C630.422 393.25 629.734 392.609 628.766 392.609C627.75 392.609 626.859 393.469 626.859 394.703V400H625.516Z" fill="#121212"/>
<path d="M654 393C654 390.172 654 388.757 654.879 387.879C655.757 387 657.172 387 660 387H663C665.828 387 667.243 387 668.121 387.879C669 388.757 669 390.172 669 393V398C669 400.828 669 402.243 668.121 403.121C667.243 404 665.828 404 663 404H660C657.172 404 655.757 404 654.879 403.121C654 402.243 654 400.828 654 398V393Z" stroke="#121212" stroke-width="1.5"/>
<path d="M654 401C653.204 401 652.441 400.684 651.879 400.121C651.316 399.559 651 398.796 651 398V392C651 388.229 651 386.343 652.172 385.172C653.344 384.001 655.229 384 659 384H663C663.796 384 664.559 384.316 665.121 384.879C665.684 385.441 666 386.204 666 387" stroke="#121212" stroke-width="1.5"/>
<path d="M724.001 350C718.476 350 714.001 354.475 714.001 360C713.999 362.099 714.659 364.146 715.886 365.849C717.113 367.552 718.846 368.825 720.838 369.488C721.338 369.575 721.526 369.275 721.526 369.012C721.526 368.775 721.513 367.988 721.513 367.15C719.001 367.613 718.351 366.538 718.151 365.975C718.038 365.687 717.551 364.8 717.126 364.562C716.776 364.375 716.276 363.912 717.113 363.9C717.901 363.887 718.463 364.625 718.651 364.925C719.551 366.437 720.988 366.012 721.563 365.75C721.651 365.1 721.913 364.663 722.201 364.413C719.976 364.163 717.651 363.3 717.651 359.475C717.651 358.387 718.038 357.488 718.676 356.788C718.576 356.538 718.226 355.513 718.776 354.138C718.776 354.138 719.613 353.875 721.526 355.162C722.34 354.937 723.181 354.823 724.026 354.825C724.876 354.825 725.726 354.937 726.526 355.162C728.439 353.862 729.276 354.138 729.276 354.138C729.826 355.513 729.476 356.538 729.376 356.788C730.013 357.488 730.401 358.375 730.401 359.475C730.401 363.313 728.064 364.163 725.839 364.413C726.201 364.725 726.514 365.325 726.514 366.263C726.514 367.6 726.501 368.675 726.501 369.013C726.501 369.275 726.689 369.587 727.189 369.487C729.173 368.816 730.898 367.54 732.12 365.838C733.341 364.137 733.999 362.095 734 360C734 354.475 729.525 350 724 350" fill="#121212"/>
<path d="M754.09 357.246C753.545 355.611 752.297 354.574 750.486 354.574C748.236 354.574 746.443 356.35 746.443 359.637C746.443 362.924 748.236 364.699 750.592 364.699C752.745 364.699 754.213 363.258 754.248 361.008H750.926V359.619H755.795V360.99C755.795 364.154 753.615 366.176 750.592 366.176C747.199 366.176 744.914 363.662 744.914 359.637C744.914 355.611 747.217 353.098 750.486 353.098C753.176 353.098 755.25 354.785 755.725 357.246H754.09ZM758.572 366V356.455H760.084V366H758.572ZM759.328 354.873C758.748 354.873 758.273 354.434 758.273 353.871C758.273 353.309 758.748 352.869 759.328 352.869C759.908 352.869 760.4 353.309 760.4 353.871C760.4 354.434 759.908 354.873 759.328 354.873ZM766.658 356.455V357.721H764.654V363.258C764.654 364.488 765.252 364.682 765.902 364.682C766.184 364.682 766.57 364.664 766.799 364.646V366.053C766.57 366.088 766.184 366.123 765.744 366.123C764.479 366.123 763.125 365.332 763.125 363.645V357.721H761.684V356.455H763.125V354.17H764.654V356.455H766.658ZM769.014 366V353.273H770.596V358.934H777.328V353.273H778.928V366H777.328V360.322H770.596V366H769.014ZM787.559 362.08V356.455H789.053V366H787.559V364.383H787.453C786.996 365.35 786.064 366.123 784.623 366.123C782.812 366.123 781.529 364.945 781.529 362.52V356.455H783.041V362.414C783.041 363.785 783.902 364.664 785.115 364.664C786.188 364.664 787.559 363.855 787.559 362.08ZM791.672 366V353.273H793.184V357.967H793.307C793.641 357.457 794.203 356.332 796.066 356.332C798.457 356.332 800.145 358.23 800.145 361.254C800.145 364.277 798.457 366.193 796.084 366.193C794.256 366.193 793.641 365.068 793.307 364.541H793.131V366H791.672ZM793.148 361.219C793.148 363.363 794.115 364.84 795.855 364.84C797.666 364.84 798.615 363.258 798.615 361.219C798.615 359.232 797.701 357.686 795.855 357.686C794.098 357.686 793.148 359.109 793.148 361.219Z" fill="#121212"/>
<path d="M717.797 393.719C717.609 393.016 717.078 392.547 716.078 392.547C715.031 392.547 714.281 393.109 714.281 393.828C714.281 394.391 714.734 394.781 715.734 395.016L717 395.328C718.516 395.688 719.266 396.438 719.266 397.625C719.266 399.094 718.062 400.172 715.938 400.172C714.031 400.172 712.891 399.328 712.672 397.781H714.078C714.234 398.609 714.844 399 715.906 399C717.109 399 717.875 398.5 717.875 397.703C717.875 397.109 717.453 396.703 716.484 396.484L715.203 396.188C713.719 395.844 712.938 395.031 712.938 393.906C712.938 392.453 714.203 391.406 716.078 391.406C717.828 391.406 718.938 392.344 719.109 393.719H717.797ZM724.484 400.172C722.172 400.172 720.609 398.438 720.609 395.797C720.609 393.156 722.172 391.406 724.484 391.406C726.781 391.406 728.328 393.156 728.328 395.797C728.328 398.438 726.781 400.172 724.484 400.172ZM724.484 398.984C726.188 398.984 726.984 397.484 726.984 395.797C726.984 394.109 726.188 392.594 724.484 392.594C722.75 392.594 721.953 394.109 721.953 395.797C721.953 397.484 722.75 398.984 724.484 398.984ZM731.438 394.906V400H730.094V388.688H731.438V392.844H731.547C731.938 391.969 732.703 391.406 734.047 391.406C735.781 391.406 736.938 392.438 736.938 394.609V400H735.594V394.703C735.594 393.375 734.859 392.609 733.641 392.609C732.375 392.609 731.438 393.438 731.438 394.906ZM742.656 400.172C740.203 400.172 738.688 398.438 738.688 395.828C738.688 393.219 740.219 391.406 742.531 391.406C744.312 391.406 746.188 392.5 746.188 395.641V396.203H740.031C740.094 398 741.141 398.984 742.656 398.984C743.672 398.984 744.312 398.547 744.625 398.016H746.062C745.656 399.297 744.406 400.172 742.656 400.172ZM740.047 395.062H744.828C744.828 393.641 743.922 392.594 742.531 392.594C741.062 392.594 740.125 393.75 740.047 395.062ZM751.5 400.172C749.047 400.172 747.531 398.438 747.531 395.828C747.531 393.219 749.062 391.406 751.375 391.406C753.156 391.406 755.031 392.5 755.031 395.641V396.203H748.875C748.938 398 749.984 398.984 751.5 398.984C752.516 398.984 753.156 398.547 753.469 398.016H754.906C754.5 399.297 753.25 400.172 751.5 400.172ZM748.891 395.062H753.672C753.672 393.641 752.766 392.594 751.375 392.594C749.906 392.594 748.969 393.75 748.891 395.062ZM760.766 388.688V400H759.344V390.156H759.281L756.531 391.984V390.562L759.344 388.688H760.766ZM763.781 400L763.766 398.969L767.625 394.906C768.969 393.484 769.609 392.719 769.609 391.672C769.609 390.516 768.625 389.75 767.359 389.75C766.016 389.75 765.156 390.609 765.156 391.875H763.828C763.812 389.875 765.359 388.531 767.406 388.531C769.453 388.531 770.922 389.906 770.922 391.672C770.922 392.938 770.328 393.922 768.328 395.984L765.734 398.656V398.75H771.125V400H763.781ZM777.078 400.156C774.828 400.156 773.219 398.953 773.141 397.156H774.562C774.641 398.234 775.719 398.906 777.062 398.906C778.547 398.906 779.641 398.094 779.641 396.922C779.641 395.688 778.656 394.812 776.891 394.812H775.969V393.578H776.891C778.266 393.578 779.219 392.812 779.219 391.641C779.219 390.516 778.391 389.75 777.109 389.75C775.906 389.75 774.797 390.422 774.734 391.531H773.375C773.453 389.734 775.109 388.531 777.125 388.531C779.281 388.531 780.594 389.938 780.578 391.562C780.594 392.844 779.844 393.797 778.656 394.125V394.203C780.125 394.438 781.031 395.484 781.016 396.922C781.031 398.781 779.328 400.156 777.078 400.156ZM782.766 397.688V396.531L787.859 388.688H789.594V396.453H791.172V397.688H789.594V400H788.25V397.688H782.766ZM784.281 396.453H788.25V390.469H788.109L784.281 396.359V396.453ZM796.719 400.156C794.672 400.156 793.125 398.891 793.047 397.156H794.406C794.516 398.172 795.5 398.922 796.719 398.922C798.188 398.922 799.25 397.844 799.25 396.422C799.25 394.953 798.141 393.875 796.625 393.859C795.672 393.844 794.938 394.141 794.516 394.875H793.156L793.953 388.688H800.078V389.938H795.125L794.703 393.25H794.812C795.312 392.859 796.078 392.594 796.875 392.594C799.031 392.594 800.625 394.188 800.625 396.391C800.625 398.578 798.969 400.156 796.719 400.156Z" fill="#121212"/>
<path d="M816 393C816 390.172 816 388.757 816.879 387.879C817.757 387 819.172 387 822 387H825C827.828 387 829.243 387 830.121 387.879C831 388.757 831 390.172 831 393V398C831 400.828 831 402.243 830.121 403.121C829.243 404 827.828 404 825 404H822C819.172 404 817.757 404 816.879 403.121C816 402.243 816 400.828 816 398V393Z" stroke="#121212" stroke-width="1.5"/>
<path d="M816 401C815.204 401 814.441 400.684 813.879 400.121C813.316 399.559 813 398.796 813 398V392C813 388.229 813 386.343 814.172 385.172C815.344 384.001 817.229 384 821 384H825C825.796 384 826.559 384.316 827.121 384.879C827.684 385.441 828 386.204 828 387" stroke="#121212" stroke-width="1.5"/>
<g clip-path="url(#clip1_243_132)">
<path d="M877 348C875.338 348 874 349.338 874 351V369C874 370.662 875.338 372 877 372H895C896.662 372 898 370.662 898 369V351C898 349.338 896.662 348 895 348H877ZM883.883 354.25C884.513 354.25 884.888 354.55 885.008 355.15L886.471 363.453C886.936 362.838 887.318 362.32 887.617 361.9C888.115 361.184 888.544 360.423 888.9 359.627C889.305 358.772 889.508 358.007 889.508 357.332C889.508 356.927 889.395 356.605 889.17 356.365C888.96 356.11 888.562 355.788 887.977 355.398C888.577 354.633 889.327 354.25 890.227 354.25C890.707 354.25 891.105 354.393 891.42 354.678C891.75 354.963 891.915 355.383 891.914 355.938C891.914 356.868 891.524 358.031 890.744 359.426C889.979 360.806 888.502 362.883 886.313 365.658L884.086 365.814L882.375 356.186H880.125V355.24C880.725 355.045 881.43 354.835 882.24 354.61C883.05 354.37 883.598 354.25 883.883 354.25Z" fill="black"/>
</g>
<path d="M915.07 356.455L911.537 366H909.973L906.457 356.455H908.109L910.711 364.031H910.816L913.418 356.455H915.07ZM920.396 366.193C917.637 366.193 915.932 364.242 915.932 361.307C915.932 358.371 917.654 356.332 920.256 356.332C922.26 356.332 924.369 357.562 924.369 361.096V361.729H917.443C917.514 363.75 918.691 364.857 920.396 364.857C921.539 364.857 922.26 364.365 922.611 363.768H924.229C923.771 365.209 922.365 366.193 920.396 366.193ZM917.461 360.445H922.84C922.84 358.846 921.82 357.668 920.256 357.668C918.604 357.668 917.549 358.969 917.461 360.445ZM927.85 353.273V366H926.338V353.273H927.85ZM934.16 366.193C931.559 366.193 929.801 364.242 929.801 361.271C929.801 358.301 931.559 356.332 934.16 356.332C936.744 356.332 938.484 358.301 938.484 361.271C938.484 364.242 936.744 366.193 934.16 366.193ZM934.16 364.857C936.076 364.857 936.973 363.17 936.973 361.271C936.973 359.373 936.076 357.668 934.16 357.668C932.209 357.668 931.312 359.373 931.312 361.271C931.312 363.17 932.209 364.857 934.16 364.857ZM944.338 369.779C942.035 369.779 940.471 368.777 940.295 367.002H941.877C942.088 367.969 942.984 368.461 944.338 368.461C945.973 368.461 946.975 367.758 946.975 366.176V364.242H946.852C946.535 364.77 945.92 365.859 944.074 365.859C941.754 365.859 940.014 364.102 940.014 361.096C940.014 358.16 941.701 356.332 944.092 356.332C945.938 356.332 946.535 357.457 946.887 357.967H947.01V356.455H948.486V366.264C948.486 368.725 946.658 369.779 944.338 369.779ZM944.285 364.506C946.025 364.506 947.01 363.258 947.01 361.148C947.01 359.109 946.061 357.686 944.285 357.686C942.457 357.686 941.543 359.232 941.543 361.148C941.543 363.135 942.475 364.506 944.285 364.506Z" fill="#121212"/>
<path d="M882.062 391.516L878.922 400H877.531L874.406 391.516H875.875L878.188 398.25H878.281L880.594 391.516H882.062ZM886.797 400.172C884.344 400.172 882.828 398.438 882.828 395.828C882.828 393.219 884.359 391.406 886.672 391.406C888.453 391.406 890.328 392.5 890.328 395.641V396.203H884.172C884.234 398 885.281 398.984 886.797 398.984C887.812 398.984 888.453 398.547 888.766 398.016H890.203C889.797 399.297 888.547 400.172 886.797 400.172ZM884.188 395.062H888.969C888.969 393.641 888.062 392.594 886.672 392.594C885.203 392.594 884.266 393.75 884.188 395.062ZM893.422 388.688V400H892.078V388.688H893.422ZM899.031 400.172C896.719 400.172 895.156 398.438 895.156 395.797C895.156 393.156 896.719 391.406 899.031 391.406C901.328 391.406 902.875 393.156 902.875 395.797C902.875 398.438 901.328 400.172 899.031 400.172ZM899.031 398.984C900.734 398.984 901.531 397.484 901.531 395.797C901.531 394.109 900.734 392.594 899.031 392.594C897.297 392.594 896.5 394.109 896.5 395.797C896.5 397.484 897.297 398.984 899.031 398.984ZM908.078 403.359C906.031 403.359 904.641 402.469 904.484 400.891H905.891C906.078 401.75 906.875 402.188 908.078 402.188C909.531 402.188 910.422 401.562 910.422 400.156V398.438H910.312C910.031 398.906 909.484 399.875 907.844 399.875C905.781 399.875 904.234 398.312 904.234 395.641C904.234 393.031 905.734 391.406 907.859 391.406C909.5 391.406 910.031 392.406 910.344 392.859H910.453V391.516H911.766V400.234C911.766 402.422 910.141 403.359 908.078 403.359ZM908.031 398.672C909.578 398.672 910.453 397.562 910.453 395.688C910.453 393.875 909.609 392.609 908.031 392.609C906.406 392.609 905.594 393.984 905.594 395.688C905.594 397.453 906.422 398.672 908.031 398.672ZM914.859 400.094C914.312 400.094 913.844 399.641 913.859 399.078C913.844 398.531 914.312 398.078 914.859 398.078C915.406 398.078 915.859 398.531 915.859 399.078C915.859 399.641 915.406 400.094 914.859 400.094ZM917.969 400V391.516H919.312V400H917.969ZM918.641 390.109C918.125 390.109 917.703 389.719 917.703 389.219C917.703 388.719 918.125 388.328 918.641 388.328C919.156 388.328 919.594 388.719 919.594 389.219C919.594 389.719 919.156 390.109 918.641 390.109ZM924.922 400.172C922.609 400.172 921.047 398.438 921.047 395.797C921.047 393.156 922.609 391.406 924.922 391.406C927.219 391.406 928.766 393.156 928.766 395.797C928.766 398.438 927.219 400.172 924.922 400.172ZM924.922 398.984C926.625 398.984 927.422 397.484 927.422 395.797C927.422 394.109 926.625 392.594 924.922 392.594C923.188 392.594 922.391 394.109 922.391 395.797C922.391 397.484 923.188 398.984 924.922 398.984ZM934.562 388.156L930.906 401.703H929.688L933.328 388.156H934.562ZM941.469 398.516C939.906 398.516 938.766 397.25 938.766 395.219C938.766 393.203 939.922 391.938 941.484 391.938C942.609 391.938 943.078 392.656 943.266 393.016H943.344V392.062H944.531V396.625C944.547 397.234 944.812 397.531 945.312 397.531C946.281 397.531 946.922 396.406 946.938 394.781C946.953 391.828 944.812 389.906 941.828 389.906C938.734 389.922 936.734 392.312 936.734 395.219C936.734 398.391 938.469 400.578 941.766 400.547C942.859 400.531 943.578 400.469 944.531 400.203V401.266C943.719 401.484 942.797 401.625 941.766 401.625C937.953 401.625 935.609 399.188 935.609 395.219C935.594 391.531 938.188 388.828 941.828 388.828C945.562 388.828 948.078 391.375 948.062 394.734C948.062 397.156 946.812 398.578 945.234 398.578C944.25 398.578 943.508 398.023 943.453 397.297H943.344C943.156 397.641 942.688 398.516 941.469 398.516ZM941.672 397.375C942.781 397.375 943.344 396.5 943.359 395.203C943.344 393.938 942.797 393.078 941.672 393.078C940.578 393.078 939.984 394.016 939.984 395.203C939.984 396.422 940.594 397.375 941.672 397.375ZM951.859 400L949.281 391.516H950.703L952.516 397.984H952.594L954.391 391.516H955.828L957.594 397.953H957.688L959.5 391.516H960.906L958.328 400H957L955.156 393.531H955.031L953.203 400H951.859ZM963.734 394.906V400H962.391V388.688H963.734V392.844H963.844C964.234 391.969 965 391.406 966.344 391.406C968.078 391.406 969.234 392.438 969.234 394.609V400H967.891V394.703C967.891 393.375 967.156 392.609 965.938 392.609C964.672 392.609 963.734 393.438 963.734 394.906ZM970.984 397.594C970.984 395.641 972.703 395.203 974.172 395.094C974.711 395.055 976.086 394.984 976.469 394.969V394.281C976.469 393.203 975.828 392.578 974.547 392.578C973.469 392.578 972.828 393.078 972.641 393.719H971.234C971.406 392.359 972.734 391.406 974.609 391.406C975.719 391.406 977.797 391.734 977.797 394.406V400H976.469V398.844H976.406C976.125 399.422 975.344 400.203 973.875 400.203C972.266 400.203 970.984 399.25 970.984 397.594ZM972.328 397.656C972.328 398.547 973.078 399 974.109 399C975.625 399 976.469 397.984 976.469 396.922V396.062C976.07 396.094 974.734 396.195 974.328 396.219C973.109 396.297 972.328 396.734 972.328 397.656ZM983.656 391.516V392.641H981.875V397.562C981.875 398.656 982.406 398.828 982.984 398.828C983.234 398.828 983.578 398.812 983.781 398.797V400.047C983.578 400.078 983.234 400.109 982.844 400.109C981.719 400.109 980.516 399.406 980.516 397.906V392.641H979.234V391.516H980.516V389.484H981.875V391.516H983.656ZM988.859 400.172C986.406 400.172 984.891 398.438 984.891 395.828C984.891 393.219 986.422 391.406 988.734 391.406C990.516 391.406 992.391 392.5 992.391 395.641V396.203H986.234C986.297 398 987.344 398.984 988.859 398.984C989.875 398.984 990.516 398.547 990.828 398.016H992.266C991.859 399.297 990.609 400.172 988.859 400.172ZM986.25 395.062H991.031C991.031 393.641 990.125 392.594 988.734 392.594C987.266 392.594 986.328 393.75 986.25 395.062ZM1000.86 391.516L997.719 400H996.328L993.203 391.516H994.672L996.984 398.25H997.078L999.391 391.516H1000.86ZM1005.59 400.172C1003.14 400.172 1001.62 398.438 1001.62 395.828C1001.62 393.219 1003.16 391.406 1005.47 391.406C1007.25 391.406 1009.12 392.5 1009.12 395.641V396.203H1002.97C1003.03 398 1004.08 398.984 1005.59 398.984C1006.61 398.984 1007.25 398.547 1007.56 398.016H1009C1008.59 399.297 1007.34 400.172 1005.59 400.172ZM1002.98 395.062H1007.77C1007.77 393.641 1006.86 392.594 1005.47 392.594C1004 392.594 1003.06 393.75 1002.98 395.062ZM1010.88 400V391.516H1012.17V392.812H1012.27C1012.58 391.953 1013.45 391.375 1014.45 391.375C1014.66 391.375 1015 391.391 1015.16 391.406V392.766C1015.06 392.734 1014.69 392.672 1014.34 392.672C1013.12 392.672 1012.22 393.516 1012.22 394.656V400H1010.88ZM1019.97 388.156L1016.31 401.703H1015.09L1018.73 388.156H1019.97ZM1021.28 403.188V391.516H1022.58V392.859H1022.73C1023.02 392.406 1023.55 391.406 1025.19 391.406C1027.31 391.406 1028.8 393.094 1028.8 395.781C1028.8 398.469 1027.31 400.172 1025.2 400.172C1023.58 400.172 1023.02 399.172 1022.73 398.703H1022.62V403.188H1021.28ZM1022.59 395.75C1022.59 397.656 1023.45 398.969 1025.02 398.969C1026.62 398.969 1027.45 397.562 1027.45 395.75C1027.45 393.984 1026.64 392.609 1025.02 392.609C1023.42 392.609 1022.59 393.875 1022.59 395.75ZM1034.02 400.172C1031.7 400.172 1030.14 398.438 1030.14 395.797C1030.14 393.156 1031.7 391.406 1034.02 391.406C1036.31 391.406 1037.86 393.156 1037.86 395.797C1037.86 398.438 1036.31 400.172 1034.02 400.172ZM1034.02 398.984C1035.72 398.984 1036.52 397.484 1036.52 395.797C1036.52 394.109 1035.72 392.594 1034.02 392.594C1032.28 392.594 1031.48 394.109 1031.48 395.797C1031.48 397.484 1032.28 398.984 1034.02 398.984ZM1044.34 393.719C1044.16 393.016 1043.62 392.547 1042.62 392.547C1041.58 392.547 1040.83 393.109 1040.83 393.828C1040.83 394.391 1041.28 394.781 1042.28 395.016L1043.55 395.328C1045.06 395.688 1045.81 396.438 1045.81 397.625C1045.81 399.094 1044.61 400.172 1042.48 400.172C1040.58 400.172 1039.44 399.328 1039.22 397.781H1040.62C1040.78 398.609 1041.39 399 1042.45 399C1043.66 399 1044.42 398.5 1044.42 397.703C1044.42 397.109 1044 396.703 1043.03 396.484L1041.75 396.188C1040.27 395.844 1039.48 395.031 1039.48 393.906C1039.48 392.453 1040.75 391.406 1042.62 391.406C1044.38 391.406 1045.48 392.344 1045.66 393.719H1044.34ZM1051.27 391.516V392.641H1049.48V397.562C1049.48 398.656 1050.02 398.828 1050.59 398.828C1050.84 398.828 1051.19 398.812 1051.39 398.797V400.047C1051.19 400.078 1050.84 400.109 1050.45 400.109C1049.33 400.109 1048.12 399.406 1048.12 397.906V392.641H1046.84V391.516H1048.12V389.484H1049.48V391.516H1051.27ZM1057.56 393.719C1057.38 393.016 1056.84 392.547 1055.84 392.547C1054.8 392.547 1054.05 393.109 1054.05 393.828C1054.05 394.391 1054.5 394.781 1055.5 395.016L1056.77 395.328C1058.28 395.688 1059.03 396.438 1059.03 397.625C1059.03 399.094 1057.83 400.172 1055.7 400.172C1053.8 400.172 1052.66 399.328 1052.44 397.781H1053.84C1054 398.609 1054.61 399 1055.67 399C1056.88 399 1057.64 398.5 1057.64 397.703C1057.64 397.109 1057.22 396.703 1056.25 396.484L1054.97 396.188C1053.48 395.844 1052.7 395.031 1052.7 393.906C1052.7 392.453 1053.97 391.406 1055.84 391.406C1057.59 391.406 1058.7 392.344 1058.88 393.719H1057.56Z" fill="#121212"/>
<path d="M1074 393C1074 390.172 1074 388.757 1074.88 387.879C1075.76 387 1077.17 387 1080 387H1083C1085.83 387 1087.24 387 1088.12 387.879C1089 388.757 1089 390.172 1089 393V398C1089 400.828 1089 402.243 1088.12 403.121C1087.24 404 1085.83 404 1083 404H1080C1077.17 404 1075.76 404 1074.88 403.121C1074 402.243 1074 400.828 1074 398V393Z" stroke="#121212" stroke-width="1.5"/>
<path d="M1074 401C1073.2 401 1072.44 400.684 1071.88 400.121C1071.32 399.559 1071 398.796 1071 398V392C1071 388.229 1071 386.343 1072.17 385.172C1073.34 384.001 1075.23 384 1079 384H1083C1083.8 384 1084.56 384.316 1085.12 384.879C1085.68 385.441 1086 386.204 1086 387" stroke="#121212" stroke-width="1.5"/>
<circle cx="1241" cy="-2" r="219" stroke="#DBDBDB" stroke-width="6"/>
<circle cx="1241" cy="-2" r="126" stroke="#DBDBDB" stroke-width="6"/>
<circle cx="12" cy="536" r="219" stroke="#DBDBDB" stroke-width="6"/>
<circle cx="12" cy="536" r="126" stroke="#DBDBDB" stroke-width="6"/>
</g>
<defs>
<clipPath id="clip0_243_132">
<rect width="1180" height="468" fill="white"/>
</clipPath>
<clipPath id="clip1_243_132">
<rect width="24" height="24" fill="white" transform="translate(874 348)"/>
</clipPath>
</defs>
</svg>
