<svg width="352" height="249" viewBox="0 0 352 249" fill="none" xmlns="http://www.w3.org/2000/svg">
<path d="M317.134 109.754C317.363 110.018 316.043 109.754 335.245 113.151V112.042L318.032 108.61C294.993 82.3336 263.102 72.7416 227.902 73.7624C225.262 64.9624 212.854 23.796 210.637 18.0936C208.173 11.7576 203.966 8.80078 197.401 8.80078C191.224 8.80078 100.601 33.0888 95.3214 34.5496C85.307 37.2424 54.3486 44.916 33.7214 50.2312C14.0798 55.3176 16.2446 67.8488 17.5998 75.3288C25.1678 117.921 43.1198 180.77 72.019 247.369C69.2798 255.794 68.1922 264.668 68.8158 273.505C71.2446 306.558 96.7822 330.388 123.059 337.674L124.96 343.201H126.843C124.537 336.882 124.696 336.372 123.957 336.161C96.7998 328.364 73.4622 304.041 70.963 273.329C69.203 251.206 79.763 228.185 94.7758 214.545C99.2638 210.497 108.856 203.985 112.041 209.054C98.1726 231.177 88.3694 256.415 86.0638 274.086C87.2743 273.883 88.5172 274.023 89.6524 274.489C90.7875 274.956 91.7696 275.73 92.4878 276.726C92.875 277.254 92.7166 278.292 91.8366 277.412C91.1768 276.801 90.4 276.33 89.5529 276.027C88.7059 275.725 87.8064 275.597 86.9086 275.652C86.7433 275.671 86.5834 275.723 86.4383 275.804C86.2932 275.886 86.1659 275.996 86.0638 276.127C85.5182 276.884 86.0638 278.01 86.7854 278.626C88.2843 279.756 90.0719 280.439 91.9422 280.598C92.2405 280.621 92.5402 280.573 92.8159 280.457C93.0916 280.34 93.3352 280.159 93.5262 279.929C99.2463 272.855 104.407 265.346 108.961 257.471C110.96 264.343 113.992 270.872 117.955 276.831L114.4 283.361C114.38 283.393 114.367 283.429 114.361 283.466C114.356 283.504 114.357 283.542 114.366 283.579C114.375 283.616 114.391 283.65 114.414 283.681C114.436 283.711 114.464 283.737 114.497 283.757C114.529 283.776 114.565 283.789 114.602 283.795C114.64 283.801 114.678 283.799 114.715 283.79C114.751 283.781 114.786 283.765 114.817 283.743C114.847 283.72 114.873 283.692 114.893 283.66L119.68 277.201C119.744 277.101 119.779 276.985 119.779 276.866C119.779 276.748 119.744 276.632 119.68 276.532C116.913 272.437 114.556 268.081 112.64 263.526C110.789 259.023 109.414 254.34 108.539 249.551C102.678 214.844 141.205 235.049 150.497 283.766C154.968 306.998 148.35 320.726 148.35 321.852C148.358 321.937 148.394 322.018 148.452 322.081C148.51 322.143 148.588 322.185 148.672 322.199C148.757 322.213 148.844 322.199 148.919 322.158C148.995 322.118 149.054 322.053 149.089 321.975C152.882 311.219 154.087 299.721 152.609 288.412C155.46 288.538 158.314 288.235 161.075 287.514C163.768 294.554 164.384 300.908 161.691 308.177C161.633 308.285 161.602 308.406 161.602 308.529C161.602 308.652 161.633 308.773 161.691 308.881L185.68 343.201H187.88L163.117 308.353C163.454 307.506 163.748 306.643 163.997 305.766C163.997 305.766 209.757 292.9 221.813 288.817C229.574 286.177 261.501 275.916 272.36 272.466C283.729 268.858 288.499 265.62 290.541 260.146C292.582 254.673 289.537 247.017 282.585 229.927C278.907 220.863 259.705 169.577 258.509 166.567C269.069 166.374 283.289 161.111 291.949 155.62L335.174 177.321V175.561L291.931 153.015C285.313 156.852 274.982 163.769 258.209 165.687C247.544 137.298 249.075 142.42 243.267 123.94C245.696 123.658 248.142 123.306 250.553 122.919L265.109 134.113C265.188 134.178 265.29 134.209 265.392 134.199C265.495 134.189 265.589 134.139 265.654 134.06C265.72 133.981 265.751 133.879 265.741 133.776C265.731 133.674 265.681 133.58 265.601 133.514L251.31 121.441C250.765 121.001 250.589 121.441 242.792 122.11C234.309 122.972 215.107 124.01 208.313 118.924C204.793 116.178 205.55 112.711 208.56 109.332C220.88 96.0616 256.59 91.2392 275.792 90.5704C275.838 90.5816 275.887 90.5821 275.934 90.5718C275.981 90.5616 276.024 90.5409 276.062 90.5112C276.1 90.4816 276.13 90.4438 276.151 90.4007C276.172 90.3576 276.183 90.3103 276.183 90.2624C276.183 90.2145 276.172 90.1672 276.151 90.1241C276.13 90.081 276.1 90.0432 276.062 90.0135C276.024 89.9839 275.981 89.9631 275.934 89.9529C275.887 89.9427 275.838 89.9432 275.792 89.9544C261.832 89.9711 247.931 91.7451 234.414 95.2344C232.373 88.5464 230.278 81.6648 228.237 74.9064C293.374 75.2936 313.069 107.15 317.134 109.754ZM35.0942 55.2824C56.7598 49.6856 178.2 17.8648 194.656 14.468C196.87 13.8268 199.231 13.907 201.397 14.6968C204.125 15.8584 205.286 18.4632 206.677 22.3704C169.329 30.5016 47.5198 62.5864 22.1406 70.788C21.3662 64.5224 22.4398 58.556 35.0942 55.2824ZM22.1934 71.1224C39.1774 65.8424 97.0638 50.6008 114.347 46.0776C184.589 27.5624 206.694 22.6872 206.729 22.6696C207.733 25.6792 209.246 30.4664 211.077 36.4152C176.352 43.2792 56.1966 75.8568 24.9742 85.6952C24.0766 81.612 22.6686 74.748 22.1934 71.1576V71.1224ZM25.0622 86.012C48.1006 78.972 178.728 43.3672 211.182 36.732C212.942 42.5224 215.072 49.404 217.307 56.7784C190.467 62.516 59.1886 97.012 29.8142 106.058C27.8606 98.2616 26.2414 91.3624 25.0622 86.0472V86.012ZM112.64 208.174C108.715 202.753 98.9998 209.054 93.8782 213.454C88.8315 217.931 84.4411 223.098 80.8366 228.801C77.8974 227.745 75.4334 221.761 72.7934 215.214C68.9887 206.047 65.7903 196.64 63.219 187.054C62.515 183.974 62.4094 181.598 64.8734 179.538C67.883 176.969 80.7134 172.85 84.4974 171.636C91.7134 169.313 99.8446 167.412 107.219 165.775C110.141 165.142 113.256 165.212 114.998 167.078C117.585 169.788 122.285 183.551 124.942 191.295C122.021 194.815 119.187 198.494 116.477 202.401C110.221 198.4 103.554 195.084 96.5886 192.51C98.3486 189.412 105.776 176.089 108.099 171.759C108.153 171.666 108.167 171.555 108.139 171.451C108.111 171.347 108.043 171.258 107.949 171.205C107.856 171.151 107.745 171.137 107.641 171.165C107.537 171.193 107.449 171.261 107.395 171.354C102.52 178.694 98.507 185.206 94.811 191.823C86.099 188.602 78.971 186.543 70.787 184.326C70.6843 184.291 70.5719 184.298 70.4746 184.346C70.3772 184.393 70.3028 184.478 70.2678 184.581C70.2328 184.683 70.24 184.796 70.2879 184.893C70.3358 184.991 70.4203 185.065 70.523 185.1C76.1374 187.318 86.0814 190.574 93.8606 193.513C89.2442 201.791 85.3801 210.468 82.315 219.438C82.2951 219.531 82.3086 219.628 82.3532 219.712C82.3978 219.796 82.4707 219.862 82.559 219.898C82.6472 219.933 82.7453 219.937 82.8359 219.907C82.9265 219.878 83.0038 219.818 83.0542 219.737C89.4782 205.798 94.8462 195.748 95.6734 194.199C102.585 196.777 109.277 199.908 115.685 203.562C114.629 205.006 113.608 206.572 112.64 208.174ZM121.44 232.409C122.214 230.561 122.971 228.713 123.693 226.865C128.515 227.058 138.054 227.833 140.659 231.916C143.264 235.999 137.825 240.206 132.915 241.807C129.783 237.912 125.875 234.712 121.44 232.409ZM134.182 243.356C140.817 244.588 156.358 247.439 157.502 254.11C158.417 259.143 150.849 262.012 145.393 262.61C142.511 255.742 138.761 249.272 134.235 243.356H134.182ZM152.31 287.462C151.419 280.651 149.766 273.962 147.382 267.521C153.718 269.791 168.379 276.321 166.249 282.534C164.877 286.599 157.045 287.532 152.363 287.462H152.31ZM285.595 258.281C284.433 261.414 281.529 264.054 270.723 267.486C216.057 284.839 219.243 284.874 164.806 300.098C164.939 295.619 163.863 291.187 161.691 287.268C162.888 286.985 164.007 286.438 164.966 285.668C165.925 284.897 166.7 283.923 167.235 282.815C169.769 275.529 153.894 268.735 146.766 265.972C146.045 264.071 145.904 263.807 145.781 263.508C151.817 262.646 159.368 259.442 158.417 253.969C158.29 253.229 158.027 252.519 157.643 251.874C157.643 251.874 267.766 219.297 272.342 218.135C280.649 239.678 287.39 253.564 285.648 258.281H285.595ZM207.803 108.681C203.209 113.838 205.568 117.094 205.55 117.322C206.098 118.241 206.821 119.043 207.68 119.681C208.902 120.653 210.26 121.441 211.71 122.022C184.8 130.241 67.3726 164.033 66.8798 164.191C60.403 165.951 56.1262 167.218 52.7998 157.785C59.8398 149.601 83.2654 122.338 87.9998 118.959C89.6675 117.713 91.6908 117.034 93.7726 117.023C101.041 116.812 137.966 134.201 144.425 131.103C148.861 128.956 164.225 104.809 164.384 104.58C175.384 87.6312 173.958 88.5992 199.003 92.6824C204.582 93.5976 212.203 94.8296 222.112 96.396L222.869 99.124C217.184 101.394 211.464 104.58 207.856 108.663L207.803 108.681ZM52.2894 156.641C49.2798 147.841 41.1486 121.81 41.6238 117.921C41.836 116.527 42.4477 115.225 43.3849 114.173C44.322 113.12 45.5444 112.362 46.9038 111.99C52.7294 110.353 204.881 68.764 209.053 68.764C212.379 68.764 213.664 70.524 214.931 73.7448C217.567 80.8303 219.846 88.0436 221.76 95.3576C184.8 89.268 181.931 88.0536 176.721 89.268C172.339 90.2888 170.385 92.788 163.169 103.753C157.766 112.095 146.749 128.287 143.809 129.748C141.275 130.98 139.92 130.558 132.44 128.217C122.865 125.207 117.638 123.518 106.48 119.1C99.7566 116.425 93.2094 113.521 87.1198 117.833C81.5758 121.863 56.6718 151.361 52.2894 156.641ZM229.381 96.6424C227.621 97.2056 225.737 97.8568 223.854 98.6136C221.64 90.0783 218.961 81.6705 215.829 73.428C214.403 69.908 212.819 67.884 208.982 67.8312C206.853 67.8312 115.174 91.5208 46.5694 111.057C45.0298 111.492 43.6476 112.361 42.5869 113.559C41.5261 114.757 40.8315 116.234 40.5854 117.815C39.987 122.338 47.907 147.735 51.5502 157.574C55.827 169.119 60.5438 166.831 68.8686 164.614C103.312 155.638 177.989 133.743 213.312 122.655C220.915 125.19 230.014 124.996 237.952 124.415C240.891 133.831 243.232 141.047 244.499 144.25C246.84 150.217 267.96 206.519 272.272 217.783C263.912 219.86 259.758 221.198 157.502 251.558C153.718 245.714 141.873 242.916 134.851 242.071C138.741 240.311 142.507 237.495 142.243 233.271C141.979 229.047 135.397 227.34 133.249 226.812C130.28 226.121 127.25 225.72 124.203 225.615C128.419 214.897 131.499 203.765 133.39 192.404C133.901 189.183 128.462 187.124 126.72 189.06L125.206 190.82C121.105 178.676 117.515 168.802 115.192 166.321C113.432 164.332 109.771 164.719 107.096 165.124C97.8734 166.567 69.9598 174.258 64.4686 178.905C62.5678 180.788 61.4942 182.196 62.603 187.036C65.1339 196.713 68.327 206.204 72.1598 215.442C74.2542 220.564 77.1934 228.044 80.5022 229.241C78.2618 232.781 76.2965 236.488 74.6238 240.329C57.8862 202.172 46.4638 173.449 29.8846 106.569C57.1822 98.2792 195.782 61.988 217.395 57.2888C218.909 62.0936 227.04 88.6696 229.381 96.6424Z" fill="white"/>
<path d="M134.499 182.513C133.197 182.038 130.592 186.033 129.941 187.142C129.923 187.17 129.912 187.202 129.909 187.234C129.906 187.267 129.911 187.301 129.923 187.331C129.935 187.362 129.954 187.39 129.978 187.412C130.003 187.434 130.032 187.45 130.064 187.459C131.059 187.685 131.991 188.13 132.792 188.761C132.812 188.784 132.836 188.802 132.864 188.814C132.891 188.826 132.921 188.833 132.951 188.833C132.98 188.833 133.01 188.826 133.037 188.814C133.065 188.802 133.089 188.784 133.109 188.761C133.655 187.599 135.802 183.041 134.499 182.513ZM39.4241 72.6363C36.0331 73.2998 32.7473 74.4187 29.6561 75.9627C30.6801 74.3921 31.6031 72.7578 32.4193 71.0699C32.4342 71.031 32.4348 70.9881 32.421 70.9489C32.4073 70.9096 32.38 70.8764 32.3441 70.8553C32.3083 70.8342 32.2661 70.8265 32.2251 70.8336C32.1841 70.8407 32.1469 70.862 32.1201 70.8939C30.9627 72.6297 29.922 74.4407 29.0049 76.3147C28.7057 76.9483 33.9329 78.3915 34.6193 78.4971C34.6563 78.4971 34.6923 78.4855 34.7222 78.4639C34.7522 78.4423 34.7746 78.4118 34.7863 78.3767C34.798 78.3417 34.7983 78.3039 34.7873 78.2686C34.7763 78.2334 34.7545 78.2025 34.7249 78.1803C33.1393 77.4006 31.4676 76.8099 29.7441 76.4203C32.9169 75.082 36.174 73.9532 39.4945 73.0411C39.8113 72.8475 39.7233 72.5835 39.4241 72.6363ZM57.8689 67.8843C55.9074 66.8367 53.8652 65.948 51.7617 65.2267C51.7215 65.2167 51.6791 65.2212 51.6419 65.2393C51.6048 65.2575 51.5751 65.2882 51.5583 65.326C51.5415 65.3638 51.5386 65.4064 51.55 65.4461C51.5615 65.4859 51.5866 65.5204 51.6209 65.5435C53.3198 66.4699 55.0845 67.2699 56.9009 67.9371C53.5394 68.2621 50.2463 69.0928 47.1329 70.4011C47.0986 70.4242 47.0735 70.4587 47.062 70.4984C47.0506 70.5382 47.0535 70.5808 47.0703 70.6186C47.0871 70.6564 47.1168 70.6871 47.1539 70.7053C47.1911 70.7234 47.2335 70.7279 47.2737 70.7179C49.5969 69.9787 52.9585 69.3275 57.3233 68.4299C56.1901 69.8033 55.1829 71.2759 54.3137 72.8299C54.3024 72.8686 54.3035 72.9099 54.3168 72.948C54.3301 72.9861 54.355 73.019 54.3879 73.0423C54.4209 73.0656 54.4603 73.078 54.5006 73.0777C54.5409 73.0775 54.5802 73.0647 54.6129 73.0411C55.8729 71.5496 56.9868 69.9407 57.9393 68.2363C57.9655 68.2117 57.9851 68.1809 57.9961 68.1466C58.007 68.1124 58.0091 68.076 58.0021 68.0407C57.995 68.0055 57.9791 67.9726 57.9558 67.9452C57.9325 67.9178 57.9026 67.8969 57.8689 67.8843ZM73.5857 65.5611C73.5305 66.593 73.105 67.5705 72.3873 68.314C71.6696 69.0576 70.7079 69.5174 69.6785 69.6091C68.6896 69.6869 67.7032 69.431 66.8768 68.8823C66.0505 68.3335 65.432 67.5236 65.1201 66.5819C64.8601 65.612 64.9511 64.5815 65.3771 63.6723C65.803 62.763 66.5365 62.0335 67.4481 61.6124C68.3596 61.1914 69.3906 61.1059 70.359 61.3711C71.3275 61.6363 72.1711 62.2352 72.7409 63.0619C71.8893 63.0209 71.0357 63.0503 70.1889 63.1499C70.1422 63.1499 70.0975 63.1684 70.0645 63.2014C70.0315 63.2344 70.0129 63.2792 70.0129 63.3259C70.0129 63.3726 70.0315 63.4173 70.0645 63.4503C70.0975 63.4834 70.1422 63.5019 70.1889 63.5019C71.1658 63.6069 72.1512 63.6069 73.1281 63.5019C73.1667 63.493 73.202 63.4734 73.23 63.4454C73.258 63.4174 73.2776 63.3821 73.2865 63.3435C73.5061 62.3263 73.5596 61.2802 73.4449 60.2459C73.4449 60.1992 73.4264 60.1545 73.3934 60.1214C73.3604 60.0884 73.3156 60.0699 73.2689 60.0699C73.2222 60.0699 73.1775 60.0884 73.1445 60.1214C73.1115 60.1545 73.0929 60.1992 73.0929 60.2459C72.9157 61.0604 72.8505 61.8953 72.8993 62.7275C69.6785 58.0811 62.9729 61.9179 64.4513 66.9163C66.0529 72.5307 74.5889 71.0875 73.9553 65.6843C73.9716 65.6353 73.9678 65.5818 73.9447 65.5356C73.9216 65.4894 73.8811 65.4542 73.8321 65.4379C73.7831 65.4216 73.7296 65.4254 73.6834 65.4485C73.6372 65.4716 73.6021 65.5121 73.5857 65.5611ZM32.9297 59.8411C32.4772 59.8411 32.0348 59.9753 31.6586 60.2267C31.2823 60.4781 30.989 60.8354 30.8159 61.2535C30.6427 61.6716 30.5974 62.1316 30.6857 62.5755C30.774 63.0193 30.9919 63.427 31.3119 63.747C31.6318 64.0669 32.0395 64.2848 32.4833 64.3731C32.9272 64.4614 33.3872 64.4161 33.8053 64.2429C34.2234 64.0698 34.5807 63.7765 34.8321 63.4002C35.0835 63.024 35.2177 62.5816 35.2177 62.1291C35.2177 61.5223 34.9767 60.9403 34.5476 60.5112C34.1185 60.0821 33.5365 59.8411 32.9297 59.8411ZM41.0081 57.4123C40.5556 57.4123 40.1132 57.5465 39.737 57.7979C39.3607 58.0493 39.0674 58.4066 38.8943 58.8247C38.7211 59.2428 38.6758 59.7028 38.7641 60.1467C38.8524 60.5905 39.0703 60.9982 39.3903 61.3182C39.7102 61.6381 40.1179 61.856 40.5617 61.9443C41.0056 62.0326 41.4656 61.9873 41.8837 61.8141C42.3018 61.641 42.6591 61.3477 42.9105 60.9714C43.1619 60.5952 43.2961 60.1528 43.2961 59.7003C43.2961 59.0935 43.0551 58.5115 42.626 58.0824C42.1969 57.6534 41.6149 57.4123 41.0081 57.4123ZM49.1041 55.0363C48.6516 55.0363 48.2092 55.1705 47.833 55.4219C47.4567 55.6733 47.1634 56.0306 46.9903 56.4487C46.8171 56.8668 46.7718 57.3268 46.8601 57.7707C46.9484 58.2145 47.1663 58.6222 47.4862 58.9422C47.8062 59.2621 48.2139 59.48 48.6577 59.5683C49.1016 59.6566 49.5616 59.6113 49.9797 59.4381C50.3978 59.265 50.7551 58.9717 51.0065 58.5954C51.2579 58.2192 51.3921 57.7768 51.3921 57.3243C51.3921 56.7175 51.1511 56.1355 50.722 55.7064C50.2929 55.2773 49.7109 55.0363 49.1041 55.0363ZM201.115 27.4043C199.743 27.4043 97.3985 53.4171 88.8625 55.7051C83.5825 57.1307 82.3681 57.2363 81.3121 58.9963C80.9275 59.6182 80.717 60.332 80.7026 61.063C80.6881 61.7941 80.8703 62.5156 81.2299 63.1523C81.5896 63.7889 82.1136 64.3173 82.7473 64.6822C83.3809 65.0471 84.101 65.2351 84.8321 65.2267C86.2156 65.0494 87.574 64.7128 88.8801 64.2235C111.355 58.0811 199.971 36.0635 201.063 35.8523C201.769 35.7687 202.449 35.5336 203.057 35.163C203.664 34.7925 204.185 34.2952 204.583 33.7051C204.959 33.0814 205.166 32.3696 205.18 31.641C205.195 30.9125 205.018 30.1929 204.667 29.5545C204.315 28.9161 203.802 28.3813 203.179 28.0039C202.555 27.6265 201.844 27.4197 201.115 27.4043ZM204.266 33.4411C203.887 33.9801 203.398 34.4318 202.83 34.7658C202.262 35.0997 201.63 35.3082 200.975 35.3771C72.8465 67.4619 86.0465 64.8571 84.8145 64.8571C84.1612 64.8466 83.5221 64.6647 82.9612 64.3296C82.4003 63.9946 81.9372 63.5181 81.6182 62.9479C81.2992 62.3777 81.1356 61.7337 81.1436 61.0804C81.1517 60.427 81.3312 59.7873 81.6641 59.2251C82.5969 57.7115 83.4241 57.6411 88.9329 56.1627C98.7889 53.5051 199.813 27.8795 201.063 27.8795C201.714 27.8773 202.355 28.0473 202.919 28.3725C203.484 28.6976 203.953 29.1662 204.278 29.7308C204.603 30.2955 204.773 30.936 204.771 31.5876C204.769 32.2392 204.595 32.8786 204.266 33.4411Z" fill="white"/>
<path d="M90.9215 61.6009C90.4538 61.2389 89.9386 60.9428 89.3903 60.7209C89.6228 60.231 89.6579 59.6703 89.4883 59.1552C89.3188 58.64 88.9575 58.2098 88.4794 57.9537C88.0014 57.6976 87.4431 57.6353 86.9203 57.7796C86.3975 57.9239 85.9502 58.2638 85.6712 58.7289C85.3922 59.1939 85.3027 59.7485 85.4214 60.2777C85.5401 60.8069 85.8579 61.2702 86.3088 61.5715C86.7597 61.8728 87.3093 61.9891 87.8437 61.8963C88.378 61.8035 88.8562 61.5087 89.1791 61.0729C89.6748 61.4065 90.2061 61.684 90.7631 61.9001C90.8005 61.9081 90.8395 61.9036 90.8742 61.8874C90.9089 61.8712 90.9373 61.8442 90.9552 61.8103C90.9731 61.7765 90.9795 61.7378 90.9734 61.7C90.9673 61.6622 90.9491 61.6274 90.9215 61.6009ZM87.4015 61.6009C87.0497 61.6221 86.6996 61.5371 86.3966 61.357C86.0936 61.1769 85.8517 60.91 85.7022 60.5909C85.5526 60.2717 85.5023 59.915 85.5578 59.5669C85.6134 59.2189 85.7721 58.8955 86.0135 58.6387C86.2549 58.3819 86.5678 58.2034 86.9118 58.1265C87.2558 58.0496 87.6149 58.0778 87.9427 58.2073C88.2705 58.3368 88.5519 58.5618 88.7503 58.8531C88.9488 59.1443 89.0552 59.4885 89.0559 59.8409C89.0577 60.2815 88.8941 60.7068 88.5976 61.0326C88.3011 61.3585 87.8931 61.5613 87.4543 61.6009H87.4015ZM198.493 31.4697C198.123 29.0233 197.261 29.2169 196.926 30.5545C196.844 30.8547 196.785 31.1606 196.75 31.4697C196.169 31.4697 194.867 31.3113 194.585 31.8393C194.304 32.3673 194.885 32.6489 195.325 32.8425C195.624 32.9708 195.937 33.0652 196.257 33.1241C195.853 33.6697 195.342 34.7081 195.87 35.0425C196.398 35.3769 197.384 34.3385 197.824 33.8633C198.281 34.2505 199.179 34.9017 199.689 34.5849C200.2 34.2681 199.39 33.3177 198.933 32.8249C199.531 32.7017 200.429 32.4201 200.288 31.8393C200.147 31.2585 199.038 31.4169 198.493 31.4697ZM198.686 32.7017C198.581 32.7017 198.545 32.7897 198.686 32.8953C198.827 33.0009 199.83 34.1097 199.566 34.3561C199.302 34.6025 198.317 33.8457 197.947 33.5817C197.921 33.5643 197.89 33.5551 197.859 33.5551C197.828 33.5551 197.797 33.5643 197.771 33.5817C197.19 34.1449 196.293 34.9193 196.011 34.7081C195.729 34.4969 196.504 33.2473 196.574 33.0537C196.59 33.0373 196.599 33.0152 196.599 32.9921C196.599 32.9691 196.59 32.947 196.574 32.9305C196.257 32.8073 194.92 32.4025 195.008 31.9625C195.096 31.5225 196.768 31.6809 196.961 31.6985C197.155 31.7161 197.102 31.6105 197.12 31.4697C197.454 29.7097 197.753 29.8329 197.894 30.0793C198.11 30.5651 198.292 31.0649 198.44 31.5753V31.6633C198.44 31.6633 199.953 31.6633 200.059 31.9625C200.165 32.2617 199.109 32.6137 198.686 32.7017ZM130.733 182.355C127.424 171.161 124.96 166.409 126.139 162.59C128.497 155.743 152.539 149.9 160.547 148.052C163.275 147.419 169.453 145.975 172.075 146.539C174.697 147.102 176.281 148.633 182.318 166.779C184.864 174.223 186.951 181.817 188.566 189.518C188.849 190.424 188.927 191.381 188.796 192.322C188.666 193.262 188.329 194.161 187.809 194.956C185.029 198.652 165.088 204.108 160.617 205.34C138.881 211.307 141.504 210.409 135.009 194.129C135.009 194.096 134.996 194.065 134.973 194.042C134.95 194.019 134.919 194.006 134.886 194.006C134.854 194.006 134.822 194.019 134.799 194.042C134.776 194.065 134.763 194.096 134.763 194.129C137.614 202.929 138.653 207.98 143.334 209.177C146.854 210.11 157.045 206.871 160.776 205.815C184.237 199.075 186.789 197.191 188.285 195.255C188.848 194.398 189.217 193.427 189.366 192.412C189.515 191.396 189.44 190.36 189.147 189.377C187.538 181.629 185.452 173.987 182.899 166.497C176.827 148.369 175.278 146.556 172.198 145.887C169.523 145.307 164.137 146.556 160.424 147.419C152.416 149.302 128.216 155.127 125.646 162.343C124.221 166.62 128.621 177.743 130.469 182.355C130.539 182.601 130.785 182.513 130.733 182.355ZM204.441 190.996C209.493 190.697 232.003 184.326 243.161 179.451C246.928 177.796 248.811 176.124 247.913 172.129C244.232 159.163 239.705 146.452 234.361 134.078C233.692 132.034 232.312 130.298 230.472 129.185C226.424 127.249 206.8 133.638 200.27 135.75C196.134 137.087 189.059 139.358 186.19 142.209C183.656 144.638 184.008 147.735 184.958 151.115C195.993 190.081 198.264 191.348 204.441 190.996ZM186.419 142.561C189.288 139.798 196.345 137.563 200.376 136.26C205.973 134.5 226.459 127.935 230.296 129.713C232.014 130.787 233.297 132.432 233.921 134.359C239.244 146.69 243.725 159.368 247.333 172.305C248.054 176.142 246.541 177.321 242.968 178.887C233.517 183.023 209.827 190.099 204.494 190.451C198.369 190.838 196.275 188.691 185.345 151.062C184.36 147.841 184.008 144.814 186.419 142.561ZM66.3519 81.2777C66.3272 81.1669 66.2804 81.0622 66.2143 80.9698C66.1483 80.8775 66.0642 80.7994 65.9673 80.7403C65.8704 80.6811 65.7625 80.6421 65.6502 80.6256C65.5378 80.6091 65.4233 80.6154 65.3135 80.6441L34.1087 88.8985C33.8753 88.9592 33.6756 89.1101 33.5534 89.3181C33.4313 89.526 33.3968 89.774 33.4575 90.0073C33.5182 90.2407 33.6691 90.4405 33.877 90.5626C34.085 90.6847 34.3329 90.7192 34.5663 90.6585L65.7535 82.4041C65.8698 82.3744 65.9786 82.3207 66.073 82.2465C66.1674 82.1723 66.2453 82.0792 66.3016 81.9732C66.3579 81.8671 66.3915 81.7505 66.4002 81.6308C66.4088 81.511 66.3924 81.3908 66.3519 81.2777ZM59.5759 90.0777C59.5492 89.9685 59.501 89.8657 59.4341 89.7753C59.3672 89.6849 59.2829 89.6088 59.1862 89.5514C59.0895 89.4941 58.9823 89.4566 58.8709 89.4412C58.7595 89.4258 58.6461 89.4328 58.5375 89.4618L35.8335 95.4634C35.7212 95.4936 35.6163 95.5462 35.5249 95.618C35.4335 95.6899 35.3576 95.7795 35.3017 95.8814C35.2458 95.9833 35.2111 96.0955 35.1996 96.2112C35.1882 96.3268 35.2002 96.4436 35.2351 96.5545C35.2615 96.6635 35.3098 96.7659 35.3769 96.8556C35.4441 96.9453 35.5289 97.0204 35.626 97.0764C35.7231 97.1324 35.8306 97.168 35.9419 97.1812C36.0532 97.1943 36.166 97.1847 36.2735 97.1529L58.9775 91.1513C59.0877 91.1209 59.1909 91.0689 59.2808 90.9982C59.3708 90.9276 59.4458 90.8398 59.5015 90.7398C59.5572 90.6399 59.5924 90.5299 59.6052 90.4163C59.618 90.3026 59.608 90.1875 59.5759 90.0777ZM79.3759 77.4409C79.4375 77.6597 79.583 77.8453 79.7808 77.9574C79.9785 78.0694 80.2125 78.0989 80.4319 78.0393L111.619 69.7849C111.729 69.7561 111.832 69.7058 111.922 69.6371C112.013 69.5684 112.089 69.4826 112.146 69.3845C112.203 69.2865 112.24 69.1781 112.256 69.0656C112.271 68.9531 112.264 68.8387 112.235 68.7289C112.206 68.6192 112.156 68.5161 112.087 68.4258C112.019 68.3354 111.933 68.2594 111.835 68.2022C111.737 68.145 111.628 68.1077 111.516 68.0924C111.403 68.0771 111.289 68.0841 111.179 68.1129L79.9919 76.4377C79.7812 76.4958 79.6004 76.6317 79.4861 76.8179C79.3717 77.0041 79.3323 77.2268 79.3759 77.4409ZM105.459 77.5993C105.397 77.3798 105.253 77.1929 105.056 77.078C104.859 76.9631 104.625 76.9292 104.403 76.9833L81.6991 83.0025C81.5875 83.0308 81.4829 83.0815 81.3916 83.1516C81.3003 83.2217 81.2243 83.3097 81.1683 83.4103C81.1123 83.5108 81.0774 83.6217 81.0657 83.7362C81.0541 83.8507 81.066 83.9664 81.1007 84.0761C81.1587 84.2943 81.3 84.481 81.4941 84.5962C81.6882 84.7113 81.9198 84.7458 82.1391 84.6921L104.861 78.6729C105.081 78.6075 105.267 78.4585 105.378 78.2579C105.49 78.0573 105.519 77.821 105.459 77.5993ZM125.259 65.1209C125.286 65.2302 125.334 65.333 125.401 65.4234C125.468 65.5138 125.552 65.5899 125.649 65.6472C125.745 65.7046 125.853 65.7421 125.964 65.7575C126.075 65.7729 126.189 65.7659 126.297 65.7369L157.485 57.4825C157.597 57.4521 157.703 57.3995 157.795 57.328C157.887 57.2564 157.964 57.1673 158.021 57.0658C158.078 56.9642 158.115 56.8523 158.128 56.7366C158.142 56.6208 158.133 56.5034 158.101 56.3913C158.035 56.1751 157.889 55.9924 157.692 55.881C157.496 55.7696 157.264 55.738 157.045 55.7929L125.857 63.9593C125.735 63.9855 125.62 64.0385 125.521 64.1144C125.422 64.1904 125.341 64.2874 125.283 64.3985C125.226 64.5096 125.194 64.6321 125.19 64.757C125.186 64.8819 125.209 65.0062 125.259 65.1209ZM151.36 65.1209C151.298 64.9022 151.153 64.7166 150.955 64.6045C150.757 64.4925 150.523 64.463 150.304 64.5225L127.6 70.5241C127.366 70.5848 127.167 70.7357 127.045 70.9437C126.923 71.1516 126.888 71.3996 126.949 71.6329C127.009 71.8663 127.16 72.0661 127.368 72.1882C127.576 72.3103 127.824 72.3448 128.057 72.2841L150.761 66.2649C150.881 66.2382 150.994 66.1856 151.092 66.1108C151.189 66.036 151.269 65.9408 151.326 65.8319C151.383 65.723 151.416 65.6029 151.422 65.4801C151.427 65.3573 151.406 65.2348 151.36 65.1209ZM171.125 52.5721C171.153 52.6798 171.203 52.7808 171.271 52.8692C171.338 52.9576 171.423 53.0317 171.519 53.0874C171.616 53.143 171.722 53.179 171.833 53.1932C171.943 53.2075 172.056 53.1998 172.163 53.1705L203.368 44.9161C203.478 44.8857 203.581 44.8337 203.671 44.763C203.761 44.6924 203.836 44.6046 203.892 44.5047C203.948 44.4047 203.983 44.2947 203.996 44.1811C204.008 44.0674 203.998 43.9523 203.966 43.8425C203.938 43.7326 203.888 43.6294 203.819 43.5389C203.75 43.4484 203.664 43.3723 203.566 43.3151C203.468 43.2579 203.36 43.2206 203.247 43.2054C203.135 43.1902 203.02 43.1974 202.91 43.2265L171.723 51.4809C171.499 51.5463 171.31 51.698 171.198 51.9026C171.086 52.1073 171.059 52.3481 171.125 52.5721ZM197.12 52.6601C197.093 52.5509 197.045 52.4481 196.978 52.3577C196.911 52.2673 196.827 52.1912 196.73 52.1338C196.633 52.0765 196.526 52.039 196.415 52.0236C196.303 52.0082 196.19 52.0152 196.081 52.0441L173.448 58.0809C173.338 58.1098 173.235 58.1601 173.145 58.2288C173.054 58.2975 172.978 58.3833 172.921 58.4814C172.864 58.5794 172.827 58.6878 172.811 58.8003C172.796 58.9128 172.803 59.0272 172.832 59.1369C172.861 59.2467 172.911 59.3497 172.98 59.4401C173.048 59.5305 173.134 59.6065 173.232 59.6637C173.33 59.7209 173.439 59.7582 173.551 59.7735C173.664 59.7888 173.778 59.7818 173.888 59.7529L196.592 53.7513C196.699 53.7158 196.798 53.6591 196.883 53.5845C196.968 53.51 197.037 53.4191 197.087 53.3174C197.136 53.2156 197.164 53.105 197.17 52.9921C197.176 52.8792 197.159 52.7664 197.12 52.6601ZM190.309 204.161C190.275 204.052 190.219 203.951 190.146 203.863C190.072 203.776 189.982 203.704 189.881 203.651C189.779 203.599 189.668 203.567 189.555 203.558C189.441 203.549 189.326 203.562 189.217 203.598L148.861 216.164C148.752 216.198 148.651 216.252 148.564 216.325C148.476 216.397 148.404 216.486 148.35 216.587C148.297 216.687 148.265 216.797 148.254 216.911C148.243 217.024 148.255 217.138 148.289 217.247C148.322 217.355 148.377 217.456 148.449 217.544C148.522 217.631 148.611 217.704 148.711 217.757C148.812 217.81 148.922 217.843 149.035 217.853C149.148 217.864 149.262 217.852 149.371 217.819L189.728 205.252C189.949 205.183 190.133 205.03 190.242 204.826C190.351 204.621 190.375 204.383 190.309 204.161ZM181.28 216.164C181.246 216.055 181.191 215.954 181.117 215.866C181.044 215.779 180.954 215.707 180.852 215.654C180.751 215.602 180.64 215.57 180.526 215.561C180.412 215.552 180.297 215.565 180.189 215.601L151.166 224.63C151.057 224.664 150.956 224.719 150.868 224.792C150.781 224.866 150.709 224.956 150.656 225.058C150.604 225.159 150.572 225.27 150.563 225.384C150.554 225.498 150.568 225.612 150.603 225.721C150.672 225.942 150.825 226.126 151.03 226.235C151.234 226.344 151.473 226.368 151.694 226.302L180.699 217.255C180.92 217.186 181.105 217.033 181.213 216.829C181.322 216.625 181.346 216.386 181.28 216.164ZM193.688 220.494L153.331 233.078C153.222 233.112 153.122 233.168 153.035 233.242C152.948 233.315 152.876 233.405 152.823 233.507C152.771 233.608 152.739 233.719 152.73 233.832C152.72 233.946 152.733 234.06 152.768 234.169C152.803 234.278 152.858 234.378 152.932 234.465C153.005 234.552 153.095 234.624 153.197 234.677C153.298 234.729 153.409 234.761 153.522 234.77C153.636 234.78 153.75 234.767 153.859 234.732L194.216 222.166C194.325 222.132 194.426 222.076 194.514 222.003C194.601 221.93 194.673 221.839 194.726 221.738C194.778 221.636 194.81 221.525 194.819 221.412C194.828 221.298 194.815 221.183 194.779 221.075C194.71 220.854 194.557 220.669 194.353 220.56C194.148 220.452 193.91 220.428 193.688 220.494ZM247.597 186.227L207.24 198.881C207.131 198.914 207.03 198.969 206.943 199.042C206.855 199.114 206.783 199.203 206.73 199.304C206.677 199.404 206.644 199.514 206.633 199.627C206.623 199.741 206.634 199.855 206.668 199.963C206.701 200.072 206.756 200.173 206.828 200.26C206.901 200.348 206.99 200.42 207.091 200.474C207.191 200.527 207.301 200.559 207.414 200.57C207.527 200.581 207.642 200.569 207.75 200.535L248.16 187.899C248.393 187.831 248.59 187.673 248.707 187.46C248.825 187.247 248.852 186.997 248.785 186.763C248.717 186.53 248.559 186.333 248.346 186.216C248.134 186.099 247.883 186.071 247.649 186.139L247.597 186.227ZM239.571 198.775C239.539 198.667 239.486 198.566 239.414 198.479C239.342 198.391 239.253 198.319 239.153 198.267C239.053 198.214 238.944 198.182 238.831 198.173C238.718 198.164 238.605 198.177 238.497 198.212L209.44 207.241C209.219 207.31 209.034 207.463 208.926 207.667C208.817 207.872 208.793 208.11 208.859 208.332C208.893 208.441 208.948 208.542 209.022 208.63C209.095 208.717 209.185 208.79 209.287 208.842C209.388 208.894 209.499 208.926 209.613 208.935C209.727 208.944 209.842 208.931 209.95 208.895L238.973 199.867C239.085 199.836 239.19 199.784 239.281 199.712C239.373 199.64 239.449 199.55 239.504 199.449C239.56 199.347 239.595 199.234 239.607 199.119C239.618 199.003 239.606 198.886 239.571 198.775ZM211.2 216.763C211.232 216.871 211.286 216.972 211.357 217.061C211.428 217.149 211.517 217.222 211.616 217.276C211.716 217.329 211.825 217.363 211.938 217.375C212.051 217.387 212.165 217.376 212.273 217.343L252.63 204.777C252.752 204.755 252.868 204.707 252.971 204.637C253.073 204.566 253.159 204.475 253.224 204.369C253.289 204.263 253.33 204.144 253.346 204.021C253.361 203.898 253.35 203.773 253.314 203.654C253.278 203.536 253.217 203.426 253.135 203.332C253.054 203.239 252.953 203.164 252.84 203.112C252.727 203.06 252.605 203.032 252.481 203.031C252.357 203.03 252.234 203.055 252.12 203.105L211.763 215.671C211.654 215.705 211.553 215.761 211.465 215.834C211.378 215.908 211.306 215.998 211.253 216.099C211.201 216.201 211.169 216.312 211.16 216.425C211.151 216.539 211.164 216.654 211.2 216.763ZM161.92 261.203L181.632 255.219C181.83 255.132 181.989 254.976 182.079 254.78C182.169 254.584 182.184 254.362 182.121 254.155C182.058 253.949 181.921 253.773 181.737 253.661C181.553 253.549 181.334 253.508 181.121 253.547L161.409 259.531C161.287 259.553 161.171 259.601 161.069 259.671C160.967 259.741 160.88 259.832 160.816 259.938C160.751 260.045 160.71 260.163 160.694 260.286C160.679 260.409 160.689 260.534 160.726 260.653C160.762 260.772 160.823 260.882 160.904 260.975C160.986 261.069 161.087 261.144 161.2 261.196C161.312 261.248 161.435 261.275 161.559 261.276C161.683 261.277 161.806 261.252 161.92 261.203ZM162.413 267.327C162.482 267.548 162.635 267.733 162.839 267.842C163.043 267.95 163.282 267.974 163.504 267.908L190.08 259.83C190.273 259.742 190.428 259.588 190.517 259.395C190.605 259.202 190.621 258.983 190.561 258.779C190.501 258.576 190.369 258.401 190.19 258.286C190.011 258.172 189.797 258.126 189.587 258.158L162.941 266.236C162.73 266.316 162.557 266.473 162.459 266.676C162.361 266.879 162.344 267.112 162.413 267.327ZM168.96 273.452L184.694 268.665C184.804 268.635 184.907 268.583 184.996 268.512C185.086 268.441 185.16 268.353 185.214 268.252C185.268 268.152 185.302 268.042 185.312 267.928C185.323 267.814 185.31 267.7 185.275 267.591C185.243 267.483 185.189 267.381 185.118 267.293C185.047 267.205 184.958 267.132 184.859 267.078C184.759 267.024 184.65 266.991 184.537 266.979C184.424 266.967 184.31 266.978 184.201 267.011L168.361 271.78C168.246 271.814 168.138 271.87 168.044 271.945C167.95 272.02 167.872 272.113 167.814 272.218C167.756 272.324 167.719 272.44 167.706 272.559C167.693 272.679 167.703 272.8 167.737 272.915C167.77 273.031 167.826 273.139 167.901 273.233C167.977 273.327 168.069 273.405 168.175 273.463C168.28 273.521 168.396 273.558 168.516 273.571C168.635 273.584 168.756 273.574 168.872 273.54L168.96 273.452ZM170.861 279.507C170.93 279.727 171.083 279.912 171.287 280.021C171.491 280.13 171.73 280.153 171.952 280.087L194.48 273.259C194.678 273.172 194.837 273.016 194.927 272.82C195.017 272.624 195.032 272.402 194.969 272.195C194.906 271.989 194.769 271.813 194.585 271.701C194.401 271.589 194.182 271.548 193.969 271.587L171.441 278.415C171.221 278.484 171.036 278.638 170.927 278.842C170.819 279.046 170.795 279.285 170.861 279.507ZM187.933 281.812L169.153 287.497C169.038 287.53 168.93 287.586 168.836 287.662C168.742 287.737 168.664 287.83 168.606 287.935C168.548 288.041 168.511 288.156 168.498 288.276C168.485 288.396 168.495 288.517 168.529 288.632C168.562 288.748 168.618 288.856 168.693 288.949C168.769 289.043 168.861 289.122 168.967 289.18C169.072 289.238 169.188 289.274 169.308 289.288C169.427 289.301 169.548 289.29 169.664 289.257L188.443 283.555C188.662 283.487 188.846 283.335 188.953 283.132C189.061 282.929 189.083 282.692 189.015 282.472C188.947 282.253 188.795 282.069 188.592 281.962C188.389 281.855 188.152 281.832 187.933 281.9V281.812ZM197.595 250.819L213.84 246.207C214.073 246.144 214.272 245.991 214.393 245.782C214.513 245.572 214.545 245.323 214.482 245.09C214.419 244.856 214.266 244.658 214.057 244.537C213.847 244.417 213.598 244.384 213.365 244.447L197.12 249.147C197.008 249.175 196.903 249.226 196.811 249.296C196.719 249.365 196.642 249.453 196.585 249.553C196.527 249.653 196.491 249.764 196.477 249.878C196.463 249.993 196.472 250.109 196.504 250.22C196.573 250.442 196.725 250.628 196.929 250.739C197.132 250.851 197.371 250.879 197.595 250.819ZM198.616 256.961C198.646 257.071 198.698 257.174 198.769 257.264C198.84 257.354 198.927 257.429 199.027 257.485C199.127 257.541 199.237 257.576 199.351 257.589C199.465 257.601 199.58 257.591 199.689 257.559L218.504 252.279C218.737 252.216 218.936 252.063 219.057 251.854C219.177 251.644 219.209 251.395 219.146 251.162C219.083 250.928 218.93 250.73 218.721 250.609C218.511 250.489 218.262 250.456 218.029 250.519L199.214 255.799C199.092 255.826 198.977 255.878 198.878 255.954C198.779 256.03 198.697 256.127 198.64 256.239C198.583 256.35 198.551 256.472 198.547 256.597C198.543 256.722 198.566 256.846 198.616 256.961ZM217.958 258.721C217.889 258.5 217.737 258.314 217.533 258.202C217.33 258.09 217.091 258.062 216.867 258.123L201.309 262.54C201.193 262.571 201.085 262.625 200.99 262.698C200.895 262.771 200.816 262.862 200.756 262.966C200.636 263.176 200.603 263.424 200.666 263.658C200.729 263.891 200.882 264.09 201.092 264.21C201.302 264.331 201.55 264.363 201.784 264.3L217.36 259.883C217.477 259.849 217.587 259.791 217.682 259.714C217.776 259.636 217.854 259.54 217.91 259.431C217.966 259.322 217.999 259.203 218.007 259.081C218.016 258.959 217.999 258.836 217.958 258.721ZM202.805 270.355C202.835 270.465 202.887 270.568 202.958 270.658C203.028 270.748 203.116 270.823 203.216 270.879C203.316 270.934 203.426 270.97 203.54 270.982C203.653 270.995 203.768 270.985 203.878 270.953L222.27 265.673C222.382 265.645 222.486 265.594 222.578 265.524C222.669 265.454 222.745 265.366 222.801 265.265C222.857 265.165 222.892 265.054 222.904 264.939C222.915 264.825 222.903 264.709 222.869 264.599C222.839 264.485 222.785 264.378 222.712 264.285C222.639 264.192 222.548 264.116 222.444 264.059C222.34 264.003 222.226 263.969 222.108 263.959C221.99 263.949 221.872 263.963 221.76 264.001L203.368 269.281C203.154 269.354 202.977 269.505 202.872 269.705C202.767 269.905 202.743 270.138 202.805 270.355ZM218.24 272.379L205.533 275.987C205.299 276.05 205.1 276.203 204.98 276.412C204.86 276.622 204.827 276.871 204.89 277.104C204.953 277.338 205.106 277.536 205.316 277.657C205.526 277.777 205.774 277.81 206.008 277.747L218.715 274.139C218.948 274.076 219.147 273.922 219.268 273.713C219.388 273.503 219.42 273.254 219.357 273.021C219.294 272.788 219.141 272.589 218.932 272.468C218.722 272.348 218.473 272.316 218.24 272.379ZM133.989 112.764C134.892 113.662 136.002 114.324 137.222 114.69C138.442 115.056 139.733 115.116 140.981 114.864C142.23 114.612 143.397 114.056 144.379 113.245C145.361 112.435 146.128 111.394 146.612 110.216C147.096 109.038 147.282 107.759 147.154 106.492C147.025 105.225 146.586 104.009 145.876 102.952C145.165 101.895 144.205 101.03 143.08 100.433C141.955 99.8358 140.701 99.5253 139.427 99.5289C137.888 99.5161 136.38 99.9644 135.098 100.816C133.815 101.668 132.818 102.884 132.233 104.308C131.647 105.731 131.502 107.298 131.815 108.805C132.128 110.312 132.885 111.691 133.989 112.764ZM134.745 102.556C135.529 101.782 136.49 101.213 137.545 100.899C138.6 100.585 139.717 100.535 140.795 100.755C141.874 100.974 142.882 101.456 143.731 102.157C144.58 102.859 145.242 103.758 145.661 104.776C146.08 105.795 146.241 106.9 146.131 107.996C146.021 109.091 145.643 110.143 145.03 111.057C144.418 111.972 143.589 112.722 142.618 113.24C141.647 113.759 140.563 114.031 139.462 114.031C138.132 114.032 136.832 113.637 135.727 112.897C134.622 112.157 133.762 111.105 133.257 109.875C132.751 108.645 132.623 107.292 132.888 105.989C133.153 104.686 133.8 103.491 134.745 102.556Z" fill="white"/>
<path d="M169.699 149.936C164.971 157.785 160.796 165.954 157.203 174.383C149.798 170.504 142.156 167.095 134.323 164.175C134.227 164.146 134.124 164.152 134.031 164.19C133.938 164.229 133.861 164.298 133.813 164.386C133.77 164.484 133.766 164.596 133.802 164.697C133.838 164.798 133.911 164.882 134.007 164.931C143.053 169.419 156.464 176.143 156.464 176.143C152.922 184.441 149.883 192.946 147.365 201.61C147.349 201.67 147.347 201.732 147.358 201.793C147.37 201.854 147.396 201.911 147.433 201.96C147.471 202.009 147.519 202.049 147.574 202.077C147.629 202.105 147.69 202.12 147.752 202.12C148.421 202.12 147.647 202.12 158.171 177.04C163.592 179.891 172.251 184.784 181.967 190.645C182.058 190.706 182.169 190.728 182.276 190.706C182.384 190.685 182.478 190.622 182.539 190.531C182.599 190.44 182.621 190.328 182.6 190.221C182.578 190.114 182.515 190.019 182.424 189.959C174.961 184.49 167.101 179.584 158.911 175.28C162.008 168.029 165.775 159.863 170.421 150.323C170.472 150.228 170.484 150.116 170.452 150.012C170.421 149.908 170.35 149.82 170.254 149.769C170.158 149.718 170.046 149.707 169.942 149.738C169.838 149.769 169.751 149.841 169.699 149.936ZM191.488 147.842C198.528 151.362 202.84 153.28 214.368 159.247C210.622 167.44 207.452 175.885 204.882 184.52C204.849 184.623 204.859 184.734 204.908 184.83C204.958 184.926 205.043 184.998 205.146 185.031C205.249 185.063 205.36 185.054 205.456 185.004C205.551 184.955 205.624 184.869 205.656 184.767C209.317 175.861 207.944 178.448 216.093 160.127C223.133 163.893 231.071 168.416 239.501 173.52C239.592 173.581 239.703 173.603 239.811 173.582C239.918 173.56 240.012 173.497 240.073 173.406C240.134 173.315 240.156 173.203 240.134 173.096C240.113 172.989 240.05 172.895 239.959 172.834C232.607 167.473 224.878 162.65 216.832 158.402C220.563 150.323 224.699 142.122 228.008 135.275C228.045 135.184 228.047 135.082 228.013 134.989C227.98 134.896 227.914 134.818 227.827 134.771C227.741 134.723 227.64 134.709 227.544 134.731C227.447 134.752 227.362 134.808 227.304 134.888C222.842 142.2 218.782 149.75 215.143 157.504C207.606 153.542 199.822 150.068 191.84 147.103C191.742 147.056 191.63 147.05 191.527 147.086C191.425 147.123 191.341 147.198 191.295 147.296C191.248 147.394 191.242 147.507 191.278 147.609C191.315 147.712 191.39 147.795 191.488 147.842ZM230.261 245.099C230.809 244.547 231.182 243.845 231.335 243.082C231.488 242.319 231.414 241.528 231.122 240.807C230.829 240.085 230.332 239.466 229.691 239.024C229.05 238.583 228.294 238.339 227.515 238.323C226.877 238.331 226.25 238.495 225.689 238.8C225.127 239.106 224.649 239.543 224.296 240.075C223.942 240.607 223.724 241.217 223.659 241.853C223.595 242.488 223.687 243.13 223.927 243.722C224.167 244.314 224.547 244.838 225.036 245.25C225.524 245.661 226.106 245.947 226.73 246.083C227.354 246.219 228.002 246.2 228.617 246.029C229.233 245.857 229.797 245.538 230.261 245.099ZM224.717 241.051C224.926 240.605 225.239 240.216 225.63 239.916C226.022 239.617 226.48 239.416 226.965 239.332C227.451 239.247 227.949 239.281 228.419 239.43C228.889 239.579 229.315 239.84 229.663 240.189C229.94 240.466 230.159 240.796 230.305 241.16C230.45 241.524 230.52 241.914 230.51 242.306C230.501 242.698 230.411 243.084 230.247 243.44C230.083 243.796 229.848 244.115 229.557 244.378C228.983 244.904 228.232 245.195 227.454 245.195C226.675 245.195 225.925 244.904 225.351 244.378C224.927 243.963 224.64 243.43 224.527 242.849C224.414 242.267 224.48 241.665 224.717 241.122V241.051ZM237.459 242.213C238.178 242.543 238.98 242.644 239.758 242.502C240.535 242.36 241.251 241.983 241.807 241.421C242.517 240.67 242.913 239.674 242.913 238.64C242.913 237.606 242.517 236.611 241.807 235.859C241.45 235.486 241.021 235.188 240.546 234.985C240.071 234.782 239.56 234.677 239.043 234.677C238.527 234.677 238.016 234.782 237.541 234.985C237.066 235.188 236.637 235.486 236.28 235.859C235.847 236.317 235.528 236.87 235.349 237.475C235.17 238.079 235.137 238.717 235.252 239.337C235.367 239.956 235.627 240.54 236.011 241.04C236.394 241.54 236.891 241.942 237.459 242.213ZM236.263 237.373C236.471 236.927 236.785 236.537 237.176 236.238C237.567 235.938 238.025 235.738 238.511 235.653C238.996 235.569 239.495 235.602 239.964 235.752C240.434 235.901 240.861 236.161 241.208 236.511C241.486 236.787 241.704 237.118 241.85 237.482C241.996 237.846 242.066 238.236 242.056 238.628C242.046 239.02 241.957 239.406 241.793 239.762C241.629 240.118 241.394 240.437 241.103 240.699C240.531 241.224 239.784 241.515 239.008 241.515C238.233 241.515 237.485 241.224 236.914 240.699C236.466 240.286 236.162 239.741 236.044 239.143C235.927 238.545 236.004 237.925 236.263 237.373ZM253.44 237.725C253.989 237.176 254.365 236.477 254.52 235.715C254.674 234.954 254.602 234.164 254.311 233.444C254.02 232.723 253.524 232.104 252.884 231.664C252.244 231.224 251.489 230.981 250.712 230.967C250.071 230.969 249.44 231.128 248.874 231.43C248.308 231.733 247.826 232.169 247.468 232.701C247.11 233.234 246.888 233.845 246.821 234.483C246.754 235.121 246.845 235.766 247.085 236.361C247.325 236.955 247.707 237.482 248.198 237.895C248.689 238.308 249.274 238.594 249.901 238.729C250.528 238.863 251.178 238.842 251.795 238.667C252.412 238.492 252.977 238.169 253.44 237.725ZM247.896 233.695C248.105 233.248 248.418 232.859 248.81 232.559C249.201 232.26 249.659 232.059 250.144 231.975C250.63 231.89 251.128 231.924 251.598 232.073C252.068 232.222 252.494 232.483 252.842 232.832C253.119 233.108 253.337 233.437 253.483 233.799C253.628 234.162 253.698 234.55 253.688 234.941C253.679 235.331 253.589 235.716 253.425 236.07C253.261 236.425 253.027 236.743 252.736 237.003C252.167 237.532 251.419 237.825 250.642 237.825C249.865 237.825 249.117 237.532 248.547 237.003C248.091 236.6 247.774 236.063 247.641 235.469C247.508 234.875 247.567 234.254 247.808 233.695H247.896ZM260.48 234.856C261.2 235.184 262.004 235.282 262.781 235.137C263.559 234.992 264.273 234.611 264.827 234.047C265.545 233.302 265.946 232.309 265.946 231.275C265.946 230.241 265.545 229.247 264.827 228.503C264.475 228.125 264.051 227.823 263.579 227.613C263.108 227.404 262.599 227.292 262.083 227.284C261.567 227.275 261.055 227.371 260.577 227.566C260.099 227.76 259.665 228.049 259.301 228.415C258.853 228.874 258.522 229.433 258.334 230.047C258.147 230.66 258.11 231.309 258.225 231.94C258.341 232.571 258.606 233.165 258.998 233.673C259.39 234.18 259.899 234.586 260.48 234.856ZM259.301 229.999C259.511 229.555 259.823 229.169 260.213 228.872C260.603 228.575 261.059 228.376 261.542 228.291C262.025 228.207 262.521 228.239 262.988 228.386C263.456 228.533 263.881 228.791 264.229 229.136C264.591 229.529 264.841 230.012 264.952 230.535C265.063 231.057 265.031 231.6 264.86 232.106C264.689 232.612 264.384 233.063 263.979 233.411C263.573 233.758 263.081 233.99 262.555 234.083C262.029 234.175 261.488 234.123 260.988 233.934C260.488 233.745 260.049 233.424 259.716 233.006C259.383 232.588 259.169 232.089 259.096 231.559C259.023 231.03 259.094 230.491 259.301 229.999Z" fill="white"/>
</svg>
