<svg width="32" height="32" viewBox="0 0 32 32" fill="none" xmlns="http://www.w3.org/2000/svg">
<g clip-path="url(#clip0_129_2581)">
<rect width="32" height="32" fill="black"/>
<circle cx="16" cy="16" r="16" fill="black"/>
<path d="M15.9925 0C11.7187 0 7.70082 1.66429 4.67886 4.68625C-1.55959 10.9246 -1.55959 21.0752 4.67867 27.3136C7.70063 30.3357 11.7187 32 15.9925 32C20.2662 32 24.2842 30.3357 27.3062 27.3136C33.5446 21.0752 33.5446 10.9246 27.3062 4.68625C24.2842 1.66429 20.2662 0 15.9925 0ZM23.1921 23.1995C22.908 23.4835 22.5358 23.6256 22.1636 23.6256C21.7914 23.6256 21.419 23.4835 21.1352 23.1995L15.9925 18.057L10.8499 23.1996C10.5658 23.4836 10.1936 23.6257 9.82136 23.6257C9.44919 23.6257 9.07682 23.4836 8.79299 23.1996C8.22485 22.6317 8.22485 21.7106 8.79299 21.1426L13.9355 16L8.7929 10.8574C8.22475 10.2895 8.22475 9.36844 8.7929 8.80039C9.36085 8.23244 10.2819 8.23244 10.8499 8.80039L15.9925 13.943L21.1349 8.80039C21.7029 8.23244 22.6239 8.23244 23.1919 8.80039C23.7601 9.36834 23.7601 10.2894 23.1919 10.8574L18.0495 16L23.1921 21.1425C23.7602 21.7105 23.7602 22.6316 23.1921 23.1995Z" fill="#F5F5F5"/>
</g>
<defs>
<clipPath id="clip0_129_2581">
<rect width="32" height="32" fill="white"/>
</clipPath>
</defs>
</svg>
