<svg width="38" height="38" viewBox="0 0 38 38" fill="none" xmlns="http://www.w3.org/2000/svg">
<path d="M18.9911 0C13.9159 0 9.14473 1.97635 5.55615 5.56493C-1.85201 12.973 -1.85201 25.0268 5.55592 32.435C9.1445 36.0237 13.9159 38 18.9911 38C24.0661 38 28.8375 36.0237 32.4261 32.435C39.8342 25.0268 39.8342 12.973 32.4261 5.56493C28.8375 1.97635 24.0661 0 18.9911 0ZM27.5406 27.5494C27.2032 27.8867 26.7613 28.0554 26.3192 28.0554C25.8773 28.0554 25.4351 27.8867 25.098 27.5494L18.9911 21.4427L12.8843 27.5495C12.5469 27.8868 12.1049 28.0555 11.6629 28.0555C11.2209 28.0555 10.7787 27.8868 10.4417 27.5495C9.76701 26.8751 9.76701 25.7814 10.4417 25.1068L16.5484 19L10.4416 12.8932C9.76689 12.2187 9.76689 11.125 10.4416 10.4505C11.116 9.77602 12.2097 9.77602 12.8843 10.4505L18.9911 16.5573L25.0977 10.4505C25.7721 9.77602 26.8659 9.77602 27.5404 10.4505C28.2151 11.1249 28.2151 12.2186 27.5404 12.8932L21.4338 19L27.5406 25.1067C28.2152 25.7813 28.2152 26.875 27.5406 27.5494Z" fill="#F5F5F5"/>
</svg>
