<svg width="32" height="32" viewBox="0 0 32 32" fill="none" xmlns="http://www.w3.org/2000/svg">
<path d="M15.9998 0C11.726 0 7.70815 1.66429 4.68618 4.68625C-1.55226 10.9246 -1.55226 21.0752 4.68599 27.3136C7.70795 30.3357 11.726 32 15.9998 32C20.2735 32 24.2915 30.3357 27.3135 27.3136C33.5519 21.0752 33.5519 10.9246 27.3135 4.68625C24.2915 1.66429 20.2735 0 15.9998 0ZM23.1994 23.1995C22.9153 23.4835 22.5432 23.6256 22.1709 23.6256C21.7987 23.6256 21.4264 23.4835 21.1425 23.1995L15.9998 18.057L10.8572 23.1996C10.5731 23.4836 10.2009 23.6257 9.82868 23.6257C9.45651 23.6257 9.08415 23.4836 8.80032 23.1996C8.23217 22.6317 8.23217 21.7106 8.80032 21.1426L13.9428 16L8.80022 10.8574C8.23208 10.2895 8.23208 9.36844 8.80022 8.80039C9.36817 8.23244 10.2892 8.23244 10.8572 8.80039L15.9998 13.943L21.1422 8.80039C21.7102 8.23244 22.6312 8.23244 23.1993 8.80039C23.7674 9.36834 23.7674 10.2894 23.1993 10.8574L18.0569 16L23.1994 21.1425C23.7675 21.7105 23.7675 22.6316 23.1994 23.1995Z" fill="#F5F5F5"/>
</svg>
