<svg width="28" height="28" viewBox="0 0 28 28" fill="none" xmlns="http://www.w3.org/2000/svg">
<path d="M23.9185 5.50293L22.1113 25.7482L13.9878 28.0003L5.88677 25.7514L4.08148 5.50293H23.9185Z" fill="#004CE8"/>
<path d="M20.5641 24.4587L22.1085 7.1582H14V26.2785L20.5641 24.4587Z" fill="#0065F4"/>
<path d="M8.22003 14.668L8.44261 17.1513H14L15.0682 15.9096L14 14.668H8.22003Z" fill="#EBEBEB"/>
<path d="M14 9.6416H13.9914H7.77283L7.99858 12.125H14L15.0682 10.8833L14 9.6416Z" fill="#EBEBEB"/>
<path d="M14 23.7018L15.0682 22.3849L14 21.1181L13.9891 21.121L11.2233 20.3742L11.0465 18.3936H9.70257H8.55359L8.90151 22.2928L13.9885 23.705L14 23.7018Z" fill="#EBEBEB"/>
<path d="M8.75 0H11.7578V1.25781H10.0078V2.51562H11.7578V3.77344H8.75V0Z" fill="black"/>
<path d="M12.3594 0H15.3672V1.09375H13.6172V1.3125H15.3672V3.82812H12.3594V2.67969H14.1094V2.46094H12.3594V0Z" fill="black"/>
<path d="M15.9688 0H18.9766V1.09375H17.2266V1.3125H18.9766V3.82812H15.9688V2.67969H17.7188V2.46094H15.9688V0Z" fill="black"/>
<path d="M17.0494 17.1514L16.7612 20.3722L13.9914 21.1197V23.7034L19.0825 22.2924L19.1198 21.8728L19.7034 15.3349L19.764 14.668L20.2123 9.6416H13.9914V12.125H17.4907L17.2648 14.668H13.9914V17.1514H17.0494Z" fill="white"/>
</svg>
