<svg width="254" height="76" viewBox="0 0 254 76" fill="none" xmlns="http://www.w3.org/2000/svg">
<path d="M46.8709 9.82422V27.7891H44.2733V9.82422H46.8709ZM47.3905 31.6992V33.8047H30.1913V26.0391H32.7889V31.6992H47.3905ZM32.1873 14.418C32.1873 16.4277 32.6248 19.2168 34.3748 21.1719C36.0702 19.2578 36.535 16.5098 36.535 14.418V11.5195H38.9686V14.418C38.9413 17.2891 39.9256 20.4883 42.7967 22.1289L41.3475 23.9883C39.5155 22.9219 38.3944 21.1719 37.7928 19.1758C37.2049 21.1992 36.1795 23.0859 34.3748 24.2344C32.5155 23.0723 31.4764 21.1445 30.9295 19.0938C30.3006 21.0898 29.1932 22.8945 27.4022 23.9883L25.953 22.1289C28.7967 20.4062 29.7264 17.0156 29.7264 14.418V11.5195H32.1873V14.418ZM54.3948 24.4531C54.4222 19.3125 55.8714 15.0195 58.4417 11.3555H61.1214C59.2347 14.0625 57.43 19.5859 57.43 24.4531C57.43 29.3477 59.2347 34.8438 61.1214 37.5781H58.4417C55.8714 33.9141 54.4222 29.6211 54.3948 24.4531ZM77.3406 17.4258C77.1492 15.5938 75.5359 14.5273 73.2664 14.5273C70.8328 14.5273 69.3016 15.7578 69.3016 17.4531C69.3016 19.3398 71.3523 20.0508 72.9109 20.4336L74.825 20.9531C77.368 21.5547 80.5125 22.9492 80.5398 26.5312C80.5125 29.8672 77.8602 32.3281 73.1844 32.3281C68.7547 32.3281 65.9656 30.1133 65.7742 26.5039H68.782C68.9734 28.6641 70.8602 29.7031 73.1844 29.7031C75.7 29.7031 77.532 28.418 77.5594 26.4766C77.532 24.7539 75.9188 24.043 73.8133 23.4961L71.4617 22.8672C68.2898 21.9922 66.2938 20.3789 66.2938 17.6172C66.2938 14.1992 69.3563 11.9297 73.3484 11.9297C77.368 11.9297 80.1844 14.2266 80.2664 17.4258H77.3406ZM99.6848 18.6562C99.1927 16.1133 97.0872 14.6914 94.5716 14.6914C91.1536 14.6914 88.6106 17.3164 88.6106 22.1016C88.6106 26.9141 91.1809 29.5117 94.5716 29.5117C97.0598 29.5117 99.1653 28.1172 99.6848 25.6016L102.72 25.6289C102.091 29.5391 98.8919 32.2734 94.5442 32.2734C89.3763 32.2734 85.6302 28.418 85.6302 22.1016C85.6302 15.7578 89.4036 11.9297 94.5442 11.9297C98.7278 11.9297 102.036 14.3906 102.72 18.6562H99.6848ZM108.494 32V12.2031H120.908V14.8008H111.502V20.7891H120.252V23.3594H111.502V29.4023H121.017V32H108.494ZM143.088 12.2031V32H140.326L130.291 17.5352H130.127V32H127.119V12.2031H129.908L139.944 26.6953H140.135V12.2031H143.088ZM149.655 32V12.2031H162.069V14.8008H152.663V20.7891H161.413V23.3594H152.663V29.4023H162.178V32H149.655ZM173.886 24.4531C173.859 29.6211 172.409 33.9141 169.839 37.5781H167.159C169.046 34.8438 170.851 29.3477 170.851 24.4531C170.851 19.5859 169.046 14.0625 167.159 11.3555H169.839C172.409 15.0195 173.859 19.3125 173.886 24.4531ZM200.058 9.82422V34.3242H197.433V9.82422H200.058ZM192.758 12.4492C192.758 19.6133 189.695 25.8477 181.3 29.8672L179.933 27.7617C186.455 24.6582 189.627 20.2422 190.133 14.5273H181.109V12.4492H192.758ZM228.801 23.1953V25.3008H206.379V23.1953H216.305V20.8711H209.25V14.6367H223.387V12.4492H209.195V10.3984H225.985V16.5508H211.82V18.8477H226.477V20.8711H218.875V23.1953H228.801ZM226.121 27.0234V34.1328H223.496V29.1016H208.895V27.0234H226.121Z" fill="white"/>
<path d="M106.756 59H103.543V49.1016H106.852C109.764 49.1016 111.514 50.9609 111.514 54.0371C111.514 57.127 109.764 59 106.756 59ZM105.047 57.6875H106.674C108.916 57.6875 110.024 56.375 110.024 54.0371C110.024 51.7129 108.916 50.4141 106.756 50.4141H105.047V57.6875ZM116.953 49.1016V59H115.449V49.1016H116.953ZM122.051 59H120.451L124.006 49.1016H125.742L129.311 59H127.711L126.809 56.3887H122.953L122.051 59ZM123.391 55.1309H126.371L124.908 50.9062H124.84L123.391 55.1309ZM132.808 59V49.1016H136.336C138.633 49.1016 139.767 50.3867 139.767 52.2051C139.767 53.5381 139.166 54.5498 137.963 54.9941L140.15 59H138.441L136.431 55.2676H136.336H134.312V59H132.808ZM134.312 53.9688H136.185C137.648 53.9688 138.25 53.3262 138.25 52.2051C138.25 51.084 137.648 50.3867 136.185 50.3867H134.312V53.9688ZM142.554 49.1016H144.263L146.834 53.5859H146.943L149.527 49.1016H151.236L147.64 55.1172V59H146.136V55.1172L142.554 49.1016Z" fill="white"/>
</svg>
