<svg width="38" height="38" viewBox="0 0 38 38" fill="none" xmlns="http://www.w3.org/2000/svg">
<path d="M30.9469 23.9863H7.02846L4.27808 28.6522H33.7219L30.9469 23.9863Z" fill="url(#paint0_linear_491_959)"/>
<path opacity="0.2" d="M7.98618 23.3237H29.9892L32.8624 28.1614H5.13757L7.98618 23.3237ZM7.69149 22.8325L4.27808 28.6525H33.7219L30.2593 22.8325H7.69149Z" fill="#424242"/>
<path d="M9.87694 24.6987H8.3053L8.50175 24.2812H10.098L9.87694 24.6987Z" fill="#F5F5F5"/>
<path d="M12.3572 24.6987H10.761L10.9574 24.2812H12.5782L12.3572 24.6987Z" fill="#F5F5F5"/>
<path d="M14.7147 24.6987H13.1185L13.3395 24.2812H14.9357L14.7147 24.6987Z" fill="#F5F5F5"/>
<path d="M17.0476 24.6987H15.476L15.7215 24.2812H17.1949L17.0476 24.6987Z" fill="#F5F5F5"/>
<path d="M19.3559 24.6987H17.7843L17.9071 24.2812H19.2332L19.3559 24.6987Z" fill="#F5F5F5"/>
<path d="M21.7134 24.6987H20.1418L19.9453 24.2812H21.4433L21.7134 24.6987Z" fill="#F5F5F5"/>
<path d="M24.12 24.6987H22.5483L22.2537 24.2812H23.8253L24.12 24.6987Z" fill="#F5F5F5"/>
<path d="M26.453 24.6987H24.8814L24.5867 24.2812H26.1829L26.453 24.6987Z" fill="#F5F5F5"/>
<path d="M29.6208 24.6987H27.2633L26.9441 24.2812H29.3998L29.6208 24.6987Z" fill="#F5F5F5"/>
<path d="M28.4175 25.3128H29.9891L29.719 24.9199H28.1228L28.4175 25.3128Z" fill="#F5F5F5"/>
<path d="M25.839 25.3128H27.4107L27.116 24.9199H25.5198L25.839 25.3128Z" fill="#F5F5F5"/>
<path d="M23.4816 25.3128H25.0532L24.7831 24.9199H23.2114L23.4816 25.3128Z" fill="#F5F5F5"/>
<path d="M20.9275 25.3128H22.5237L22.229 24.9199H20.7556L20.9275 25.3128Z" fill="#F5F5F5"/>
<path d="M18.6683 25.3128H20.2645L20.0681 24.9199H18.742L18.6683 25.3128Z" fill="#F5F5F5"/>
<path d="M16.4092 25.3128H17.9808L18.0791 24.9199H16.5565L16.4092 25.3128Z" fill="#F5F5F5"/>
<path d="M13.9288 25.3128H15.5005L15.6969 24.9199H14.1744L13.9288 25.3128Z" fill="#F5F5F5"/>
<path d="M11.1786 25.3128H12.7502L12.9958 24.9199H11.4242L11.1786 25.3128Z" fill="#F5F5F5"/>
<path d="M7.93701 25.3128H10.319L10.5646 24.9199H8.18258L7.93701 25.3128Z" fill="#F5F5F5"/>
<path d="M22.9167 25.9512H24.5129L24.2428 25.5337H22.6466L22.9167 25.9512Z" fill="#F5F5F5"/>
<path d="M20.412 25.9512H21.9836L21.7626 25.5337H20.2892L20.412 25.9512Z" fill="#F5F5F5"/>
<path d="M17.4406 25.9512H19.0122L18.9631 25.5337H17.5633L17.4406 25.9512Z" fill="#F5F5F5"/>
<path d="M14.6165 25.9512H16.1881L16.3354 25.5337H14.8129L14.6165 25.9512Z" fill="#F5F5F5"/>
<path d="M11.6205 25.9512H13.2167L13.4623 25.5337H11.8906L11.6205 25.9512Z" fill="#F5F5F5"/>
<path d="M7.64233 25.9512H10.7856L11.0558 25.5337H7.86335L7.64233 25.9512Z" fill="#F5F5F5"/>
<path d="M25.5934 25.9513H30.3329L30.0627 25.5093H25.3232L25.5934 25.9513Z" fill="#F5F5F5"/>
<path d="M29.2034 26.5644H30.775L30.4558 26.147H28.8842L29.2034 26.5644Z" fill="#F5F5F5"/>
<path d="M26.2565 26.5644H27.8281L27.5335 26.147H25.9373L26.2565 26.5644Z" fill="#F5F5F5"/>
<path d="M13.6342 26.5644H24.3901L24.1445 26.147H13.8797L13.6342 26.5644Z" fill="#F5F5F5"/>
<path d="M10.27 26.5644H11.8417L12.0381 26.147H10.491L10.27 26.5644Z" fill="#F5F5F5"/>
<path d="M7.24939 26.5644H8.82104L9.01749 26.147H7.4704L7.24939 26.5644Z" fill="#F5F5F5"/>
<path d="M13.4623 27.6451H24.4638L23.9972 26.7856H13.9289L13.4623 27.6451Z" fill="#F5F5F5"/>
<path d="M33.1816 29.6345H4.79377C4.49909 29.6345 4.27808 29.3889 4.27808 29.1188V28.6768H33.7219V29.1188C33.7219 29.3889 33.4763 29.6345 33.1816 29.6345Z" fill="#9E9E9E"/>
<path opacity="0.2" d="M33.4763 28.8979V29.0944C33.4763 29.2417 33.3535 29.3645 33.2062 29.3645H4.79377C4.64643 29.3645 4.52365 29.2417 4.52365 29.0944V28.8979H33.4763ZM33.7219 28.6523H4.27808V29.0944C4.27808 29.3891 4.52365 29.6101 4.79377 29.6101H33.1816C33.4763 29.6101 33.6973 29.3645 33.6973 29.0944V28.6523H33.7219Z" fill="#424242"/>
<path d="M30.9469 23.9866H7.02844V8.68759C7.02844 8.29468 7.34768 8 7.71604 8H30.2348C30.6277 8 30.9224 8.31924 30.9224 8.68759L30.9469 23.9866Z" fill="url(#paint1_linear_491_959)"/>
<path opacity="0.2" d="M30.2348 8.49114C30.3576 8.49114 30.4312 8.58937 30.4312 8.68759V23.4954H7.51958V8.68759C7.51958 8.56481 7.61781 8.49114 7.71604 8.49114H30.2348ZM30.2348 8H7.71604C7.32313 8 7.02844 8.31924 7.02844 8.68759V23.9866H30.9469V8.68759C30.9469 8.29468 30.6277 8 30.2348 8Z" fill="#424242"/>
<path d="M9.18945 9.76855H28.7614V22.0225H9.18945V9.76855Z" fill="#616161"/>
<defs>
<linearGradient id="paint0_linear_491_959" x1="19" y1="28.646" x2="19" y2="24.0119" gradientUnits="userSpaceOnUse">
<stop stop-color="#E0E0E0"/>
<stop offset="1" stop-color="#9E9E9E"/>
</linearGradient>
<linearGradient id="paint1_linear_491_959" x1="18.9877" y1="8.02772" x2="18.9877" y2="23.8812" gradientUnits="userSpaceOnUse">
<stop offset="0.0056401" stop-color="#E0E0E0"/>
<stop offset="0.9988" stop-color="#9E9E9E"/>
</linearGradient>
</defs>
</svg>
