<svg width="24" height="24" viewBox="0 0 24 24" fill="none" xmlns="http://www.w3.org/2000/svg">
<g clip-path="url(#clip0_127_2363)">
<path d="M22.9821 7.87437C22.3034 7.19583 21.4997 6.85654 20.5712 6.85654H15.5624C15.7589 6.32088 15.8571 5.74944 15.8571 5.14225C15.8571 4.05307 15.4932 3.20942 14.7655 2.61105C14.0376 2.01291 13.1159 1.71387 11.9999 1.71387C11.6606 1.71387 11.3502 1.79197 11.069 1.94832C10.7877 2.10443 10.5421 2.32556 10.3323 2.61105C10.1226 2.89677 9.94178 3.17803 9.79008 3.45489C9.63814 3.7317 9.47292 4.05307 9.29444 4.4191C9.1159 4.78537 8.96865 5.06204 8.8526 5.24963C8.54014 5.74076 8.09361 6.31643 7.5134 6.97723C7.49548 7.00402 7.43295 7.07996 7.32581 7.20493C7.21867 7.32999 7.13381 7.42596 7.07138 7.4929C7.00894 7.55984 6.91751 7.65586 6.79687 7.78088C6.67612 7.90594 6.56898 8.00627 6.47535 8.08222C6.38158 8.15816 6.2812 8.23843 6.17401 8.32333C6.06687 8.40819 5.96193 8.47063 5.85925 8.51092C5.75666 8.55103 5.66068 8.5711 5.57142 8.5711H1.71438C1.24107 8.5711 0.836996 8.7388 0.502207 9.0735C0.167512 9.40805 0 9.81213 0 10.2853V18.8568C0 19.33 0.167324 19.734 0.502207 20.0689C0.837183 20.4036 1.24102 20.5712 1.71438 20.5712H5.57142C6.09811 20.5712 7.09356 20.8348 8.55792 21.3615C10.2453 21.9776 11.6828 22.2853 12.8703 22.2853C14.1292 22.2853 15.1426 21.9259 15.9105 21.2072C16.6783 20.4887 17.0579 19.5089 17.0488 18.2675C17.5848 17.5799 17.8526 16.7853 17.8526 15.8836C17.8526 15.6873 17.8391 15.4953 17.8125 15.3078C18.1072 14.7989 18.2724 14.2676 18.3082 13.7141H20.5716C21.5091 13.7141 22.315 13.3749 22.9892 12.6963C23.6631 12.0178 24.0001 11.2099 24.0001 10.2725C23.9998 9.35265 23.6605 8.55347 22.9821 7.87437ZM3.17409 18.6025C3.00437 18.7721 2.80356 18.8569 2.57145 18.8569C2.33916 18.8569 2.13825 18.7721 1.96867 18.6025C1.79896 18.4328 1.71424 18.232 1.71424 17.9998C1.71424 17.7677 1.799 17.5667 1.96867 17.3972C2.13844 17.2275 2.33916 17.1426 2.57145 17.1426C2.80356 17.1426 3.00437 17.2275 3.17409 17.3972C3.34371 17.5667 3.42852 17.7676 3.42852 17.9998C3.42852 18.232 3.34367 18.4328 3.17409 18.6025ZM21.7765 11.4915C21.4375 11.8308 21.0352 12.0003 20.5709 12.0003H16.1381C16.2719 12.152 16.3835 12.3643 16.4728 12.6365C16.5622 12.9088 16.6068 13.1566 16.6068 13.3798C16.6068 13.9959 16.3702 14.5269 15.897 14.9732C16.0578 15.259 16.1381 15.5672 16.1381 15.8974C16.1381 16.2278 16.0599 16.5558 15.9037 16.8817C15.7474 17.2074 15.5353 17.4418 15.2674 17.5847C15.312 17.8521 15.3345 18.1024 15.3345 18.3347C15.3345 19.8253 14.4908 20.5708 12.8033 20.5708C12.08 20.5708 11.2786 20.428 10.3992 20.1425C9.51979 19.857 8.65596 19.5711 7.8077 19.2853C6.95945 18.9998 6.21402 18.8569 5.57109 18.8569H5.14258V10.2857H5.57109C6.20497 10.2857 6.82989 10.0312 7.44599 9.52209C7.71398 9.29871 8.16487 8.82544 8.7987 8.10234C9.44164 7.37924 9.94168 6.73209 10.2987 6.1605C10.4148 5.97291 10.58 5.68274 10.7943 5.28992C11.3836 4.0488 11.7854 3.42839 11.9998 3.42839C12.6337 3.42839 13.1493 3.56452 13.5466 3.83673C13.944 4.10913 14.1425 4.54426 14.1425 5.14244C14.1425 5.52643 14.0756 5.90368 13.9417 6.27416C13.8077 6.64465 13.6605 6.94834 13.4998 7.18485C13.3391 7.42137 13.1917 7.66698 13.0578 7.92146C12.9239 8.1759 12.857 8.39248 12.857 8.57096H20.5713C21.0175 8.57096 21.415 8.74288 21.7633 9.08659C22.1114 9.43052 22.2854 9.82976 22.2854 10.2852C22.2854 10.7499 22.1159 11.1517 21.7765 11.4915Z" fill="#121212"/>
</g>
<defs>
<clipPath id="clip0_127_2363">
<rect width="24" height="24" fill="white"/>
</clipPath>
</defs>
</svg>
