<svg width="29" height="28" viewBox="0 0 29 28" fill="none" xmlns="http://www.w3.org/2000/svg">
<path d="M23.2793 2.01736L20.4749 0.410618C20.3522 0.321138 20.2207 0.245655 20.0809 0.184891L20.0396 0.161508L20.0378 0.165007C19.2834 -0.141701 18.3088 -0.0310038 17.2457 0.582634L8.60773 5.56911C6.23272 6.94046 4.28955 10.3062 4.28955 13.049V23.0221C4.28955 24.3596 4.75394 25.3081 5.503 25.7734L5.49578 25.7865L8.61256 27.5525L10.3652 24.5008L17.2457 20.5289C19.6202 19.1576 21.5638 15.7916 21.5638 13.0491V5.00374L23.2793 2.01736Z" fill="#DCF1F9"/>
<path d="M23.2793 2.01771L20.2773 1.31353C20.1547 1.22428 19.5417 1.22644 19.4019 1.16524L19.1792 1.07642L18.7787 1.00183C18.0242 0.69512 18.3088 -0.0308807 17.2457 0.582701L8.60773 5.5694C6.23272 6.94075 4.28955 10.3065 4.28955 13.0492V23.0224C4.28955 24.3599 4.75394 25.3084 5.503 25.7737L5.49578 25.7868L8.61257 27.5528L10.3652 24.5011L17.2457 20.5292C19.6202 19.1579 21.5638 15.7919 21.5638 13.0494V5.00408L23.2793 2.01771Z" fill="#CCE6F2"/>
<path d="M4.45407 11.6123C4.34926 12.1006 4.28955 12.584 4.28955 13.0491V23.0223C4.28955 24.3597 4.75394 25.3082 5.503 25.7735L5.49578 25.7866L8.61256 27.5526L10.3652 24.501L17.2457 20.529C17.6491 20.2961 18.0391 20.0018 18.4099 19.6661L4.45407 11.6123Z" fill="#BFD9E8"/>
<path d="M11.5764 7.29034C9.20142 8.66147 7.25781 12.0276 7.25781 14.7702V24.7436C7.25781 27.4861 9.20142 28.6081 11.5764 27.2365L20.2137 22.25C22.5887 20.8789 24.5323 17.5129 24.5323 14.7702V4.79702C24.5323 2.05453 22.5887 0.932731 20.2137 2.30408L11.5764 7.29034Z" fill="white"/>
<path opacity="0.1" d="M24.5323 4.79702C24.5323 2.05453 22.5887 0.932731 20.2137 2.30408L11.5764 7.29034C9.20142 8.66147 7.25781 12.0276 7.25781 14.7702V24.7436C7.25781 27.4861 9.20142 28.6081 11.5764 27.2365" fill="#5BC0D8"/>
<path d="M9.6581 28.0003H9.65766C8.09179 28.0003 7.08008 26.7222 7.08008 24.7439V14.7706C7.08008 11.9644 9.05696 8.53959 11.4871 7.13652L20.1248 2.15004C20.825 1.7458 21.5005 1.54102 22.1325 1.54102C23.6983 1.54102 24.7105 2.81939 24.7105 4.79738V14.7708C24.7105 17.5772 22.7332 21.0017 20.3031 22.4048L11.6654 27.3913C10.9652 27.7954 10.2901 28.0003 9.6581 28.0003ZM22.1328 1.8971C21.564 1.8971 20.9484 2.08589 20.3033 2.45797L11.6654 7.44489C9.33351 8.79131 7.43605 12.0777 7.43605 14.7705V24.7439C7.43605 26.5329 8.28725 27.6441 9.65771 27.6441H9.65816C10.2269 27.6441 10.8421 27.4553 11.4871 27.0832L20.1248 22.0963C22.4567 20.7501 24.3542 17.4635 24.3542 14.7707V4.79738C24.3544 3.0084 23.5032 1.8971 22.1328 1.8971Z" fill="white"/>
<path d="M16.0961 8.33058C12.8559 10.2016 10.2383 14.7473 10.2486 18.4838C10.2571 21.4733 11.9455 23.0393 14.2793 22.5885C14.3156 22.5749 14.3491 22.5594 14.38 22.5415C14.5976 22.4154 14.6794 22.189 14.6792 22.0326C14.6786 21.8712 14.6729 21.4477 14.6678 20.8846C14.448 21.0671 14.2518 21.2042 14.0763 21.3051C12.9495 21.9559 12.6885 21.12 12.6885 21.12C12.419 20.4915 12.034 20.5064 12.034 20.5064C11.523 20.3979 12.0265 20.0985 12.0712 20.0728C12.0734 20.0715 12.0743 20.0711 12.0743 20.0711C12.6616 19.7795 12.9736 20.2505 12.9736 20.2505C13.2682 20.6582 13.6622 20.5922 14.0113 20.3909C14.2874 20.2317 14.5353 19.9878 14.6824 19.8263C14.7343 19.3573 14.8852 18.9725 15.0526 18.7066C13.749 19.2884 12.3779 19.4986 12.3706 16.9058C12.3687 16.166 12.5962 15.429 12.9692 14.7408C12.9095 14.6025 12.7062 14.0329 13.0219 12.9161C13.0219 12.9161 13.0645 12.8759 13.1529 12.8247C13.3655 12.7018 13.8444 12.5167 14.6373 12.6786C15.1042 12.2592 15.6053 11.8937 16.105 11.6032C16.6035 11.3173 17.1051 11.1038 17.5741 10.9829C18.3638 9.9075 18.8412 9.54064 19.0531 9.41811C19.1417 9.36757 19.1841 9.3584 19.1841 9.3584C19.5066 10.1067 19.3073 10.9089 19.2469 11.1167C19.6243 11.3718 19.8537 11.8447 19.8557 12.5846C19.8632 15.1836 18.4922 16.5484 17.186 17.4693C17.3978 17.5562 17.5872 17.8609 17.5888 18.492C17.5914 19.3983 17.5851 20.1311 17.5857 20.3549C17.5862 20.5117 17.6669 20.6454 17.8848 20.5194C17.9172 20.5006 17.9528 20.4768 17.9909 20.4459C20.316 18.205 21.9883 14.7006 21.9798 11.7111C21.9696 7.97378 19.3347 6.46129 16.0961 8.33058Z" fill="#2F3638"/>
<path d="M21.6741 9.74741C20.8909 7.50564 18.6876 6.83424 16.0961 8.33012C12.8559 10.2011 10.2383 14.7468 10.2486 18.4834C10.2571 21.4639 11.9358 23.0284 14.2588 22.5909L14.6779 21.8651C14.6757 21.6514 14.6716 21.3075 14.6678 20.8842C14.448 21.0667 14.2518 21.2038 14.0763 21.3047C12.9495 21.9555 12.6885 21.1196 12.6885 21.1196C12.419 20.4911 12.034 20.506 12.034 20.506C11.523 20.3975 12.0265 20.098 12.0712 20.0724C12.0734 20.0711 12.0743 20.0707 12.0743 20.0707C12.6616 19.7791 12.9736 20.2501 12.9736 20.2501C13.2682 20.6578 13.6622 20.5918 14.0113 20.3905C14.2874 20.2313 14.5353 19.9874 14.6824 19.8259C14.7343 19.3569 14.8852 18.9721 15.0526 18.7061C13.749 19.288 12.3779 19.4982 12.3706 16.9054C12.3687 16.1656 12.5962 15.4286 12.9692 14.7404C12.9095 14.6021 12.7062 14.0325 13.0219 12.9157C13.0219 12.9157 13.0645 12.8755 13.1529 12.8243C13.3655 12.7014 13.8444 12.5163 14.6373 12.6782C15.1042 12.2588 15.6053 11.8933 16.105 11.6028C16.6035 11.3169 17.1051 11.1034 17.5741 10.9825C18.3638 9.9071 18.8412 9.54023 19.0531 9.41771C19.1417 9.36716 19.1841 9.358 19.1841 9.358C19.5066 10.1063 19.3073 10.9085 19.2469 11.1163C19.6243 11.3714 19.8537 11.8443 19.8557 12.5842C19.8562 12.6977 19.8504 12.8058 19.8457 12.9147L21.6741 9.74741Z" fill="black"/>
<path d="M17.186 17.4691C17.1937 17.4724 17.2011 17.4779 17.2088 17.4817L17.2377 17.4316C17.2206 17.4439 17.2033 17.457 17.186 17.4691Z" fill="black"/>
</svg>
