<svg width="56" height="68" viewBox="0 0 56 68" fill="none" xmlns="http://www.w3.org/2000/svg">
<path d="M26.3325 62.1521C24.3595 60.2486 6.03836 38.8299 5.83357 38.5957C5.02441 37.623 4.51493 36.6142 4.37507 35.6895C4.23022 34.7287 4.47497 33.8881 5.1243 33.1074C5.72868 32.3809 6.46792 31.9966 7.2621 31.9966C8.23111 31.9966 9.22509 32.549 10.0542 33.5518L18.3607 43.1473C18.5055 43.3154 18.6953 43.3995 18.8802 43.3995C19.075 43.3995 19.2648 43.3094 19.4096 43.1353C19.6993 42.787 19.6993 42.2226 19.4146 41.8743L6.15324 25.4094C4.82461 23.8122 4.20025 21.3683 5.77863 19.4708C6.38301 18.7442 7.12225 18.3599 7.91643 18.3599C8.88544 18.3599 9.87941 18.9124 10.7086 19.9151L24.2746 35.8156C24.4195 35.9837 24.6093 36.0738 24.7991 36.0738C24.9889 36.0738 25.1837 35.9837 25.3285 35.8096C25.6182 35.4613 25.6232 34.8968 25.3335 34.5426L9.04028 14.4629C8.28605 13.5562 7.83152 12.4693 7.7516 11.4125C7.67668 10.3377 7.99135 9.34089 8.66566 8.53026C9.27004 7.80369 10.0093 7.4194 10.8035 7.4194C11.7725 7.4194 12.7664 7.97183 13.5956 8.96861L30.2135 28.4478C30.3584 28.6159 30.5482 28.706 30.738 28.706C30.9278 28.706 31.1226 28.6159 31.2674 28.4418C31.5571 28.0935 31.5621 27.5291 31.2724 27.1748L19.2048 12.2652C18.4456 11.3525 17.9911 10.2716 17.9161 9.2148C17.8412 8.13996 18.1559 7.14318 18.8302 6.33255C19.4346 5.60598 20.1738 5.22168 20.968 5.22168C21.937 5.22168 22.931 5.77411 23.7601 6.77689C28.1856 12.001 39.7387 25.6616 40.1283 26.166C41.6118 27.397 41.9115 25.5355 41.9864 24.3286C42.0713 22.9235 40.7327 18.0177 41.5119 13.6042C42.8205 7.73764 46.5917 8.69839 46.6766 8.74643C48.7444 9.91134 48.3499 11.6527 47.6156 15.1534L47.5407 15.844C46.7715 20.4195 52.056 33.9781 52.4456 34.9929C54.5185 40.4452 56.9061 51.4998 48.9992 61.0052C40.3331 71.4234 29.6041 66.0852 26.3325 62.1521Z" fill="url(#paint0_radial_604_185)"/>
<path d="M37.451 68C32.1365 68 27.6161 64.9436 25.833 62.824C24.2296 61.2508 14.11 49.5056 5.86849 39.8921C5.53383 39.5018 5.33903 39.2796 5.31905 39.2496C4.38501 38.1267 3.80561 36.9558 3.64078 35.8509C3.45097 34.5959 3.77564 33.4611 4.5948 32.4703C5.34403 31.5696 6.26308 31.0952 7.26206 31.0952C8.43585 31.0952 9.61464 31.7437 10.5836 32.9146L18.8801 42.4981L5.61375 26.0333C4.08532 24.1958 3.31611 21.1515 5.24913 18.8336C5.99835 17.9329 6.91741 17.4586 7.91638 17.4586C9.09017 17.4586 10.269 18.1071 11.238 19.278L24.794 35.1664L8.50578 15.0927C7.63667 14.0479 7.10222 12.7689 7.00732 11.4959C6.91241 10.1389 7.30201 8.89588 8.13616 7.8931C8.88539 6.9924 9.80444 6.51803 10.8034 6.51803C11.9722 6.51803 13.151 7.16053 14.125 8.33144L30.7379 27.8046L18.6703 12.895C17.7962 11.8442 17.2618 10.5652 17.1719 9.29219C17.077 7.94114 17.4666 6.69817 18.3007 5.69539C19.0499 4.79468 19.969 4.32031 20.968 4.32031C22.1418 4.32031 23.3205 4.96882 24.2895 6.13973L27.8908 10.385C34.3092 17.951 39.6737 24.2859 40.2481 24.9945C40.5278 25.2647 40.8925 25.3667 41.0473 25.2767C41.1472 25.2166 41.2571 24.9404 41.2371 24.358C41.2071 23.3372 41.0873 22.0702 40.9624 20.7311C40.7127 18.041 40.4529 15.2548 40.7776 13.4174C41.4869 10.2289 42.8804 8.87787 43.9194 8.29542C45.3479 7.5028 46.7315 7.77901 46.9962 7.92913C49.5935 9.39427 49.079 11.8442 48.3698 15.2428L48.3548 15.3269L48.2749 16.0295C47.7554 19.1039 50.4227 27.6005 53.0899 34.5239L53.1299 34.62C54.913 39.3036 58.1247 51.319 49.5336 61.6471C45.5826 66.3848 41.307 68 37.451 68ZM7.26206 32.8966C6.67266 32.8966 6.11324 33.1909 5.65371 33.7433C5.1792 34.3137 5.01437 34.8662 5.11426 35.5267C5.22415 36.2532 5.66869 37.1179 6.36298 37.9586C6.36797 37.9646 6.56777 38.1988 6.91241 38.5951C18.6104 52.2437 25.6731 60.3561 26.802 61.4489L26.8619 61.515C29.6191 64.8296 39.8635 70.7142 48.4697 60.3681C56.3965 50.8386 53.4146 39.7119 51.7613 35.3646L51.7263 35.2745C50.0081 30.819 46.1021 20.0106 46.7964 15.6992L46.9113 14.7985C47.6805 11.1236 47.7254 10.355 46.4218 9.59843C46.0372 9.51437 43.28 9.11205 42.2261 13.8377C41.9614 15.3449 42.2161 18.1011 42.4409 20.533C42.5707 21.908 42.6906 23.2111 42.7206 24.2979C42.7705 26.0092 42.0962 26.6638 41.6866 26.9039C40.8525 27.3903 39.8585 26.976 39.2392 26.3515L39.1742 26.2795C38.8695 25.8831 31.622 17.3385 26.8269 11.6821L23.2206 7.42474C21.9919 5.94158 20.4085 5.69539 19.3446 6.97438C18.8252 7.59887 18.5904 8.33144 18.6453 9.14208C18.7053 9.98874 19.0849 10.8714 19.7192 11.634L31.8118 26.5437C32.3812 27.2402 32.3812 28.3811 31.8018 29.0776C31.2474 29.7442 30.2684 29.7562 29.699 29.0957L13.0711 9.61044C11.8423 8.13329 10.254 7.8871 9.19507 9.1661C8.6756 9.79058 8.44084 10.5232 8.49579 11.3338C8.56072 12.1804 8.94033 13.0691 9.56968 13.8197L25.8679 33.9114C26.4423 34.608 26.4373 35.7488 25.8579 36.4454C25.3035 37.1119 24.3245 37.1239 23.7551 36.4634L10.1841 20.557C8.95531 19.0678 7.36695 18.8276 6.30804 20.1066C5.01437 21.6619 5.70366 23.5894 6.68265 24.7723L19.954 41.2491C20.5234 41.9457 20.5184 43.0806 19.939 43.7711C19.3796 44.4436 18.4106 44.4496 17.8412 43.7951L9.53472 34.1996C8.83544 33.353 8.03126 32.8966 7.26206 32.8966Z" fill="#EDA600"/>
<path d="M38.9346 25.5833C36.1924 32.3145 36.547 41.7359 40.6628 49.2958C41.1273 50.3166 41.9215 49.8182 41.5169 48.7674C36.547 35.9834 41.7567 26.7722 41.7567 26.7722L38.9346 25.5833Z" fill="#EDA600"/>
<path d="M28.1505 0.339502C29.659 -0.134869 31.2673 -0.0928358 32.8307 0.345506C34.3841 0.795858 35.9375 1.7446 37.0913 3.29381C38.2202 4.83101 38.9144 6.69847 39.1492 8.65599C39.369 10.5955 39.1642 12.5951 38.4 14.2524C38.3101 12.3909 38.0403 10.6796 37.5858 9.10034C37.3511 8.31373 37.0763 7.56314 36.7417 6.85459C36.412 6.15204 36.0224 5.4555 35.6078 4.88505C34.7637 3.71414 33.6199 2.80142 32.3362 2.09287C31.0475 1.3603 29.644 0.819877 28.1505 0.339502Z" fill="#B0BEC5"/>
<path d="M28.5652 6.03208C29.3993 5.39558 30.4433 5.26348 31.4272 5.47365C32.4212 5.68381 33.3702 6.27827 34.1195 7.10092C34.8637 7.93557 35.3932 8.98639 35.7228 10.0792C35.8827 10.6257 35.9626 11.2021 36.0375 11.7606C36.0625 12.337 36.0625 12.9135 35.9876 13.4899C35.6429 13.0516 35.3732 12.6132 35.1184 12.1869C34.8238 11.7846 34.594 11.3582 34.3293 10.9679C33.8098 10.1933 33.3053 9.49078 32.7609 8.86629C32.2014 8.25982 31.6121 7.7254 30.9278 7.26304C30.2485 6.78867 29.4842 6.39236 28.5652 6.03208Z" fill="#90A4AE"/>
<path d="M0.00954668 44.0776C0.713822 45.7349 1.44807 47.2721 2.30219 48.6292C3.15132 49.9863 4.12531 51.1392 5.25915 51.8897C5.80858 52.256 6.46291 52.5743 7.10225 52.8145C7.74659 53.0607 8.4159 53.2288 9.10519 53.3429C10.4838 53.547 11.9323 53.511 13.4657 53.2288C12.2769 54.4718 10.6886 55.1323 9.07023 55.2764C7.43191 55.4085 5.76862 54.9822 4.28015 53.9734C2.7817 52.9466 1.68283 51.3133 0.993535 49.5779C0.304244 47.8306 -0.0653763 45.9511 0.00954668 44.0776Z" fill="#B0BEC5"/>
<path d="M4.72973 43.3752C5.21423 44.384 5.69373 45.1947 6.2182 45.9032C6.73766 46.6118 7.29709 47.1942 7.90646 47.7226C8.52582 48.233 9.20512 48.6834 9.94436 49.1337C10.314 49.3619 10.7086 49.5421 11.0982 49.8063C11.5028 50.0164 11.9123 50.2386 12.3419 50.5568C11.8874 50.761 11.4228 50.8811 10.9483 50.9712C10.4788 50.9952 9.99431 51.0252 9.51481 50.9472C8.55579 50.791 7.59678 50.3887 6.75764 49.6862C5.93349 48.9716 5.24919 47.9808 4.87458 46.858C4.49497 45.7411 4.38508 44.4921 4.72973 43.3752Z" fill="#90A4AE"/>
<defs>
<radialGradient id="paint0_radial_604_185" cx="0" cy="0" r="1" gradientUnits="userSpaceOnUse" gradientTransform="translate(18.5985 20.4555) rotate(-50.2454) scale(50.2626 49.4224)">
<stop offset="0.3533" stop-color="#FFCA28"/>
<stop offset="0.8723" stop-color="#FFB300"/>
</radialGradient>
</defs>
</svg>
