<svg width="28" height="28" viewBox="0 0 28 28" fill="none" xmlns="http://www.w3.org/2000/svg">
<path d="M5.92816 0H7.18597V1.24687H8.34535V0H9.60316V3.77344H8.34535V2.51562H7.19691V3.77344H5.92816V0ZM11.2657 1.25781H10.1555V0H13.6391V1.25781H12.5235V3.77344H11.2657V1.25781ZM14.1914 0H15.5094L16.3188 1.32891L17.1282 0H18.4461V3.77344H17.1883V1.90312L16.3079 3.25937L15.4274 1.90312V3.77344H14.1914V0ZM19.0696 0H20.3274V2.52656H22.1102V3.77344H19.0696V0Z" fill="black"/>
<path d="M5.8844 25.7582L4.07971 5.50195H23.9203L22.1156 25.7473L13.9836 28.0004" fill="#FF4C1E"/>
<path d="M14 26.2773V7.16406H22.1102L20.5625 24.4453L14 26.2773Z" fill="#FF651E"/>
<path d="M7.76562 9.6416H14L14.927 10.883L14 12.1244H10.4891L10.7188 14.6674H14L14.927 15.9552L14 17.1447H8.44375L7.76562 9.6416ZM8.55312 18.3916H11.0469L11.2219 20.3768L14 21.1205L15.046 22.3597L14 23.7127L8.90313 22.2908L8.55312 18.3916Z" fill="#EBEBEB"/>
<path d="M20.2125 9.6416H13.9891V12.1244H19.9828L20.2125 9.6416ZM19.7586 14.6674H13.9891V17.1502H17.0516L16.7617 20.3768L13.9891 21.1205V23.7018L19.075 22.2908L19.7586 14.6674Z" fill="white"/>
</svg>
