<svg width="254" height="76" viewBox="0 0 254 76" fill="none" xmlns="http://www.w3.org/2000/svg">
<path d="M31.4414 38V16.7891H39C43.9219 16.7891 46.3535 19.748 46.3535 23.6738C46.3535 27.5703 43.9219 30.5586 39 30.5586H34.6641V38H31.4414ZM34.6641 27.8047H38.6777C41.8125 27.8047 43.1016 26.0469 43.1016 23.6738C43.1016 21.2715 41.8125 19.543 38.6777 19.543H34.6641V27.8047ZM65.0215 38.3223C60.5098 38.3223 57.5801 35.041 57.5801 30.1191C57.5801 25.168 60.5098 21.8867 65.0215 21.8867C69.5039 21.8867 72.4336 25.168 72.4336 30.1191C72.4336 35.041 69.5039 38.3223 65.0215 38.3223ZM65.0215 35.7148C67.8926 35.7148 69.2695 33.166 69.2695 30.1191C69.2695 27.0723 67.8926 24.4648 65.0215 24.4648C62.0918 24.4648 60.7148 27.0723 60.7148 30.1191C60.7148 33.166 62.0918 35.7148 65.0215 35.7148ZM84.5098 38V22.0918H87.5273V24.6113H87.7031C88.2891 22.9121 89.8711 21.8574 91.7461 21.8574C92.127 21.8574 92.7422 21.8867 93.0645 21.916V24.9043C92.8008 24.8457 92.0684 24.7285 91.4238 24.7285C89.2559 24.7285 87.6445 26.2227 87.6445 28.3027V38H84.5098ZM112.787 22.0918V24.582H109.535V33.3125C109.535 35.0996 110.443 35.4219 111.439 35.4512C111.879 35.4512 112.582 35.3926 113.021 35.3633V38.0879C112.582 38.1465 111.908 38.2051 111.059 38.2051C108.598 38.2051 106.4 36.8574 106.43 33.957V24.582H104.086V22.0918H106.43V18.2832H109.535V22.0918H112.787ZM125.449 38V16.7891H133.008C137.93 16.7891 140.361 19.748 140.361 23.6738C140.361 27.5703 137.93 30.5586 133.008 30.5586H128.672V38H125.449ZM128.672 27.8047H132.686C135.82 27.8047 137.109 26.0469 137.109 23.6738C137.109 21.2715 135.82 19.543 132.686 19.543H128.672V27.8047ZM159.029 38.3223C154.518 38.3223 151.588 35.041 151.588 30.1191C151.588 25.168 154.518 21.8867 159.029 21.8867C163.512 21.8867 166.441 25.168 166.441 30.1191C166.441 35.041 163.512 38.3223 159.029 38.3223ZM159.029 35.7148C161.9 35.7148 163.277 33.166 163.277 30.1191C163.277 27.0723 161.9 24.4648 159.029 24.4648C156.1 24.4648 154.723 27.0723 154.723 30.1191C154.723 33.166 156.1 35.7148 159.029 35.7148ZM181.652 16.7891V38H178.518V16.7891H181.652ZM194.461 38V22.0918H197.596V38H194.461ZM196.043 19.6309C194.959 19.6309 194.051 18.8105 194.051 17.7852C194.051 16.7598 194.959 15.9395 196.043 15.9395C197.098 15.9395 198.006 16.7598 198.006 17.7852C198.006 18.8105 197.098 19.6309 196.043 19.6309ZM217.143 38.3223C212.631 38.3223 209.701 35.041 209.701 30.1191C209.701 25.168 212.631 21.8867 217.143 21.8867C221.625 21.8867 224.555 25.168 224.555 30.1191C224.555 35.041 221.625 38.3223 217.143 38.3223ZM217.143 35.7148C220.014 35.7148 221.391 33.166 221.391 30.1191C221.391 27.0723 220.014 24.4648 217.143 24.4648C214.213 24.4648 212.836 27.0723 212.836 30.1191C212.836 33.166 214.213 35.7148 217.143 35.7148Z" fill="white"/>
<path d="M106.442 57.7129C106.346 56.7969 105.54 56.2637 104.405 56.2637C103.188 56.2637 102.422 56.8789 102.422 57.7266C102.422 58.6699 103.448 59.0254 104.227 59.2168L105.184 59.4766C106.456 59.7773 108.028 60.4746 108.041 62.2656C108.028 63.9336 106.702 65.1641 104.364 65.1641C102.149 65.1641 100.754 64.0566 100.659 62.252H102.163C102.258 63.332 103.202 63.8516 104.364 63.8516C105.622 63.8516 106.538 63.209 106.551 62.2383C106.538 61.377 105.731 61.0215 104.678 60.748L103.502 60.4336C101.916 59.9961 100.918 59.1895 100.918 57.8086C100.918 56.0996 102.45 54.9648 104.446 54.9648C106.456 54.9648 107.864 56.1133 107.905 57.7129H106.442ZM120.494 60.0508C120.494 63.209 118.594 65.1367 116.037 65.1367C113.453 65.1367 111.567 63.209 111.567 60.0508C111.567 56.8789 113.453 54.9648 116.037 54.9648C118.594 54.9648 120.494 56.8789 120.494 60.0508ZM119.004 60.0508C119.004 57.6445 117.733 56.3457 116.037 56.3457C114.328 56.3457 113.057 57.6445 113.057 60.0508C113.057 62.457 114.328 63.7559 116.037 63.7559C117.733 63.7559 119.004 62.457 119.004 60.0508ZM124.43 65V55.1016H125.934V59.3945H130.855V55.1016H132.359V65H130.855V60.6797H125.934V65H124.43ZM136.623 65V55.1016H142.83V56.4004H138.127V59.3945H142.502V60.6797H138.127V63.7012H142.885V65H136.623ZM146.916 65V55.1016H153.123V56.4004H148.419V59.3945H152.794V60.6797H148.419V63.7012H153.177V65H146.916Z" fill="white"/>
</svg>
