<svg width="38" height="38" viewBox="0 0 38 38" fill="none" xmlns="http://www.w3.org/2000/svg">
<path d="M8.20411 25.8796C6.10486 27.9788 5.99194 31.8052 5.99194 31.8052C5.99194 31.8052 9.81575 31.6923 11.9176 29.593C14.0194 27.4938 14.8894 24.9608 13.8628 23.9369C12.8363 22.9103 10.3034 23.7803 8.20411 25.8796Z" fill="url(#paint0_linear_491_1144)"/>
<path opacity="0.2" d="M12.6644 24.0181C13.0313 24.0181 13.3111 24.1131 13.4984 24.2979C14.2042 25.0036 13.578 27.2029 11.5532 29.2303C10.0904 30.6931 7.65492 31.1243 6.5514 31.2475C6.67458 30.1439 7.10572 27.7085 8.56596 26.2457C9.91841 24.8907 11.5275 24.0181 12.6644 24.0181ZM12.6644 23.5049C11.43 23.5049 9.7054 24.3774 8.20411 25.8813C6.10486 27.9805 5.99194 31.8069 5.99194 31.8069C5.99194 31.8069 9.81575 31.694 11.9176 29.5948C14.0194 27.4955 14.8894 24.9625 13.8628 23.9386C13.5703 23.6409 13.1571 23.5049 12.6644 23.5049Z" fill="#424242"/>
<path d="M8.84053 26.6179C7.51888 27.9396 7.44702 30.3468 7.44702 30.3468C7.44702 30.3468 9.85423 30.2749 11.1759 28.9533C12.4975 27.6316 13.0467 26.0354 12.4 25.3912C11.7533 24.7471 10.1648 25.2937 8.84053 26.6179Z" fill="url(#paint1_linear_491_1144)"/>
<path d="M11.5505 26.6418C12.808 27.9839 14.4582 27.8428 14.5942 27.6221L15.7439 25.7538C15.8132 25.6409 15.749 25.4613 15.7003 25.4151L12.5976 22.3124C12.5488 22.2636 12.3769 22.2072 12.264 22.2765L10.3957 23.4262C10.1775 23.5622 9.93118 24.9095 11.5505 26.6418Z" fill="#546E7A"/>
<path d="M19.9989 30.0544C19.7423 30.2623 19.3984 30.2161 19.3547 29.9081C19.2341 29.0561 19.3137 27.3444 18.241 26.2717C17.1939 25.2246 15.4924 25.0706 15.4924 25.0706L21.898 21.9141C21.898 21.9141 23.1041 23.7746 22.4394 26.4231C21.8851 28.6121 20.9382 29.2871 19.9989 30.0544Z" fill="#0288D1"/>
<path opacity="0.2" d="M21.5361 22.9483C21.5823 23.074 21.6311 23.2178 21.6747 23.3769C21.8492 24.0133 21.9955 25.027 21.6901 26.2332C21.3026 27.7781 20.7226 28.4402 20.0425 29.0202C19.9553 28.0399 19.7654 26.7054 18.7825 25.725C18.4232 25.3658 18.0023 25.0937 17.5891 24.891L21.5361 22.9483ZM21.8954 21.9141L15.4899 25.0706C15.4899 25.0706 17.1939 25.2272 18.2384 26.2717C19.3111 27.3444 19.2316 29.0561 19.3522 29.9081C19.3778 30.0903 19.5113 30.1827 19.6678 30.1827C19.7756 30.1827 19.8937 30.1391 19.9963 30.0544C20.9356 29.2871 21.8826 28.6121 22.4343 26.4231C23.1041 23.7721 21.8954 21.9141 21.8954 21.9141Z" fill="#424242"/>
<path d="M7.8192 18.2422C7.5677 18.4577 7.65752 18.8427 7.96548 18.8863C8.81749 19.0069 10.5292 18.9274 11.6019 20.0001C12.649 21.0472 12.8671 22.5305 12.8671 22.5305L15.9621 15.9787C15.9621 15.9787 14.3248 15.2114 11.9433 15.8298C10.3008 16.2584 8.67121 17.5082 7.8192 18.2422Z" fill="#0288D1"/>
<path opacity="0.2" d="M13.791 16.3578C14.2196 16.3578 14.5891 16.404 14.8817 16.4604L12.957 20.5409C12.7517 20.1739 12.4873 19.7966 12.146 19.4579C11.235 18.5469 10.0237 18.3185 9.06899 18.2209C9.89791 17.5896 11.0245 16.8659 12.1332 16.5759C12.6875 16.4296 13.2444 16.3578 13.791 16.3578ZM13.791 15.5879C13.2495 15.5879 12.6259 15.652 11.9433 15.8291C10.3008 16.2577 8.67378 17.5075 7.82176 18.2415C7.57026 18.457 7.66008 18.842 7.96804 18.8856C8.82006 19.0062 10.5318 18.9267 11.6045 19.9994C12.6516 21.0464 12.8697 22.5298 12.8697 22.5298L15.9621 15.978C15.9621 15.978 15.1306 15.5879 13.791 15.5879Z" fill="#424242"/>
<path opacity="0.2" d="M12.3359 23.1388L14.8817 25.6846L14.0784 26.9908C14.0527 26.9934 14.0245 26.9934 13.9937 26.9934C13.7448 26.9934 12.8774 26.9293 12.1126 26.1132C11.1451 25.0789 10.9937 24.2706 11.0065 23.9549L12.3359 23.1388ZM12.3898 22.2432C12.3461 22.2432 12.3025 22.2534 12.264 22.274L10.3957 23.4237C10.175 23.5597 9.92866 24.907 11.548 26.6393C12.3718 27.5195 13.365 27.7633 13.9911 27.7633C14.3196 27.7633 14.5455 27.6966 14.5917 27.6196L15.7414 25.7513C15.8107 25.6384 15.7465 25.4588 15.6977 25.4126L12.5976 22.3125C12.5668 22.2817 12.4796 22.2432 12.3898 22.2432Z" fill="#424242"/>
<path d="M24.0896 7.42188C25.1289 7.89921 26.5301 8.72043 27.8672 10.0575C28.3394 10.5297 28.7423 11.0122 29.0913 11.4844C29.7662 12.3954 30.2282 13.2654 30.531 13.9455C29.8561 15.7188 28.5832 17.7821 27.3385 19.0268C22.2546 24.1106 16.6395 27.0131 13.7345 24.9575C13.5651 24.8369 13.3983 24.7265 13.2469 24.5905C10.755 22.3501 13.6087 15.9369 18.7927 10.753C20.0938 9.45183 22.2623 8.12248 24.0896 7.42188Z" fill="url(#paint2_radial_491_1144)"/>
<path d="M22.7371 17.069C23.9986 17.069 25.0212 16.0464 25.0212 14.785C25.0212 13.5236 23.9986 12.501 22.7371 12.501C21.4757 12.501 20.4531 13.5236 20.4531 14.785C20.4531 16.0464 21.4757 17.069 22.7371 17.069Z" fill="#455A64"/>
<path opacity="0.2" d="M22.7372 13.0142C23.2094 13.0142 23.6559 13.199 23.9895 13.5326C24.3231 13.8663 24.5079 14.3128 24.5079 14.785C24.5079 15.2572 24.3231 15.7037 23.9895 16.0374C23.6559 16.371 23.2094 16.5558 22.7372 16.5558C22.2649 16.5558 21.8184 16.371 21.4848 16.0374C20.7944 15.347 20.7944 14.223 21.4848 13.5326C21.8184 13.199 22.2624 13.0142 22.7372 13.0142ZM22.7372 12.501C22.152 12.501 21.5669 12.7242 21.1204 13.1708C20.2273 14.0639 20.2273 15.5087 21.1204 16.4018C21.5669 16.8483 22.152 17.0716 22.7372 17.0716C23.3223 17.0716 23.9074 16.8483 24.3539 16.4018C25.247 15.5087 25.247 14.0639 24.3539 13.1708C23.9074 12.7242 23.3223 12.501 22.7372 12.501Z" fill="#424242"/>
<path d="M18.0254 21.4402C18.9382 21.4402 19.6781 20.7002 19.6781 19.7875C19.6781 18.8747 18.9382 18.1348 18.0254 18.1348C17.1126 18.1348 16.3727 18.8747 16.3727 19.7875C16.3727 20.7002 17.1126 21.4402 18.0254 21.4402Z" fill="#455A64"/>
<path d="M24.0896 7.42222C23.6149 9.76526 27.7518 14.3538 30.5311 13.9458C31.3959 11.7105 31.7501 10.1938 31.9862 7.58389C32.1068 6.26224 31.7193 5.88499 30.4952 6.02871C27.2488 6.40852 25.9656 6.65489 24.0896 7.42222Z" fill="#E53935"/>
<path opacity="0.2" d="M30.9339 6.76989C31.0879 6.76989 31.1649 6.78786 31.1931 6.79812C31.2136 6.84432 31.265 7.02396 31.2213 7.51413C30.9929 10.0419 30.6645 11.4791 29.815 13.6707C29.1632 15.3773 27.9211 17.3559 26.7945 18.4826C22.8654 22.4116 18.7388 24.8547 16.0236 24.8547C15.2922 24.8547 14.6712 24.6777 14.1784 24.3286L14.0938 24.2696C13.9629 24.1798 13.8525 24.1002 13.7601 24.0181C13.3444 23.6434 13.1237 23.0711 13.1032 22.3166C13.0313 19.5707 15.5925 15.0386 19.3342 11.2969C20.507 10.1241 22.5754 8.82551 24.3616 8.14287L24.377 8.13518C26.1914 7.39351 27.454 7.15998 30.5798 6.79299C30.7158 6.77759 30.8338 6.76989 30.9339 6.76989ZM30.9339 6C30.8005 6 30.6568 6.01027 30.4951 6.02823C27.2487 6.40804 25.9655 6.65441 24.0896 7.42174C22.2623 8.11978 20.0938 9.44913 18.7927 10.7503C13.6087 15.9342 10.755 22.3474 13.2469 24.5878C13.3957 24.7213 13.5625 24.8342 13.7345 24.9548C14.376 25.409 15.1511 25.6221 16.0236 25.6221C19.0981 25.6221 23.3787 22.9864 27.3411 19.0266C28.5857 17.782 29.8586 15.7186 30.5336 13.9453C31.3984 11.7101 31.7526 10.1934 31.9887 7.58342C32.0888 6.43627 31.8116 6 30.9339 6Z" fill="#424242"/>
<path opacity="0.2" d="M18.0254 18.6471C18.3308 18.6471 18.6157 18.7651 18.8312 18.9807C19.0468 19.1962 19.1649 19.4811 19.1649 19.7865C19.1649 20.0919 19.0468 20.3767 18.8312 20.5923C18.6157 20.8079 18.3308 20.9259 18.0254 20.9259C17.72 20.9259 17.4352 20.8079 17.2196 20.5923C17.004 20.3767 16.886 20.0919 16.886 19.7865C16.886 19.4811 17.004 19.1962 17.2196 18.9807C17.4377 18.7651 17.7226 18.6471 18.0254 18.6471ZM18.0254 18.1338C17.602 18.1338 17.1811 18.2955 16.8577 18.6188C16.2136 19.263 16.2136 20.31 16.8577 20.9542C17.1811 21.2775 17.602 21.4392 18.0254 21.4392C18.4489 21.4392 18.8697 21.2775 19.1931 20.9542C19.8372 20.31 19.8372 19.263 19.1931 18.6188C18.8723 18.2955 18.4489 18.1338 18.0254 18.1338Z" fill="#424242"/>
<defs>
<linearGradient id="paint0_linear_491_1144" x1="14.2899" y1="27.6549" x2="5.98938" y2="27.6549" gradientUnits="userSpaceOnUse">
<stop stop-color="#FF6D00"/>
<stop offset="0.2487" stop-color="#FF9B00"/>
<stop offset="0.5135" stop-color="#FFC600"/>
<stop offset="0.721" stop-color="#FFE000"/>
<stop offset="0.8439" stop-color="#FFEA00"/>
</linearGradient>
<linearGradient id="paint1_linear_491_1144" x1="11.4749" y1="26.2756" x2="7.17756" y2="30.7035" gradientUnits="userSpaceOnUse">
<stop offset="0.0044475" stop-color="#C62828"/>
<stop offset="0.2711" stop-color="#D75327"/>
<stop offset="0.5983" stop-color="#E98126"/>
<stop offset="0.8504" stop-color="#F59D25"/>
<stop offset="0.9953" stop-color="#F9A825"/>
</linearGradient>
<radialGradient id="paint2_radial_491_1144" cx="0" cy="0" r="1" gradientUnits="userSpaceOnUse" gradientTransform="translate(23.5481 11.0173) rotate(180) scale(9.36013)">
<stop offset="0.0112" stop-color="#F5F5F5"/>
<stop offset="0.9995" stop-color="#BDBDBD"/>
</radialGradient>
</defs>
</svg>
