<svg width="28" height="28" viewBox="0 0 28 28" fill="none" xmlns="http://www.w3.org/2000/svg">
<path d="M3.96618 4H24.256C24.5123 4 24.758 4.09161 24.9392 4.25469C25.1204 4.41776 25.2222 4.63894 25.2222 4.86957V7.47826H3V4.86957C3 4.63894 3.10179 4.41776 3.28299 4.25469C3.46418 4.09161 3.70994 4 3.96618 4Z" fill="#7C7D7D"/>
<path d="M25.2222 4.86957V6.6087H7.34777C6.57903 6.6087 5.84177 6.33385 5.29818 5.84463C4.7546 5.3554 4.44922 4.69187 4.44922 4H24.256C24.5122 4 24.758 4.09161 24.9392 4.25469C25.1204 4.41776 25.2222 4.63894 25.2222 4.86957Z" fill="#919191"/>
<path d="M3 7.47852H25.2222V23.1307C25.2222 23.3613 25.1204 23.5825 24.9392 23.7456C24.758 23.9086 24.5123 24.0003 24.256 24.0003H3.96618C3.70994 24.0003 3.46418 23.9086 3.28299 23.7456C3.10179 23.5825 3 23.3613 3 23.1307V7.47852Z" fill="#DAD7E5"/>
<path d="M25.2222 7.47852V23.1307H21.8405C17.2324 23.1181 12.817 21.465 9.5585 18.5323C6.30003 15.5997 4.46324 11.6259 4.44922 7.47852H25.2222Z" fill="#EDEBF2"/>
<path d="M4.93243 6.17425C4.85319 6.17383 4.77528 6.15588 4.70557 6.12197C4.63585 6.08807 4.57648 6.03925 4.53267 5.97982C4.48887 5.92039 4.46198 5.85217 4.45438 5.78118C4.44677 5.71019 4.45869 5.63861 4.48908 5.57275C4.51946 5.50688 4.56739 5.44875 4.62862 5.40349C4.68986 5.35822 4.76252 5.32721 4.84022 5.31318C4.91791 5.29915 4.99825 5.30254 5.07414 5.32305C5.15004 5.34355 5.21916 5.38055 5.27543 5.43077C5.34356 5.49158 5.39002 5.56928 5.40889 5.65395C5.42777 5.73862 5.4182 5.82644 5.3814 5.90619C5.34461 5.98595 5.28225 6.05404 5.20229 6.10178C5.12233 6.14952 5.02838 6.17475 4.93243 6.17425Z" fill="#DB5669"/>
<path d="M6.86493 6.17425C6.7368 6.17425 6.61393 6.12845 6.52333 6.04691C6.43273 5.96537 6.38184 5.85478 6.38184 5.73947C6.38184 5.65348 6.41017 5.56942 6.46325 5.49792C6.51633 5.42642 6.59178 5.37069 6.68006 5.33778C6.76833 5.30488 6.86546 5.29627 6.95917 5.31304C7.05288 5.32982 7.13896 5.37123 7.20653 5.43203C7.27409 5.49284 7.3201 5.57031 7.33874 5.65465C7.35738 5.73899 7.34781 5.82641 7.31125 5.90585C7.27468 5.9853 7.21276 6.0532 7.13332 6.10098C7.05388 6.14875 6.96047 6.17425 6.86493 6.17425Z" fill="#FFCC66"/>
<path d="M8.79718 6.17425C8.71794 6.17383 8.64003 6.15588 8.57031 6.12197C8.5006 6.08807 8.44122 6.03925 8.39742 5.97982C8.35361 5.92039 8.32673 5.85217 8.31912 5.78118C8.31152 5.71019 8.32344 5.63861 8.35382 5.57275C8.38421 5.50688 8.43213 5.44875 8.49337 5.40349C8.5546 5.35822 8.62727 5.32721 8.70496 5.31318C8.78266 5.29915 8.86299 5.30254 8.93889 5.32305C9.01478 5.34355 9.08391 5.38055 9.14017 5.43077C9.2083 5.49158 9.25477 5.56928 9.27364 5.65395C9.29251 5.73862 9.28294 5.82644 9.24615 5.90619C9.20935 5.98595 9.147 6.05404 9.06704 6.10178C8.98708 6.14952 8.89313 6.17475 8.79718 6.17425Z" fill="#9DCC6B"/>
<path d="M22.3239 6.17425H14.5944C14.4663 6.17425 14.3434 6.12845 14.2528 6.04691C14.1622 5.96537 14.1113 5.85478 14.1113 5.73947C14.1113 5.62416 14.1622 5.51357 14.2528 5.43203C14.3434 5.35049 14.4663 5.30469 14.5944 5.30469H22.3239C22.452 5.30469 22.5749 5.35049 22.6655 5.43203C22.7561 5.51357 22.807 5.62416 22.807 5.73947C22.807 5.85478 22.7561 5.96537 22.6655 6.04691C22.5749 6.12845 22.452 6.17425 22.3239 6.17425Z" fill="#EDEBF2"/>
</svg>
