<svg width="71" height="68" viewBox="0 0 71 68" fill="none" xmlns="http://www.w3.org/2000/svg">
<path d="M69.7549 32.7081L61.4618 30.035C56.1573 28.2847 53.0496 23.9923 51.591 18.5985L47.9416 0.821572C47.8463 0.470321 47.6141 0 46.8997 0C46.2984 0 45.9531 0.470321 45.8579 0.821572L42.2084 18.6044C40.7439 23.9982 37.6421 28.2907 32.3376 30.041L24.0445 32.7141C22.8717 33.0951 22.8538 34.7501 24.0207 35.149L32.3734 38.0245C37.66 39.7808 40.7439 44.0672 42.2084 49.4372L45.8638 67.0177C45.9591 67.3689 46.1555 68 46.9057 68C47.6975 68 47.8523 67.3689 47.9475 67.0177L51.6029 49.4372C53.0675 44.0613 56.1513 39.7748 61.438 38.0245L69.7906 35.149C70.9456 34.7442 70.9277 33.0891 69.7549 32.7081Z" fill="#FDD835"/>
<path d="M70.5406 33.4522C70.4096 33.1248 70.1536 32.839 69.7548 32.708L61.4616 30.035C56.1571 28.2846 53.0495 23.9922 51.5909 18.5984L47.9414 0.821512C47.8878 0.619096 47.6973 0.249984 47.4771 0.142822L48.6558 17.9852C49.531 26.1295 50.2811 29.9635 56.7823 31.0828C62.3666 32.0472 68.826 33.1545 70.5406 33.4522Z" fill="#FFEE58"/>
<path d="M70.5585 34.3809L56.175 37.6791C51.1086 38.965 48.3165 41.9 48.3165 49.5799L46.9055 67.9998C47.3877 67.9522 47.7807 67.6903 47.9474 67.0175L51.6028 49.4371C53.0673 44.0611 56.1512 39.7747 61.4378 38.0244L69.7905 35.1489C70.1834 35.006 70.4335 34.7143 70.5585 34.3809Z" fill="#F4B400"/>
<path d="M22.2584 48.1748C17.2992 46.5377 16.8467 44.6921 16.0133 41.5785L13.9355 34.2915C13.8105 33.8211 12.5841 33.8211 12.4531 34.2915L11.0422 41.0248C10.2027 44.1265 8.41669 46.5912 5.36854 47.5974L0.510546 49.7049C-0.162191 49.9251 -0.174098 50.8777 0.498639 51.1039L5.39235 52.8364C8.4286 53.8425 10.2027 56.3072 11.0481 59.397L12.4591 65.8387C12.59 66.309 13.8105 66.309 13.9355 65.8387L15.5906 59.4268C16.43 56.3191 17.7159 53.8485 21.8417 52.8364L26.4377 51.1039C27.1104 50.8717 27.1045 49.9192 26.4258 49.6989L22.2584 48.1748Z" fill="#FDD835"/>
<path d="M14.3284 41.4713C14.8345 46.1507 15.0905 47.4485 18.8828 48.419L26.783 49.9609C26.6996 49.8478 26.5806 49.7525 26.4198 49.7049L22.2524 48.1749C17.9005 46.6865 16.6979 44.7933 15.8823 41.0069C15.0667 37.2206 14.1975 34.7499 14.1975 34.7499C13.8938 33.9343 13.4592 33.9759 13.4592 33.9759L14.3284 41.4713Z" fill="#FFEE58"/>
<path d="M14.4714 57.8078C14.4714 53.3963 16.8825 51.2114 20.7165 51.2114L26.6818 50.9673C26.6818 50.9673 26.3365 51.4257 25.7352 51.5686L21.8417 52.8367C18.5376 54.1643 17.0313 54.8311 16.0074 59.3497C16.0074 59.3497 14.6857 64.6066 14.4357 65.1602C14.0904 65.9342 13.6796 66.0949 13.6796 66.0949L14.4714 57.8078Z" fill="#F4B400"/>
<path d="M32.9328 13.246C33.2662 13.1329 33.2543 12.6566 32.915 12.5614L28.3189 11.323C27.3545 11.0611 26.6044 10.3169 26.3305 9.35841L24.5207 1.88686C24.4314 1.52371 23.9134 1.5237 23.8241 1.89282L22.1214 9.3346C21.8595 10.3229 21.0855 11.0849 20.0973 11.3409L15.531 12.5256C15.1916 12.6149 15.1678 13.0912 15.5012 13.2103L20.3175 14.8772C21.1808 15.1749 21.8476 15.8774 22.1095 16.7526L23.8301 23.6526C23.9194 24.0098 24.4314 24.0157 24.5207 23.6526L26.3007 16.7287C26.5686 15.8536 27.2414 15.157 28.1106 14.8653L32.9328 13.246Z" fill="#F4B400" stroke="#F4B400" stroke-width="0.698062" stroke-miterlimit="10"/>
</svg>
