<svg width="58" height="58" viewBox="0 0 58 58" fill="none" xmlns="http://www.w3.org/2000/svg">
<g clip-path="url(#clip0_245_282)">
<rect width="58" height="58" rx="29" fill="white"/>
<path d="M30.1063 43.7453L29.5516 43.768C18.5367 44.1189 10.3858 33.5795 13.4084 22.9834L14.1782 20.2778C14.1782 20.2778 16.7706 5.99116 28.295 6.08173C28.295 6.08173 39.4345 4.20251 43.725 18.4665L44.9929 22.3947C48.3777 32.6851 40.9401 43.3265 30.1063 43.7453Z" fill="#191919"/>
<path d="M17.597 26.1883C17.597 26.1883 14.8914 25.1921 14.2574 27.6034C14.0989 28.2147 14.1329 28.8486 14.3367 29.4486C14.7216 30.6147 15.7178 32.5278 18.0498 31.9165" fill="white"/>
<path d="M17.2121 32.3469C15.7744 32.3469 14.6423 31.362 14.0423 29.5507C13.8159 28.8941 13.7933 28.2036 13.9631 27.5243C14.1556 26.7772 14.5518 26.2451 15.1404 25.9508C16.2612 25.3621 17.6649 25.8715 17.7215 25.8942C17.8914 25.9508 17.9706 26.1432 17.914 26.3017C17.8574 26.4715 17.6649 26.5507 17.5065 26.4941C17.4951 26.4941 16.3065 26.064 15.4348 26.5168C15.0159 26.7319 14.7329 27.1281 14.5857 27.6828C14.4499 28.2262 14.4725 28.8035 14.6537 29.3469C15.4461 31.7356 16.9065 31.8941 17.9819 31.6111C18.1517 31.5658 18.3215 31.6677 18.3668 31.8375C18.4121 32.0073 18.3102 32.1771 18.1404 32.2224C17.8121 32.3016 17.5065 32.3469 17.2121 32.3469Z" fill="#191919"/>
<path d="M40.5778 26.4345C40.5778 26.4345 43.3061 25.5062 43.8835 27.9288C44.0193 28.5401 43.974 29.1854 43.7589 29.7741C43.3401 30.9288 42.2986 32.8193 39.9778 32.1401" fill="white"/>
<path d="M40.8948 32.5931C40.5778 32.5931 40.2382 32.5478 39.8873 32.4459C39.7175 32.4006 39.6269 32.2195 39.6722 32.0497C39.7175 31.8799 39.8986 31.7893 40.0684 31.8346C41.1439 32.1516 42.6042 32.0271 43.4533 29.6611C43.657 29.129 43.691 28.5516 43.5665 27.9969C43.4306 27.4309 43.1589 27.0347 42.7514 26.8083C41.891 26.3328 40.691 26.729 40.6797 26.729C40.5099 26.7856 40.3288 26.6951 40.2722 26.5253C40.2156 26.3554 40.3061 26.1743 40.4759 26.1177C40.5325 26.0951 41.9476 25.6309 43.057 26.2422C43.6344 26.5592 44.008 27.1026 44.1891 27.8498C44.3476 28.529 44.291 29.2309 44.0533 29.8762C43.4193 31.6422 42.2872 32.5931 40.8948 32.5931Z" fill="#191919"/>
<path d="M5.40478 63.6346C5.40478 63.6346 3.89914 56.6384 13.0235 52.4045C13.0235 52.4045 23.2121 46.6763 24.0611 46.2574C24.0611 46.2574 28.7252 44.2763 33.8082 46.2574L47.4155 53.4687C47.4155 53.4687 53.4494 57.0007 52.6003 63.6459L5.40478 63.6346Z" fill="white"/>
<path d="M52.8834 63.9511H5.15572L5.09912 63.7021C5.0878 63.6228 4.71422 61.8455 5.49534 59.5022C6.79721 55.6305 10.2273 53.3551 12.8877 52.1098C13.4311 51.8041 23.0875 46.3816 23.9253 45.9627L23.9479 45.9514C24.1404 45.8722 28.7931 43.9476 33.9327 45.9514L33.9666 45.9627L47.5627 53.1739C47.6419 53.2192 53.7777 56.8984 52.9173 63.6681L52.8834 63.9511ZM5.67647 63.3172H52.3173C52.9286 57.1361 47.3136 53.7626 47.257 53.7286L33.6836 46.5401C28.8837 44.6835 24.4121 46.4495 24.197 46.5401C23.3026 46.9929 13.2839 52.6192 13.182 52.6758L13.1594 52.6872C9.52547 54.3739 7.08022 56.7852 6.10665 59.672C5.5293 61.3587 5.60854 62.7625 5.67647 63.3172Z" fill="#191919"/>
<path d="M23.4838 46.8587V40.6211H34.544V46.8587" fill="white"/>
<path d="M34.544 47.1759C34.3628 47.1759 34.227 47.0287 34.227 46.8589V40.9382H23.8121V46.8589C23.8121 47.04 23.6649 47.1759 23.4951 47.1759C23.3253 47.1759 23.1781 47.0287 23.1781 46.8589V40.293H34.861V46.8589C34.861 47.0287 34.7138 47.1759 34.544 47.1759Z" fill="#191919"/>
<path d="M34.544 39.6469C34.544 39.6469 28.7026 43.4167 23.4951 39.1602V40.6205C23.4951 40.6205 28.9743 46.4733 34.544 45.228V39.6469Z" fill="#191919"/>
<path d="M29.0082 43.9158C22.363 43.8705 17.0423 35.2215 17.0876 28.5763L17.1328 21.8972C17.1895 15.252 22.612 9.90869 29.2459 9.96529C35.8911 10.0106 41.2344 15.4331 41.1891 22.0783L41.1438 28.7575C41.1099 35.3913 35.6533 43.961 29.0082 43.9158Z" fill="white"/>
<path d="M29.0648 44.2325C29.0421 44.2325 29.0308 44.2325 29.0082 44.2325C25.8384 44.2098 22.7366 42.3193 20.28 38.9005C18.0612 35.8099 16.748 31.9496 16.7706 28.5648L16.8159 21.8856C16.8838 15.1159 22.4083 9.63672 29.1667 9.63672H29.2572C32.5515 9.65936 35.642 10.9725 37.9628 13.3159C40.2835 15.6593 41.5401 18.7724 41.5174 22.0781L41.4722 28.7572C41.4495 32.1307 40.0797 35.9684 37.8156 39.0363C35.3251 42.3872 32.2232 44.2325 29.0648 44.2325ZM29.0195 43.5872H29.0761C32.0195 43.5872 34.9402 41.8325 37.3062 38.6401C39.491 35.6854 40.8156 31.9836 40.8382 28.7459L40.8835 22.0667C40.9061 18.9422 39.7061 15.9876 37.5099 13.7574C35.3138 11.5386 32.3817 10.2933 29.2572 10.2707C29.2233 10.2707 29.2006 10.2707 29.1667 10.2707C22.7479 10.2707 17.5065 15.4668 17.4612 21.8856L17.4159 28.5648C17.3932 31.8138 18.6612 35.5382 20.8007 38.5156C23.1328 41.7759 26.0535 43.5759 29.0195 43.5872Z" fill="#191919"/>
<path d="M19.6234 10.5868C19.6234 10.5868 16.0801 22.2923 42.7967 22.4848C42.808 22.4848 40.7477 3.85108 19.6234 10.5868Z" fill="#191919"/>
<path d="M21.4008 47.707C21.4008 47.707 28.2271 54.0692 36.627 47.707C36.627 47.707 47.4948 53.1749 48.8193 54.4994C48.8193 54.4994 53.1098 57.205 52.6117 63.6238H5.40481C5.40481 63.6238 4.21615 57.3748 11.0425 53.4466L21.4008 47.707Z" fill="#191919"/>
<path d="M23.4612 27.6931C23.8926 27.6931 24.2423 27.2065 24.2423 26.6063C24.2423 26.0061 23.8926 25.5195 23.4612 25.5195C23.0298 25.5195 22.6801 26.0061 22.6801 26.6063C22.6801 27.2065 23.0298 27.6931 23.4612 27.6931Z" fill="#191919"/>
<path d="M20.2461 24.1834C20.1555 24.1834 20.065 24.1381 19.997 24.0702C19.8838 23.9344 19.9065 23.7306 20.0423 23.6287C23.0876 21.1835 26.6196 22.9721 26.6536 22.9834C26.812 23.0627 26.8686 23.2551 26.7894 23.4136C26.7102 23.5721 26.5177 23.6287 26.3592 23.5495C26.2234 23.4815 23.1555 21.9419 20.4385 24.1268C20.3933 24.1608 20.314 24.1834 20.2461 24.1834Z" fill="#191919"/>
<path d="M33.9554 27.6931C34.3868 27.6931 34.7365 27.2065 34.7365 26.6063C34.7365 26.0061 34.3868 25.5195 33.9554 25.5195C33.524 25.5195 33.1743 26.0061 33.1743 26.6063C33.1743 27.2065 33.524 27.6931 33.9554 27.6931Z" fill="#191919"/>
<path d="M37.7251 24.4436C37.6572 24.4436 37.5893 24.4209 37.5214 24.3756C34.8157 22.1794 31.7252 23.7077 31.6007 23.7756C31.4422 23.8549 31.2498 23.7983 31.1705 23.6398C31.0913 23.4813 31.1479 23.2889 31.3064 23.2096C31.3403 23.187 34.8837 21.421 37.9176 23.8775C38.0534 23.9907 38.0761 24.1832 37.9629 24.3304C37.9063 24.3983 37.8157 24.4436 37.7251 24.4436Z" fill="#191919"/>
<path d="M29.1215 36.2271C28.4649 36.2271 27.6951 36.1252 26.8234 35.8422C26.6536 35.7856 26.563 35.6044 26.6196 35.4346C26.6762 35.2648 26.8574 35.1743 27.0272 35.2309C29.3592 36.012 30.9894 35.2422 31.0007 35.2422C31.1592 35.1629 31.3516 35.2309 31.4309 35.3894C31.5101 35.5478 31.4422 35.7403 31.2837 35.8195C31.2271 35.8422 30.4234 36.2271 29.1215 36.2271Z" fill="#191919"/>
<path d="M28.8498 33.1144C28.2724 33.1144 27.6271 33.0012 27.3215 32.537C26.9592 32.005 27.1403 31.2125 27.8875 30.1258C27.8988 30.1144 28.7592 28.8579 28.4988 27.7371C28.4649 27.5673 28.5667 27.3975 28.7365 27.3522C28.9064 27.3182 29.0762 27.4201 29.1214 27.5899C29.4384 28.9824 28.4535 30.4201 28.4083 30.4767C27.8535 31.2691 27.6498 31.8918 27.8422 32.1635C28.1252 32.5823 29.3252 32.4691 29.8573 32.3446C30.0271 32.3106 30.1969 32.4125 30.2422 32.5823C30.2875 32.7521 30.1743 32.9219 30.0045 32.9672C29.9026 33.0012 29.4045 33.1144 28.8498 33.1144Z" fill="#191919"/>
<path d="M21.4008 47.707C21.4008 47.707 28.2271 54.0692 36.627 47.707C36.627 47.707 36.8421 57.205 36.344 63.6351H21.6838L21.4008 47.707Z" fill="#191919"/>
<path d="M23.4838 63.6351L21.4008 47.707L16.4084 50.4806L21.6838 63.6351H23.4838Z" fill="white"/>
<path d="M23.846 63.9521H21.4687L16.0009 50.3448L21.6498 47.209L23.846 63.9521ZM21.8989 63.3182H23.1215L21.1517 48.2165L16.8159 50.6278L21.8989 63.3182Z" fill="#191919"/>
<path d="M34.544 63.6351L36.627 47.707L41.6194 50.4806L36.344 63.6351H34.544Z" fill="white"/>
<path d="M36.5591 63.9521H34.1818L36.378 47.209L42.0269 50.3448L36.5591 63.9521ZM34.9063 63.3182H36.1289L41.2232 50.6278L36.8761 48.2165L34.9063 63.3182Z" fill="#191919"/>
</g>
<defs>
<clipPath id="clip0_245_282">
<rect width="58" height="58" rx="29" fill="white"/>
</clipPath>
</defs>
</svg>
